<svg width="18" height="18" viewBox="0 0 18 18" fill="none" xmlns="http://www.w3.org/2000/svg">
<g id="Group">
<path id="Vector" d="M18 0H0V18H18V0ZM16.5 16.5H1.5V1.5H16.5V16.5Z" fill="currentColor"/>
<path id="Vector_2" d="M11 8L9 11L7 9L2 15H16L11 8ZM7.09998 11.22L7.94 12.06L9.22998 13.35L10.24 11.83L11.03 10.64L13.07 13.5H5.19L7.09003 11.22H7.09998Z" fill="currentColor"/>
<path id="Vector_3" d="M13 7C14.1 7 15 6.1 15 5C15 3.9 14.1 3 13 3C11.9 3 11 3.9 11 5C11 6.1 11.9 7 13 7ZM13 4.5C13.28 4.5 13.5 4.72 13.5 5C13.5 5.28 13.28 5.5 13 5.5C12.72 5.5 12.5 5.28 12.5 5C12.5 4.72 12.72 4.5 13 4.5Z" fill="currentColor"/>
</g>
</svg>
