<svg width="24" height="24" viewBox="0 0 24 24" fill="none" xmlns="http://www.w3.org/2000/svg">
<g id="color=bk">
<path id="Vector" d="M11.99 22C8.68552 22 6 19.12 6 15.59V9.95H7.56739V15.59C7.56739 18.28 9.55408 20.46 11.99 20.46C14.426 20.46 16.4126 18.27 16.4126 15.59V6.87C16.4126 5.03 15.0649 3.54 13.4076 3.54C11.7504 3.54 10.4027 5.04 10.4027 6.87V14.56C10.4027 15.55 11.1115 16.35 11.99 16.35C12.8686 16.35 13.5774 15.54 13.5774 14.56V7.89H15.1448V14.56C15.1448 16.4 13.7371 17.89 12 17.89C10.2629 17.89 8.85524 16.39 8.85524 14.56V6.87C8.85524 4.18 10.9018 2 13.4276 2C15.9534 2 18 4.19 18 6.87V15.59C18 19.12 15.3145 22 12.01 22H11.99Z" fill="currentColor"/>
</g>
</svg>
