<svg width="20" height="18" viewBox="0 0 20 18" fill="none" xmlns="http://www.w3.org/2000/svg">
<g id="Group">
<path id="Vector" d="M0 4V14H3L13 18V0L3 4H0ZM1.5 12.5V5.5H3V12.5H1.5ZM11.5 15.78L6 13.58L4.5 12.98V5.01L6 4.41L11.5 2.21V15.78Z" fill="currentColor"/>
<path id="Vector_2" d="M17.89 3.10999L16.84 4.15998C17.92 5.63998 18.49 7.30998 18.49 9.00998C18.49 10.71 17.92 12.38 16.84 13.86L17.89 14.91C19.27 13.14 20 11.1 20 9.01999C20 6.93999 19.27 4.89999 17.89 3.12999V3.10999Z" fill="currentColor"/>
<path id="Vector_3" d="M15.87 5.13L14.79 6.21C15.25 7.09 15.5 8.04 15.5 9C15.5 9.96 15.25 10.91 14.79 11.79L15.87 12.87C16.6 11.67 17 10.35 17 9C17 7.65 16.6 6.33 15.87 5.13Z" fill="currentColor"/>
</g>
</svg>
