<svg width="20" height="20" viewBox="0 0 20 20" fill="none" xmlns="http://www.w3.org/2000/svg">
<g id="Group 5">
<path id="Vector" d="M11.6642 1.5L11.8541 2.79C12.044 4.02 13.0735 4.91 14.3128 4.91C14.6227 4.91 14.9325 4.85 15.2224 4.74L16.3918 4.28L18.071 7.24L17.0615 8.06C16.4818 8.54 16.1419 9.24 16.1419 10C16.1419 10.76 16.4818 11.47 17.0615 11.94L18.071 12.76L16.3918 15.72L15.2224 15.26C14.9325 15.14 14.6227 15.09 14.3128 15.09C13.0735 15.09 12.044 15.98 11.8541 17.21L11.6642 18.5H8.33583L8.14592 17.21C7.95602 15.98 6.92653 15.09 5.68715 15.09C5.3773 15.09 5.06747 15.15 4.77761 15.26L3.6082 15.72L1.92903 12.76L2.93852 11.94C3.51823 11.46 3.85807 10.76 3.85807 10C3.85807 9.24 3.51823 8.53 2.93852 8.06L1.92903 7.24L3.6082 4.28L4.77761 4.74C5.06747 4.86 5.3773 4.91 5.68715 4.91C6.92653 4.91 7.95602 4.02 8.14592 2.79L8.33583 1.5H11.6642ZM12.9535 0H7.04647L6.65666 2.56C6.5767 3.06 6.15691 3.41 5.68715 3.41C5.5672 3.41 5.44728 3.39 5.32734 3.34L2.94852 2.4L0 7.6L1.989 9.22C2.47875 9.62 2.47875 10.38 1.989 10.78L0 12.4L2.94852 17.6L5.32734 16.66C5.44728 16.61 5.5672 16.59 5.68715 16.59C6.15691 16.59 6.5867 16.93 6.65666 17.44L7.04647 20H12.9535L13.3433 17.44C13.4233 16.94 13.8431 16.59 14.3128 16.59C14.4328 16.59 14.5527 16.61 14.6727 16.66L17.0515 17.6L20 12.4L18.011 10.78C17.5212 10.38 17.5212 9.62 18.011 9.22L20 7.6L17.0515 2.4L14.6727 3.34C14.5527 3.39 14.4328 3.41 14.3128 3.41C13.8431 3.41 13.4133 3.07 13.3433 2.56L12.9535 0Z" fill="currentColor"/>
<path id="Vector_2" d="M10.005 8.5C10.8346 8.5 11.5043 9.17 11.5043 10C11.5043 10.83 10.8346 11.5 10.005 11.5C9.17542 11.5 8.50575 10.83 8.50575 10C8.50575 9.17 9.17542 8.5 10.005 8.5ZM10.005 7C8.34583 7 7.0065 8.34 7.0065 10C7.0065 11.66 8.34583 13 10.005 13C11.6642 13 13.0035 11.66 13.0035 10C13.0035 8.34 11.6642 7 10.005 7Z" fill="currentColor"/>
</g>
</svg>
