<svg width="18" height="20" viewBox="0 0 18 20" fill="none" xmlns="http://www.w3.org/2000/svg">
<g id="Group 6">
<g id="Group">
<path id="Vector" d="M14.75 1V0.75C14.75 0.34 14.41 0 14 0C13.59 0 13.25 0.34 13.25 0.75V1H4.75V0.75C4.75 0.34 4.41 0 4 0C3.59 0 3.25 0.34 3.25 0.75V1H0V20H18V1H14.75ZM3.25 2.5V2.75C3.25 3.16 3.59 3.5 4 3.5C4.41 3.5 4.75 3.16 4.75 2.75V2.5H13.25V2.75C13.25 3.16 13.59 3.5 14 3.5C14.41 3.5 14.75 3.16 14.75 2.75V2.5H16.5V6.25H1.5V2.5H3.25ZM1.5 18.5V7.75H16.5V18.5H1.5Z" fill="currentColor"/>
</g>
<path id="Vector_2" d="M14 0V4" stroke="currentColor" stroke-width="1.5" stroke-miterlimit="10"/>
<path id="Vector_3" d="M4 0V4" stroke="currentColor" stroke-width="1.5" stroke-miterlimit="10"/>
<path id="Vector_4" d="M5.5 11.5H4V13H5.5V11.5Z" fill="currentColor"/>
<path id="Vector_5" d="M9.75 11.5H8.25V13H9.75V11.5Z" fill="currentColor"/>
<path id="Vector_6" d="M14 11.5H12.5V13H14V11.5Z" fill="currentColor"/>
</g>
</svg>
