<svg width="12" height="12" viewBox="0 0 12 12" fill="none" xmlns="http://www.w3.org/2000/svg">
<g id="Layer_1" clip-path="url(#clip0_266_441)">
<path id="Vector" d="M6 1.5C8.48 1.5 10.5 3.52 10.5 6C10.5 8.48 8.48 10.5 6 10.5C3.52 10.5 1.5 8.48 1.5 6C1.5 3.52 3.52 1.5 6 1.5ZM6 0C2.69 0 0 2.69 0 6C0 9.31 2.69 12 6 12C9.31 12 12 9.31 12 6C12 2.69 9.31 0 6 0Z" fill="currentColor"/>
<path id="Vector_2" d="M5.5 8.55997L2.97 6.02997L4.03 4.96997L5.5 6.43997L7.97 3.96997L9.03 5.02997L5.5 8.55997Z" fill="currentColor"/>
</g>
<defs>
<clipPath id="clip0_266_441">
<rect width="12" height="12" fill="white"/>
</clipPath>
</defs>
</svg>
