<svg width="16" height="16" viewBox="0 0 16 16" fill="currentColor" xmlns="http://www.w3.org/2000/svg">
<path d="M12.0167 14H4.23337V5.46669L8.86671 0.666687L9.41671 1.10002C9.53893 1.18891 9.61949 1.28891 9.65837 1.40002C9.69726 1.51113 9.71671 1.63891 9.71671 1.78335V1.95002L8.96671 5.46669H14.3334C14.5889 5.46669 14.8195 5.56946 15.025 5.77502C15.2306 5.98058 15.3334 6.21113 15.3334 6.46669V7.83335C15.3334 7.95558 15.3195 8.09724 15.2917 8.25835C15.2639 8.41946 15.2223 8.56113 15.1667 8.68335L13.2334 13.15C13.1334 13.3834 12.9695 13.5834 12.7417 13.75C12.5139 13.9167 12.2723 14 12.0167 14ZM3.23337 5.46669V14H1.33337V5.46669H3.23337Z" fill="currentColor"/>
</svg>
