<svg width="20" height="20" viewBox="0 0 20 20" fill="currentColor" xmlns="http://www.w3.org/2000/svg">
<path d="M3.75 18.3125C3.41667 18.3125 3.125 18.1875 2.875 17.9375C2.625 17.6875 2.5 17.3958 2.5 17.0625V4.50001H3.75V17.0625H13.625V18.3125H3.75ZM6.25 15.8125C5.91667 15.8125 5.625 15.6875 5.375 15.4375C5.125 15.1875 5 14.8958 5 14.5625V2.89584C5 2.56251 5.125 2.27084 5.375 2.02084C5.625 1.77084 5.91667 1.64584 6.25 1.64584H15.4167C15.75 1.64584 16.0417 1.77084 16.2917 2.02084C16.5417 2.27084 16.6667 2.56251 16.6667 2.89584V14.5625C16.6667 14.8958 16.5417 15.1875 16.2917 15.4375C16.0417 15.6875 15.75 15.8125 15.4167 15.8125H6.25Z" fill="currentColor"/>
</svg>
