<svg width="20" height="20" viewBox="0 0 20 20" fill="currentColor" xmlns="http://www.w3.org/2000/svg">
<path d="M5.43754 17.5C5.10421 17.5 4.81254 17.375 4.56254 17.125C4.31254 16.875 4.18754 16.5833 4.18754 16.25V4.375H3.95837C3.77782 4.375 3.62851 4.31597 3.51046 4.19792C3.3924 4.07986 3.33337 3.93056 3.33337 3.75C3.33337 3.56944 3.3924 3.42014 3.51046 3.30208C3.62851 3.18403 3.77782 3.125 3.95837 3.125H7.25004C7.25004 2.94444 7.30907 2.79514 7.42712 2.67708C7.54518 2.55903 7.69448 2.5 7.87504 2.5H12.125C12.3056 2.5 12.4549 2.55903 12.573 2.67708C12.691 2.79514 12.75 2.94444 12.75 3.125H16.0417C16.2223 3.125 16.3716 3.18403 16.4896 3.30208C16.6077 3.42014 16.6667 3.56944 16.6667 3.75C16.6667 3.93056 16.6077 4.07986 16.4896 4.19792C16.3716 4.31597 16.2223 4.375 16.0417 4.375H15.8125V16.25C15.8125 16.5833 15.6875 16.875 15.4375 17.125C15.1875 17.375 14.8959 17.5 14.5625 17.5H5.43754ZM7.64587 13.8333C7.64587 14.0139 7.7049 14.1632 7.82296 14.2813C7.94101 14.3993 8.09032 14.4583 8.27087 14.4583C8.45143 14.4583 8.60073 14.3993 8.71879 14.2813C8.83685 14.1632 8.89587 14.0139 8.89587 13.8333V6.77083C8.89587 6.59028 8.83685 6.44097 8.71879 6.32292C8.60073 6.20486 8.45143 6.14583 8.27087 6.14583C8.09032 6.14583 7.94101 6.20486 7.82296 6.32292C7.7049 6.44097 7.64587 6.59028 7.64587 6.77083V13.8333ZM11.1042 13.8333C11.1042 14.0139 11.1632 14.1632 11.2813 14.2813C11.3993 14.3993 11.5487 14.4583 11.7292 14.4583C11.9098 14.4583 12.0591 14.3993 12.1771 14.2813C12.2952 14.1632 12.3542 14.0139 12.3542 13.8333V6.77083C12.3542 6.59028 12.2952 6.44097 12.1771 6.32292C12.0591 6.20486 11.9098 6.14583 11.7292 6.14583C11.5487 6.14583 11.3993 6.20486 11.2813 6.32292C11.1632 6.44097 11.1042 6.59028 11.1042 6.77083V13.8333Z" fill="currentColor"/>
</svg>
