<svg width="20" height="20" viewBox="0 0 20 20" fill="currentColor" xmlns="http://www.w3.org/2000/svg">
<path d="M16.5417 6.125L13.875 3.45834L14.75 2.58334C14.9861 2.34722 15.2813 2.23264 15.6354 2.23959C15.9896 2.24653 16.2847 2.36806 16.5208 2.60417L17.4167 3.5C17.6528 3.73611 17.7708 4.02778 17.7708 4.375C17.7708 4.72222 17.6528 5.01389 17.4167 5.25L16.5417 6.125ZM3.125 17.5C2.94444 17.5 2.79514 17.441 2.67708 17.3229C2.55903 17.2049 2.5 17.0556 2.5 16.875V15.0833C2.5 15 2.51389 14.9236 2.54167 14.8542C2.56944 14.7847 2.61806 14.7153 2.6875 14.6458L13 4.33334L15.6667 7L5.35417 17.3125C5.28472 17.3819 5.21528 17.4306 5.14583 17.4583C5.07639 17.4861 5 17.5 4.91667 17.5H3.125Z" fill="currentColor"/>
</svg>
