<svg width="20" height="20" viewBox="0 0 20 20" fill="currentColor" xmlns="http://www.w3.org/2000/svg">
<path d="M6.16669 15.0208H15.2292V13.8958H6.14585C5.0903 13.8958 4.20141 13.5278 3.47919 12.7917C2.75696 12.0555 2.39585 11.1597 2.39585 10.1042C2.39585 9.0486 2.75002 8.14582 3.45835 7.39582C4.16669 6.64582 5.04169 6.27082 6.08335 6.27082H15.2292C15.882 6.27082 16.441 6.50346 16.9063 6.96874C17.3715 7.43402 17.6042 7.99999 17.6042 8.66666C17.6042 9.33332 17.375 9.8993 16.9167 10.3646C16.4584 10.8299 15.8959 11.0625 15.2292 11.0625H6.91669C6.6528 11.0625 6.42363 10.9687 6.22919 10.7812C6.03474 10.5937 5.93752 10.368 5.93752 10.1042C5.93752 9.82638 6.03821 9.59027 6.2396 9.39582C6.44099 9.20138 6.67363 9.10416 6.93752 9.10416H15.2292V8.02082H6.95835C6.37502 8.02082 5.87502 8.22221 5.45835 8.62499C5.04169 9.02777 4.83335 9.52082 4.83335 10.1042C4.83335 10.6736 5.03474 11.1597 5.43752 11.5625C5.8403 11.9653 6.33335 12.1667 6.91669 12.1667H15.2292C16.1875 12.1667 17.007 11.8229 17.6875 11.1354C18.3681 10.4479 18.7084 9.62499 18.7084 8.66666C18.7084 7.69443 18.3681 6.86805 17.6875 6.18749C17.007 5.50693 16.1875 5.16666 15.2292 5.16666H6.12502C4.7778 5.16666 3.63544 5.6493 2.69794 6.61457C1.76044 7.57985 1.29169 8.7361 1.29169 10.0833C1.29169 11.4444 1.76391 12.6076 2.70835 13.5729C3.6528 14.5382 4.80558 15.0208 6.16669 15.0208V15.0208Z" fill="currentColor"/>
</svg>
