<svg width="20" height="20" viewBox="0 0 20 20" fill="currentColor" xmlns="http://www.w3.org/2000/svg">
<path d="M5.97916 16.6667C5.78472 16.6667 5.62499 16.5903 5.49999 16.4375C5.37499 16.2847 5.34027 16.1111 5.39583 15.9167L6.10416 13.125H3.70833C3.51388 13.125 3.35069 13.0451 3.21874 12.8854C3.0868 12.7257 3.0486 12.5486 3.10416 12.3542C3.13194 12.2153 3.20138 12.1007 3.31249 12.0104C3.4236 11.9201 3.55555 11.875 3.70833 11.875H6.41666L7.35416 8.12501H4.54166C4.34721 8.12501 4.18402 8.04515 4.05208 7.88543C3.92013 7.7257 3.88194 7.54862 3.93749 7.35418C3.96527 7.21529 4.03471 7.1007 4.14583 7.01043C4.25694 6.92015 4.38888 6.87501 4.54166 6.87501H7.66666L8.43749 3.79168C8.46527 3.65279 8.53124 3.54168 8.63541 3.45834C8.73958 3.37501 8.8611 3.33334 8.99999 3.33334C9.19444 3.33334 9.35069 3.40973 9.46874 3.56251C9.5868 3.71529 9.62499 3.8889 9.58333 4.08334L8.89583 6.87501H12.6667L13.4375 3.79168C13.4653 3.65279 13.5312 3.54168 13.6354 3.45834C13.7396 3.37501 13.8611 3.33334 14 3.33334C14.1944 3.33334 14.3507 3.40973 14.4687 3.56251C14.5868 3.71529 14.625 3.8889 14.5833 4.08334L13.8958 6.87501H16.2917C16.4861 6.87501 16.6493 6.95487 16.7812 7.11459C16.9132 7.27432 16.9514 7.4514 16.8958 7.64584C16.868 7.78473 16.7986 7.89932 16.6875 7.98959C16.5764 8.07987 16.4444 8.12501 16.2917 8.12501H13.5833L12.6458 11.875H15.4583C15.6528 11.875 15.816 11.9549 15.9479 12.1146C16.0799 12.2743 16.118 12.4514 16.0625 12.6458C16.0347 12.7847 15.9653 12.8993 15.8542 12.9896C15.743 13.0799 15.6111 13.125 15.4583 13.125H12.3333L11.5625 16.2083C11.5347 16.3195 11.4757 16.4236 11.3854 16.5208C11.2951 16.6181 11.1597 16.6667 10.9792 16.6667C10.7847 16.6667 10.625 16.5903 10.5 16.4375C10.375 16.2847 10.3403 16.1111 10.3958 15.9167L11.1042 13.125H7.33333L6.56249 16.2083C6.53471 16.3195 6.47569 16.4236 6.38541 16.5208C6.29513 16.6181 6.15972 16.6667 5.97916 16.6667ZM7.64583 11.875H11.4167L12.3542 8.12501H8.58333L7.64583 11.875Z" fill="currentColor"/>
</svg>
