<svg width="20" height="20" viewBox="0 0 20 20" fill="currentColor" xmlns="http://www.w3.org/2000/svg">
<path d="M4.58334 18.3333C4.23612 18.3333 3.94098 18.2118 3.69793 17.9688C3.45487 17.7257 3.33334 17.4306 3.33334 17.0833V8.04168C3.33334 7.69445 3.45487 7.39932 3.69793 7.15626C3.94098 6.9132 4.23612 6.79168 4.58334 6.79168H6.04168V4.79168C6.04168 3.69445 6.42709 2.76043 7.19793 1.98959C7.96876 1.21876 8.90279 0.833344 10 0.833344C11.0972 0.833344 12.0313 1.21876 12.8021 1.98959C13.5729 2.76043 13.9583 3.69445 13.9583 4.79168V6.79168H15.4167C15.7639 6.79168 16.059 6.9132 16.3021 7.15626C16.5451 7.39932 16.6667 7.69445 16.6667 8.04168V17.0833C16.6667 17.4306 16.5451 17.7257 16.3021 17.9688C16.059 18.2118 15.7639 18.3333 15.4167 18.3333H4.58334ZM10 14.1667C10.4445 14.1667 10.8229 14.0139 11.1354 13.7083C11.4479 13.4028 11.6042 13.0347 11.6042 12.6042C11.6042 12.1875 11.4479 11.809 11.1354 11.4688C10.8229 11.1285 10.4445 10.9583 10 10.9583C9.55557 10.9583 9.17709 11.1285 8.86459 11.4688C8.55209 11.809 8.39584 12.1875 8.39584 12.6042C8.39584 13.0347 8.55209 13.4028 8.86459 13.7083C9.17709 14.0139 9.55557 14.1667 10 14.1667ZM7.29168 6.79168H12.7083V4.79168C12.7083 4.04168 12.4445 3.40279 11.9167 2.87501C11.3889 2.34723 10.75 2.08334 10 2.08334C9.25001 2.08334 8.61112 2.34723 8.08334 2.87501C7.55557 3.40279 7.29168 4.04168 7.29168 4.79168V6.79168Z" fill="currentColor"/>
</svg>
