<svg width="20" height="20" viewBox="0 0 20 20" fill="currentColor" xmlns="http://www.w3.org/2000/svg">
<path d="M9.37502 14.1667H5.83335C4.6528 14.1667 3.66321 13.7674 2.8646 12.9688C2.06599 12.1701 1.66669 11.1806 1.66669 10C1.66669 8.81945 2.06599 7.82987 2.8646 7.03126C3.66321 6.23265 4.6528 5.83334 5.83335 5.83334H9.37502V7.08334H5.83335C5.00002 7.08334 4.30558 7.36112 3.75002 7.91668C3.19446 8.47223 2.91669 9.16668 2.91669 10C2.91669 10.8333 3.19446 11.5278 3.75002 12.0833C4.30558 12.6389 5.00002 12.9167 5.83335 12.9167H9.37502V14.1667ZM6.77085 10.625V9.37501H13.2292V10.625H6.77085ZM10.625 14.1667V12.9167H14.1667C15 12.9167 15.6945 12.6389 16.25 12.0833C16.8056 11.5278 17.0834 10.8333 17.0834 10C17.0834 9.16668 16.8056 8.47223 16.25 7.91668C15.6945 7.36112 15 7.08334 14.1667 7.08334H10.625V5.83334H14.1667C15.3472 5.83334 16.3368 6.23265 17.1354 7.03126C17.934 7.82987 18.3334 8.81945 18.3334 10C18.3334 11.1806 17.934 12.1701 17.1354 12.9688C16.3368 13.7674 15.3472 14.1667 14.1667 14.1667H10.625Z" fill="currentColor"/>
</svg>
