<svg width="20" height="20" viewBox="0 0 20 20" fill="currentColor" xmlns="http://www.w3.org/2000/svg">
<mask id="mask0_1267_663" style="mask-type:alpha" maskUnits="userSpaceOnUse" x="0" y="0" width="20" height="20">
<rect width="20" height="20" fill="#D9D9D9"/>
</mask>
<g mask="url(#mask0_1267_663)">
<path d="M9.25002 15.8334H10.7084V14.7917C11.4028 14.6667 12 14.3959 12.5 13.9792C13 13.5626 13.25 12.9445 13.25 12.1251C13.25 11.5417 13.0834 11.007 12.75 10.5209C12.4167 10.0348 11.75 9.61119 10.75 9.25008C9.91669 8.9723 9.3403 8.72925 9.02085 8.52092C8.70141 8.31258 8.54169 8.02786 8.54169 7.66675C8.54169 7.30564 8.6703 7.02091 8.92752 6.81258C9.18419 6.60425 9.55558 6.50008 10.0417 6.50008C10.4861 6.50008 10.8334 6.60786 11.0834 6.82341C11.3334 7.03841 11.5139 7.30564 11.625 7.62508L12.9584 7.08341C12.8056 6.5973 12.5245 6.17369 12.115 5.81258C11.705 5.45147 11.25 5.25008 10.75 5.20841V4.16675H9.29169V5.20841C8.59724 5.36119 8.05558 5.66675 7.66669 6.12508C7.2778 6.58341 7.08335 7.0973 7.08335 7.66675C7.08335 8.31953 7.27446 8.8473 7.65669 9.25008C8.03835 9.65286 8.63891 10.0001 9.45835 10.2917C10.3334 10.6112 10.9411 10.8959 11.2817 11.1459C11.6217 11.3959 11.7917 11.7223 11.7917 12.1251C11.7917 12.5834 11.6284 12.9201 11.3017 13.1351C10.9756 13.3506 10.5834 13.4584 10.125 13.4584C9.66669 13.4584 9.26058 13.3159 8.90669 13.0309C8.55224 12.7465 8.29169 12.3195 8.12502 11.7501L6.75002 12.2917C6.94447 12.9584 7.24669 13.4967 7.65669 13.9067C8.06613 14.3162 8.59724 14.5973 9.25002 14.7501V15.8334ZM10 18.3334C8.84724 18.3334 7.76391 18.1145 6.75002 17.6767C5.73613 17.2395 4.85419 16.6459 4.10419 15.8959C3.35419 15.1459 2.76058 14.264 2.32335 13.2501C1.88558 12.2362 1.66669 11.1529 1.66669 10.0001C1.66669 8.8473 1.88558 7.76397 2.32335 6.75008C2.76058 5.73619 3.35419 4.85425 4.10419 4.10425C4.85419 3.35425 5.73613 2.76036 6.75002 2.32258C7.76391 1.88536 8.84724 1.66675 10 1.66675C11.1528 1.66675 12.2361 1.88536 13.25 2.32258C14.2639 2.76036 15.1459 3.35425 15.8959 4.10425C16.6459 4.85425 17.2395 5.73619 17.6767 6.75008C18.1145 7.76397 18.3334 8.8473 18.3334 10.0001C18.3334 11.1529 18.1145 12.2362 17.6767 13.2501C17.2395 14.264 16.6459 15.1459 15.8959 15.8959C15.1459 16.6459 14.2639 17.2395 13.25 17.6767C12.2361 18.1145 11.1528 18.3334 10 18.3334Z" fill="#383838"/>
</g>
</svg>
