<svg width="20" height="20" viewBox="0 0 20 20" fill="currentColor" xmlns="http://www.w3.org/2000/svg">
<path d="M15.2083 10.625V9.37501H18.3333V10.625H15.2083ZM16.25 16.6667L13.7292 14.7917L14.4792 13.7917L17 15.6667L16.25 16.6667ZM14.5417 6.18751L13.7917 5.18751L16.25 3.33334L17 4.33334L14.5417 6.18751ZM4.37501 15.8333V12.5H2.91667C2.56945 12.5 2.27431 12.3785 2.03126 12.1354C1.7882 11.8924 1.66667 11.5972 1.66667 11.25V8.75001C1.66667 8.40279 1.7882 8.10765 2.03126 7.86459C2.27431 7.62154 2.56945 7.50001 2.91667 7.50001H6.66667L10.8333 5.00001V15L6.66667 12.5H5.625V15.8333H4.37501ZM11.6667 12.7917V7.20834C12.0417 7.54168 12.3438 7.94793 12.5729 8.42709C12.8021 8.90626 12.9167 9.43057 12.9167 10C12.9167 10.5695 12.8021 11.0938 12.5729 11.5729C12.3438 12.0521 12.0417 12.4583 11.6667 12.7917Z" fill="currentColor"/>
</svg>
