<svg width="20" height="20" viewBox="0 0 20 20" fill="none" xmlns="http://www.w3.org/2000/svg">
<g clip-path="url(#clip0_7710_63719)">
<path d="M10 18.09C14.4183 18.09 18 14.5083 18 10.09C18 5.67175 14.4183 2.09003 10 2.09003C5.58172 2.09003 2 5.67175 2 10.09C2 14.5083 5.58172 18.09 10 18.09Z" fill="#C8C8C8"/>
<path d="M11.9999 12.84C11.8099 12.84 11.6199 12.77 11.4699 12.62L7.46994 8.62003C7.17994 8.33003 7.17994 7.85003 7.46994 7.56003C7.75994 7.27003 8.23994 7.27003 8.52994 7.56003L12.5299 11.56C12.8199 11.85 12.8199 12.33 12.5299 12.62C12.3799 12.77 12.1899 12.84 11.9999 12.84Z" fill="white"/>
<path d="M7.99994 12.84C7.80994 12.84 7.61994 12.77 7.46994 12.62C7.17994 12.33 7.17994 11.85 7.46994 11.56L11.4699 7.56003C11.7599 7.27003 12.2399 7.27003 12.5299 7.56003C12.8199 7.85003 12.8199 8.33003 12.5299 8.62003L8.52994 12.62C8.37994 12.77 8.18994 12.84 7.99994 12.84Z" fill="white"/>
</g>
<defs>
<clipPath id="clip0_7710_63719">
<rect width="20" height="20" fill="white"/>
</clipPath>
</defs>
</svg>
