<svg width="20" height="20" viewBox="0 0 20 20" fill="currentColor" xmlns="http://www.w3.org/2000/svg">
<g clip-path="url(#clip0_546_4853)">
<path d="M5.32864 8.95254L11.0474 14.6678L15.522 9.69771L10.3023 4.47803L5.32864 8.95254Z" fill="currentColor"/>
<path d="M10.348 17.9473L2.05273 9.65202C1.96134 9.56063 1.99649 9.40246 2.12303 9.36028L5.33217 8.95255L11.0475 14.6678L10.6397 17.877C10.5975 18 10.4394 18.0387 10.348 17.9473V17.9473Z" fill="currentColor"/>
<path d="M2.22496 17.775C2.36556 17.9156 2.59052 17.9227 2.73814 17.7926L6.30932 14.6678C6.38665 14.6011 6.39016 14.4815 6.31635 14.4112L5.58876 13.6837C5.51846 13.6134 5.39895 13.6169 5.33217 13.6907L2.20739 17.2619C2.07733 17.4095 2.08436 17.6344 2.22496 17.775Z" fill="currentColor"/>
<path d="M14.8998 5.10018L17.8981 8.09842C18.0703 8.27066 18.0176 8.56591 17.7961 8.66784C17.7961 8.66784 16.3937 9.5747 15.5255 9.70124L10.3023 4.47804C10.4253 3.60985 11.3357 2.20739 11.3357 2.20739C11.4376 1.98243 11.7294 1.92971 11.9051 2.10545L14.9033 5.1037" fill="currentColor"/>
</g>
<defs>
<clipPath id="clip0_546_4853">
<rect width="16" height="16" fill="currentColor" transform="translate(2 2)"/>
</clipPath>
</defs>
</svg>
