<svg width="20" height="20" viewBox="0 0 20 20" fill="currentColor" xmlns="http://www.w3.org/2000/svg">
<path d="M0.791668 16.6667V14.7083C0.791668 14.2222 0.916668 13.7812 1.16667 13.3854C1.41667 12.9896 1.76389 12.6944 2.20833 12.5C3.22222 12.0555 4.13542 11.7361 4.94792 11.5417C5.76042 11.3472 6.59722 11.25 7.45833 11.25C8.31945 11.25 9.15278 11.3472 9.95833 11.5417C10.7639 11.7361 11.6736 12.0555 12.6875 12.5C13.1319 12.6944 13.4826 12.9896 13.7396 13.3854C13.9965 13.7812 14.125 14.2222 14.125 14.7083V16.6667H0.791668ZM15.375 16.6667V14.7083C15.375 13.8333 15.1528 13.1146 14.7083 12.5521C14.2639 11.9896 13.6806 11.5347 12.9583 11.1875C13.9167 11.2986 14.8194 11.4618 15.6667 11.6771C16.5139 11.8924 17.2014 12.1389 17.7292 12.4167C18.1875 12.6805 18.5486 13.0069 18.8125 13.3958C19.0764 13.7847 19.2083 14.2222 19.2083 14.7083V16.6667H15.375ZM7.45833 9.97916C6.54167 9.97916 5.79167 9.68749 5.20833 9.10416C4.625 8.52082 4.33333 7.77082 4.33333 6.85416C4.33333 5.93749 4.625 5.18749 5.20833 4.60416C5.79167 4.02082 6.54167 3.72916 7.45833 3.72916C8.375 3.72916 9.125 4.02082 9.70833 4.60416C10.2917 5.18749 10.5833 5.93749 10.5833 6.85416C10.5833 7.77082 10.2917 8.52082 9.70833 9.10416C9.125 9.68749 8.375 9.97916 7.45833 9.97916ZM14.9583 6.85416C14.9583 7.77082 14.6667 8.52082 14.0833 9.10416C13.5 9.68749 12.75 9.97916 11.8333 9.97916C11.6806 9.97916 11.5104 9.96874 11.3229 9.94791C11.1354 9.92707 10.9653 9.88888 10.8125 9.83332C11.1458 9.4861 11.3993 9.05902 11.5729 8.55207C11.7465 8.04513 11.8333 7.47916 11.8333 6.85416C11.8333 6.22916 11.7465 5.67707 11.5729 5.19791C11.3993 4.71874 11.1458 4.27777 10.8125 3.87499C10.9653 3.83332 11.1354 3.7986 11.3229 3.77082C11.5104 3.74305 11.6806 3.72916 11.8333 3.72916C12.75 3.72916 13.5 4.02082 14.0833 4.60416C14.6667 5.18749 14.9583 5.93749 14.9583 6.85416Z" fill="currentColor"/>
</svg>
