<svg width="21" height="20" viewBox="0 0 21 20" fill="currentColor" xmlns="http://www.w3.org/2000/svg">
<mask id="mask0_3165_2755" style="mask-type:alpha" maskUnits="userSpaceOnUse" x="0" y="0" width="21" height="20">
<rect x="0.5" width="20" height="20" fill="#D9D9D9"/>
</mask>
<g mask="url(#mask0_3165_2755)">
<path d="M3 9.16667V2.5H9.66667V9.16667H3ZM4.66667 7.5H8V4.16667H4.66667V7.5ZM3 17.5V10.8333H9.66667V17.5H3ZM4.66667 15.8333H8V12.5H4.66667V15.8333ZM11.3333 9.16667V2.5H18V9.16667H11.3333ZM13 7.5H16.3333V4.16667H13V7.5ZM16.3333 17.5V15.8333H18V17.5H16.3333ZM11.3333 12.5V10.8333H13V12.5H11.3333ZM13 14.1667V12.5H14.6667V14.1667H13ZM11.3333 15.8333V14.1667H13V15.8333H11.3333ZM13 17.5V15.8333H14.6667V17.5H13ZM14.6667 15.8333V14.1667H16.3333V15.8333H14.6667ZM14.6667 12.5V10.8333H16.3333V12.5H14.6667ZM16.3333 14.1667V12.5H18V14.1667H16.3333Z" fill="#383838"/>
</g>
</svg>
