<svg width="20" height="20" viewBox="0 0 20 20" fill="currentColor" xmlns="http://www.w3.org/2000/svg">
<path d="M13.3559 11.7555L12.0261 10.2731L10.4615 11.7087L11.9166 13.2848C11.369 13.6593 11.0404 13.7997 9.91395 13.8309C7.59844 13.8309 6.11213 12.13 6.11213 9.97659C6.11213 7.80754 7.59844 6.10663 9.91395 6.10663C12.2451 6.10663 13.7471 7.80754 13.7471 9.97659C13.7001 10.8349 13.6688 11.1469 13.3559 11.7555ZM4 9.97659C4 13.2536 6.40939 15.9376 9.91395 15.9376C11.6193 15.9376 12.3703 15.5787 13.3872 14.814L14.4511 16L16 14.5644L14.8422 13.3316C15.4681 12.2861 15.781 11.3654 15.8279 9.97659C15.8279 6.684 13.4185 4 9.91395 4C6.40939 4 4 6.684 4 9.97659Z" fill="currentColor"/>
</svg>
