<svg width="20" height="20" viewBox="0 0 20 20" fill="currentColor" xmlns="http://www.w3.org/2000/svg">
<path d="M6.08914 17.3933C5.70271 17.6875 5.16612 17.3136 5.30819 16.8492L6.6865 12.3437C6.74933 12.1384 6.67398 11.9158 6.49931 11.7908L2.9339 9.23997C2.53847 8.95705 2.73861 8.33332 3.22484 8.33332H7.62798C7.84879 8.33332 8.04345 8.18849 8.1069 7.977L9.52108 3.26303C9.66361 2.78793 10.3364 2.78793 10.4789 3.26303L11.8931 7.977C11.9565 8.18849 12.1512 8.33332 12.372 8.33332H16.7752C17.2614 8.33332 17.4615 8.95705 17.0661 9.23997L13.5007 11.7908C13.326 11.9158 13.2507 12.1384 13.3135 12.3437L14.6918 16.8492C14.8339 17.3136 14.2973 17.6875 13.9109 17.3933L10.3028 14.6471C10.1239 14.511 9.87609 14.511 9.69717 14.6471L6.08914 17.3933Z" fill="currentColor"/>
</svg>
