<svg width="20" height="20" viewBox="0 0 20 20" fill="currentColor" xmlns="http://www.w3.org/2000/svg">
<path d="M9.99998 13.4792C9.81942 13.4792 9.67012 13.4201 9.55206 13.3021C9.43401 13.184 9.37498 13.0347 9.37498 12.8542V5.75001L7.31248 7.81251C7.18748 7.93751 7.04165 7.99654 6.87498 7.98959C6.70831 7.98265 6.56248 7.91668 6.43748 7.79168C6.31248 7.66668 6.24998 7.51737 6.24998 7.34376C6.24998 7.17015 6.31248 7.02084 6.43748 6.89584L9.56248 3.77084C9.63192 3.7014 9.70137 3.65279 9.77081 3.62501C9.84026 3.59723 9.91665 3.58334 9.99998 3.58334C10.0833 3.58334 10.1597 3.59723 10.2291 3.62501C10.2986 3.65279 10.368 3.7014 10.4375 3.77084L13.5833 6.91668C13.7083 7.04168 13.7708 7.18751 13.7708 7.35418C13.7708 7.52084 13.7083 7.66668 13.5833 7.79168C13.4583 7.91668 13.309 7.97918 13.1354 7.97918C12.9618 7.97918 12.8125 7.91668 12.6875 7.79168L10.625 5.75001V12.8542C10.625 13.0347 10.566 13.184 10.4479 13.3021C10.3298 13.4201 10.1805 13.4792 9.99998 13.4792V13.4792ZM4.58331 16.6667C4.24998 16.6667 3.95831 16.5417 3.70831 16.2917C3.45831 16.0417 3.33331 15.75 3.33331 15.4167V13.0625C3.33331 12.882 3.39234 12.7326 3.5104 12.6146C3.62845 12.4965 3.77776 12.4375 3.95831 12.4375C4.13887 12.4375 4.28817 12.4965 4.40623 12.6146C4.52429 12.7326 4.58331 12.882 4.58331 13.0625V15.4167H15.4166V13.0625C15.4166 12.882 15.4757 12.7326 15.5937 12.6146C15.7118 12.4965 15.8611 12.4375 16.0416 12.4375C16.2222 12.4375 16.3715 12.4965 16.4896 12.6146C16.6076 12.7326 16.6666 12.882 16.6666 13.0625V15.4167C16.6666 15.75 16.5416 16.0417 16.2916 16.2917C16.0416 16.5417 15.75 16.6667 15.4166 16.6667H4.58331Z" fill="currentColor"/>
</svg>
