<svg width="24" height="24" viewBox="0 0 24 24" fill="currentColor" xmlns="http://www.w3.org/2000/svg">
<path d="M6.65 17.075H17.375C17.5417 17.075 17.6583 17.0083 17.725 16.875C17.7917 16.7417 17.775 16.6083 17.675 16.475L14.75 12.575C14.6667 12.475 14.5667 12.425 14.45 12.425C14.3333 12.425 14.2333 12.475 14.15 12.575L11.15 16.45L9.125 13.675C9.04167 13.575 8.94167 13.525 8.825 13.525C8.70833 13.525 8.60833 13.575 8.525 13.675L6.375 16.475C6.29167 16.6083 6.27917 16.7417 6.3375 16.875C6.39583 17.0083 6.5 17.075 6.65 17.075V17.075ZM4.5 21C4.1 21 3.75 20.85 3.45 20.55C3.15 20.25 3 19.9 3 19.5V4.5C3 4.1 3.15 3.75 3.45 3.45C3.75 3.15 4.1 3 4.5 3H19.5C19.9 3 20.25 3.15 20.55 3.45C20.85 3.75 21 4.1 21 4.5V19.5C21 19.9 20.85 20.25 20.55 20.55C20.25 20.85 19.9 21 19.5 21H4.5Z" fill="currentColor"/>
</svg>
