<svg width="36" height="36" viewBox="0 0 36 36" fill="currentColor" xmlns="http://www.w3.org/2000/svg">
<path d="M14.3625 22.5528C14.3625 23.342 15.2339 23.8202 15.8996 23.3963L23.0502 18.8435C23.6674 18.4505 23.6674 17.5495 23.0502 17.1565L15.8996 12.6037C15.2339 12.1798 14.3625 12.658 14.3625 13.4472V22.5528ZM18 33C15.95 33 14.0125 32.6062 12.1875 31.8187C10.3625 31.0312 8.76875 29.9562 7.40625 28.5937C6.04375 27.2312 4.96875 25.6375 4.18125 23.8125C3.39375 21.9875 3 20.05 3 18C3 15.925 3.39375 13.975 4.18125 12.15C4.96875 10.325 6.04375 8.7375 7.40625 7.3875C8.76875 6.0375 10.3625 4.96875 12.1875 4.18125C14.0125 3.39375 15.95 3 18 3C20.075 3 22.025 3.39375 23.85 4.18125C25.675 4.96875 27.2625 6.0375 28.6125 7.3875C29.9625 8.7375 31.0312 10.325 31.8187 12.15C32.6062 13.975 33 15.925 33 18C33 20.05 32.6062 21.9875 31.8187 23.8125C31.0312 25.6375 29.9625 27.2312 28.6125 28.5937C27.2625 29.9562 25.675 31.0312 23.85 31.8187C22.025 32.6062 20.075 33 18 33Z" fill="currentColor"/>
</svg>
