<svg width="36" height="36" viewBox="0 0 36 36" fill="currentColor" xmlns="http://www.w3.org/2000/svg">
<path d="M9.97248 32.06C9.58604 32.3541 9.04946 31.9803 9.19152 31.5159L12.1198 21.9437C12.1827 21.7384 12.1073 21.5158 11.9326 21.3908L4.26724 15.9066C3.8718 15.6237 4.07195 15 4.55817 15H14.028C14.2488 15 14.4435 14.8552 14.5069 14.6437L17.5211 4.59638C17.6636 4.12127 18.3364 4.12128 18.4789 4.59638L21.4931 14.6437C21.5565 14.8552 21.7512 15 21.972 15H31.4418C31.9281 15 32.1282 15.6237 31.7328 15.9066L24.0674 21.3908C23.8927 21.5158 23.8173 21.7384 23.8802 21.9437L26.8085 31.5159C26.9505 31.9803 26.414 32.3541 26.0275 32.06L18.3028 26.1805C18.1239 26.0443 17.8761 26.0443 17.6972 26.1805L9.97248 32.06Z" fill="currentColor"/>
</svg>
