<svg width="40" height="40" viewBox="0 0 40 40" fill="currentColor" xmlns="http://www.w3.org/2000/svg">
<circle cx="20" cy="20" r="14" stroke="#2898FF" stroke-width="2"/>
<path fill-rule="evenodd" clip-rule="evenodd" d="M20.8 12.8C20.8 12.3582 20.4418 12 20 12C19.5582 12 19.2 12.3582 19.2 12.8L19.2 19.2L12.8 19.2C12.3582 19.2 12 19.5582 12 20C12 20.4418 12.3582 20.8 12.8 20.8H19.2L19.2 27.2C19.2 27.6418 19.5582 28 20 28C20.4418 28 20.8 27.6418 20.8 27.2V20.8H27.2C27.6418 20.8 28 20.4418 28 20C28 19.5582 27.6418 19.2 27.2 19.2L20.8 19.2V12.8Z" fill="currentColor"/>
</svg>
