<svg width="40" height="40" viewBox="0 0 40 40" fill="currentColor" xmlns="http://www.w3.org/2000/svg">
<path d="M27 8V12H11V8H27ZM27 6H11C9.9 6 9 6.9 9 8V12C9 13.1 9.9 14 11 14H27C28.1 14 29 13.1 29 12V8C29 6.9 28.1 6 27 6Z" fill="currentColor"/>
<path d="M27 28V32H11V28H27ZM27 26H11C9.9 26 9 26.9 9 28V32C9 33.1 9.9 34 11 34H27C28.1 34 29 33.1 29 32V28C29 26.9 28.1 26 27 26Z" fill="currentColor"/>
<path d="M33 17V23H17V17H33ZM33 15H17C15.9 15 15 15.9 15 17V23C15 24.1 15.9 25 17 25H33C34.1 25 35 24.1 35 23V17C35 15.9 34.1 15 33 15Z" fill="currentColor"/>
<path d="M8.81999 16H7.17999V24H8.81999V16Z" fill="currentColor"/>
<path d="M10.18 18.75C9.97 18.75 9.76 18.68 9.6 18.53L8 17.06L6.4 18.53C6.08 18.82 5.56 18.82 5.24 18.53C4.92 18.24 4.92 17.76 5.24 17.47L8 14.94L10.76 17.47C11.08 17.76 11.08 18.24 10.76 18.53C10.6 18.68 10.39 18.75 10.18 18.75Z" fill="currentColor"/>
<path d="M8 25.06L5.24 22.53C4.92 22.24 4.92 21.76 5.24 21.47C5.56 21.18 6.08 21.18 6.4 21.47L8 22.94L9.6 21.47C9.92 21.18 10.44 21.18 10.76 21.47C11.08 21.76 11.08 22.24 10.76 22.53L8 25.06Z" fill="currentColor"/>
</svg>
