<svg width="72" height="72" viewBox="0 0 72 72" fill="currentColor" xmlns="http://www.w3.org/2000/svg">
<path fill-rule="evenodd" clip-rule="evenodd" d="M49.7 24.0646L32.6021 41.1625L22.6333 31.1333L25.3521 28.4146L32.6021 35.6646L46.9208 21.3458L49.7 24.0646ZM13.892 39.5055C12.6307 36.5727 12 33.4598 12 30.1667C12 26.8236 12.6344 23.6819 13.9031 20.7417C15.1719 17.8014 16.9038 15.2438 19.099 13.0688C21.2941 10.8938 23.8618 9.17187 26.8021 7.90312C29.7424 6.63437 32.8639 6 36.1667 6C39.5097 6 42.6514 6.63437 45.5917 7.90312C48.5319 9.17187 51.0896 10.8938 53.2646 13.0688C55.4396 15.2438 57.1615 17.8014 58.4302 20.7417C59.699 23.6819 60.3333 26.8236 60.3333 30.1667C60.3333 33.4694 59.699 36.591 58.4302 39.5312C58.3781 39.6519 58.3253 39.7719 58.2717 39.8913C53.7992 51.5832 42.4861 61.1636 36.166 66.167C29.765 61.633 18.2425 51.5506 13.892 39.5055Z" fill="currentColor"/>
</svg>
