<svg width="24" height="24" viewBox="0 0 24 24" fill="none" xmlns="http://www.w3.org/2000/svg">
<path d="M19.5901 3.16406H4.58512C3.80582 3.16406 3.16821 3.80578 3.16821 4.5901V19.6847C3.16821 20.469 3.80582 21.1108 4.58512 21.1108H19.583C20.3623 21.1108 20.9999 20.469 20.9999 19.6847V4.5901C20.9999 3.80578 20.3623 3.16406 19.583 3.16406H19.5901ZM12.0239 15.3424C11.9318 15.3852 11.8326 15.4066 11.7334 15.4066C11.4642 15.4066 11.2021 15.2497 11.0887 14.9859L10.3307 13.2675C10.3307 13.2675 10.3236 13.2675 10.3165 13.2675H7.48268C7.48268 13.2675 7.4756 13.2675 7.46851 13.2675L6.71047 14.9859C6.55461 15.3424 6.13662 15.5064 5.77531 15.3496C5.42109 15.1927 5.25814 14.772 5.414 14.4084L7.60312 9.46002C8.01402 8.5331 8.64454 8.43327 8.89958 8.43327C9.15463 8.43327 9.78515 8.5331 10.196 9.46002L12.3852 14.4084C12.541 14.7649 12.3852 15.1927 12.0239 15.3496V15.3424ZM15.2756 15.4066H14.213C13.4337 15.4066 12.7961 14.7649 12.7961 13.9806V9.70245C12.7961 8.91813 13.4337 8.27641 14.213 8.27641H15.2756C17.231 8.27641 18.8179 9.87357 18.8179 11.8415C18.8179 13.8094 17.231 15.4066 15.2756 15.4066Z" fill="white"/>
<path d="M15.2758 9.70215H14.2131V13.9803H15.2758C16.4448 13.9803 17.4012 13.0177 17.4012 11.8412C17.4012 10.6647 16.4448 9.70215 15.2758 9.70215Z" fill="white"/>
<path d="M8.09766 11.8404H9.69876L8.89821 10.0293L8.09766 11.8404Z" fill="white"/>
<path d="M10.1958 9.45351C9.78488 8.52658 9.15436 8.42676 8.89932 8.42676C8.64428 8.42676 8.01376 8.52658 7.60285 9.45351L5.41374 14.4019C5.25788 14.7584 5.41374 15.1862 5.77505 15.343C6.12928 15.507 6.55435 15.343 6.71021 14.9794L7.46825 13.261C7.46825 13.261 7.47533 13.261 7.48242 13.261H10.3162C10.3162 13.261 10.3233 13.261 10.3304 13.261L11.0884 14.9794C11.2089 15.2432 11.4639 15.4001 11.7331 15.4001C11.8323 15.4001 11.9244 15.3787 12.0236 15.3359C12.3778 15.179 12.5408 14.7584 12.3849 14.3947L10.1958 9.44638V9.45351ZM8.09877 11.8421L8.89932 10.0311L9.69987 11.8421H8.09877Z" fill="#FCC953"/>
<path d="M15.274 8.27734H14.2113C13.432 8.27734 12.7944 8.91906 12.7944 9.70338V13.9815C12.7944 14.7658 13.432 15.4075 14.2113 15.4075H15.274C17.2293 15.4075 18.8163 13.8104 18.8163 11.8424C18.8163 9.87451 17.2293 8.27734 15.274 8.27734ZM15.274 13.9815H14.2113V9.70338H15.274C16.443 9.70338 17.3994 10.666 17.3994 11.8424C17.3994 13.0189 16.443 13.9815 15.274 13.9815Z" fill="#FCC953"/>
</svg>
