<svg width="20" height="20" viewBox="0 0 20 20" fill="none" xmlns="http://www.w3.org/2000/svg">
<path d="M7.37496 14.5415C7.26385 14.4026 7.20482 14.2498 7.19788 14.0832C7.19093 13.9165 7.24996 13.7707 7.37496 13.6457L11.0416 9.97901L7.35413 6.29151C7.24302 6.1804 7.19093 6.03109 7.19788 5.84359C7.20482 5.65609 7.26385 5.50679 7.37496 5.39568C7.51385 5.25679 7.66316 5.19082 7.82288 5.19776C7.9826 5.20471 8.12496 5.27068 8.24996 5.39568L12.3958 9.54151C12.4652 9.61096 12.5139 9.6804 12.5416 9.74984C12.5694 9.81929 12.5833 9.89568 12.5833 9.97901C12.5833 10.0623 12.5694 10.1387 12.5416 10.2082C12.5139 10.2776 12.4652 10.3471 12.3958 10.4165L8.2708 14.5415C8.1458 14.6665 7.99996 14.7255 7.83329 14.7186C7.66663 14.7116 7.51385 14.6526 7.37496 14.5415Z" fill="#2898FF"/>
</svg>
