<svg width="64" height="64" viewBox="0 0 64 64" fill="currentColor" xmlns="http://www.w3.org/2000/svg">
<circle cx="32" cy="32" r="32" fill="#FCC953"/>
<mask id="mask0_1727_61403" style="mask-type:alpha" maskUnits="userSpaceOnUse" x="16" y="16" width="32" height="32">
<rect x="16" y="16" width="32" height="32" fill="#D9D9D9"/>
</mask>
<g mask="url(#mask0_1727_61403)">
<path d="M35 35.6616C35.3778 35.6616 35.7056 35.5281 35.9833 35.2611C36.2611 34.9941 36.4 34.679 36.4 34.3159C36.4 33.9528 36.2611 33.6377 35.9833 33.3707C35.7056 33.1037 35.3778 32.9701 35 32.9701C34.6222 32.9701 34.2944 33.1037 34.0167 33.3707C33.7389 33.6377 33.6 33.9528 33.6 34.3159C33.6 34.679 33.7389 34.9941 34.0167 35.2611C34.2944 35.5281 34.6222 35.6616 35 35.6616ZM34 31.5603H36C36 30.9408 36.0667 30.4869 36.2 30.1985C36.3333 29.9102 36.6444 29.531 37.1333 29.0611C37.8 28.4202 38.2444 27.9022 38.4667 27.5071C38.6889 27.1119 38.8 26.6473 38.8 26.1132C38.8 25.152 38.45 24.367 37.75 23.7582C37.05 23.1494 36.1333 22.845 35 22.845C34.0889 22.845 33.2944 23.0906 32.6167 23.582C31.9389 24.0733 31.4667 24.7248 31.2 25.5365L33 26.2414C33.2 25.7074 33.4722 25.3069 33.8167 25.0398C34.1611 24.7728 34.5556 24.6393 35 24.6393C35.5333 24.6393 35.9667 24.7835 36.3 25.0719C36.6333 25.3603 36.8 25.7501 36.8 26.2414C36.8 26.5405 36.7111 26.8235 36.5333 27.0905C36.3556 27.3575 36.0444 27.694 35.6 28.0998C34.8667 28.7193 34.4167 29.2053 34.25 29.5577C34.0833 29.9102 34 30.5777 34 31.5603ZM27 39.5066C26.2667 39.5066 25.6389 39.2556 25.1167 38.7537C24.5944 38.2517 24.3333 37.6482 24.3333 36.9433V21.5633C24.3333 20.8584 24.5944 20.255 25.1167 19.753C25.6389 19.251 26.2667 19 27 19H43C43.7333 19 44.3611 19.251 44.8833 19.753C45.4056 20.255 45.6667 20.8584 45.6667 21.5633V36.9433C45.6667 37.6482 45.4056 38.2517 44.8833 38.7537C44.3611 39.2556 43.7333 39.5066 43 39.5066H27ZM21.6667 44.6333C20.9333 44.6333 20.3056 44.3823 19.7833 43.8803C19.2611 43.3783 19 42.7749 19 42.07V24.1267H21.6667V42.07H40.3333V44.6333H21.6667Z" fill="white"/>
</g>
</svg>
