<svg width="32" height="32" viewBox="0 0 32 32" fill="currentColor" xmlns="http://www.w3.org/2000/svg">
<g clip-path="url(#clip0_1445_17524)">
<path d="M2 11.2V20.8C2 22.12 3.05 23.2 4.33333 23.2H6.66667V8.80005H4.33333C3.05 8.80005 2 9.88005 2 11.2Z" fill="#A8A8A8"/>
<path d="M19.4997 12.616V5.8C19.4997 4.804 18.718 4 17.7497 4C16.8397 4 16.093 4.72 16.0113 5.644L7.83301 8.8V23.2L16.0113 26.356C16.093 27.28 16.828 28 17.7497 28C18.718 28 19.4997 27.196 19.4997 26.2V19.384C20.853 18.892 21.833 17.572 21.833 16C21.833 14.428 20.853 13.12 19.4997 12.616Z" fill="#A8A8A8"/>
<path d="M24.1667 11.1999C24.47 11.1999 24.7617 11.0799 24.995 10.8519L27.3284 8.45194C27.7834 7.98394 27.7834 7.22794 27.3284 6.75994C26.8734 6.29194 26.1384 6.29194 25.6834 6.75994L23.35 9.15994C22.895 9.62794 22.895 10.3839 23.35 10.8519C23.5834 11.0919 23.875 11.1999 24.1784 11.1999H24.1667Z" fill="#A8A8A8"/>
<path d="M24.995 21.1481C24.54 20.6801 23.805 20.6801 23.35 21.1481C22.895 21.6161 22.895 22.3721 23.35 22.8401L25.6834 25.2401C25.9167 25.4801 26.2084 25.5881 26.5117 25.5881C26.815 25.5881 27.1067 25.4681 27.34 25.2401C27.795 24.7721 27.795 24.0161 27.34 23.5481L25.0067 21.1481H24.995Z" fill="#A8A8A8"/>
<path d="M28.8337 14.8H25.3337C24.692 14.8 24.167 15.34 24.167 16C24.167 16.66 24.692 17.2 25.3337 17.2H28.8337C29.4753 17.2 30.0003 16.66 30.0003 16C30.0003 15.34 29.4753 14.8 28.8337 14.8Z" fill="#A8A8A8"/>
</g>
<defs>
<clipPath id="clip0_1445_17524">
<rect width="28" height="24" fill="white" transform="translate(2 4)"/>
</clipPath>
</defs>
</svg>
