<svg width="215" height="45" viewBox="0 0 215 45" fill="currentColor" xmlns="http://www.w3.org/2000/svg">
<g filter="url(#filter0_d_3005_21069)">
<path opacity="0.9" fill-rule="evenodd" clip-rule="evenodd" d="M6 4C4.89543 4 4 4.89543 4 6V33C4 34.1046 4.89543 35 6 35H187L191 41L195 35H209C210.105 35 211 34.1046 211 33V6C211 4.89543 210.105 4 209 4H6Z" fill="white"/>
<path d="M23.464 14.28V20.556H24.76V17.976H26.236V16.896H24.76V14.28H23.464ZM16.372 19.68L16.9 20.724C20.02 19.836 21.844 17.832 21.844 15.024H16.852V16.08H20.44C20.224 17.676 18.784 19.008 16.372 19.68ZM17.8 22.824C17.8 24.144 19.216 24.972 21.34 24.972C23.476 24.972 24.88 24.144 24.88 22.824C24.88 21.516 23.476 20.688 21.34 20.688C19.216 20.688 17.8 21.516 17.8 22.824ZM19.072 22.824C19.072 22.104 19.948 21.708 21.34 21.708C22.744 21.708 23.608 22.104 23.608 22.824C23.608 23.532 22.744 23.94 21.34 23.94C19.948 23.94 19.072 23.532 19.072 22.824ZM30.3523 15.024C28.6723 15.024 27.4363 16.104 27.4363 17.604C27.4363 19.128 28.6723 20.184 30.3523 20.184C32.0323 20.184 33.2563 19.128 33.2563 17.604C33.2563 16.104 32.0323 15.024 30.3523 15.024ZM26.9563 21.684L27.1123 22.752C28.9963 22.752 31.5523 22.728 33.8923 22.272L33.7963 21.336C31.5163 21.672 28.8643 21.684 26.9563 21.684ZM28.7203 17.604C28.7203 16.704 29.4163 16.14 30.3523 16.14C31.2883 16.14 31.9843 16.704 31.9843 17.604C31.9843 18.516 31.2883 19.08 30.3523 19.08C29.4163 19.08 28.7203 18.516 28.7203 17.604ZM34.4323 24.996H35.7283V14.28H34.4323V24.996ZM37.3846 19.164V20.112H47.0566V19.164H37.3846ZM38.5006 21.684H44.5966V22.356H38.5246V24.852H46.1926V23.964H39.7966V23.208H45.8686V20.784H38.5006V21.684ZM38.5846 15.42H44.5726V16.08H38.6086V18.54H46.0366V17.628H39.8806V16.932H45.8566V14.532H38.5846V15.42ZM50.6505 19.176V20.232H60.2985V19.176H50.6505ZM51.8145 24.84H59.2545V23.796H53.0985V22.188H59.1465V21.144H51.8145V24.84ZM51.8505 18.288H59.2065V17.244H53.1465V15.636H59.1105V14.592H51.8505V18.288ZM62.1348 15.276V16.32H68.4588C68.4588 17.616 68.4588 19.128 68.0508 21.204L69.3468 21.348C69.7668 19.128 69.7668 17.64 69.7668 16.296V15.276H62.1348ZM61.1268 23.592H70.7868V22.548H65.9868V18.816H64.6788V22.548H61.1268V23.592ZM78.5927 17.988V19.044H80.1047V24.456H81.3167V14.496H80.1047V17.988H78.5927ZM74.2247 21.804L75.0167 22.776C76.0247 22.164 76.6967 21.072 77.0807 19.776C77.4407 20.952 78.0647 21.96 79.0127 22.536L79.7207 21.528C78.2927 20.616 77.7047 18.816 77.7047 17.088V15.252H76.4447V17.148C76.4447 18.972 75.7487 20.868 74.2247 21.804ZM82.2767 24.972H83.5247V14.28H82.2767V24.972ZM90.5209 15.768V16.812H92.4409V17.868H90.5209V18.912H92.4409V22.224H93.7489V14.304H92.4409V15.768H90.5209ZM84.8569 19.92L85.5409 20.928C86.7769 20.46 87.6289 19.524 88.0849 18.348C88.5289 19.452 89.3329 20.34 90.4729 20.796L91.1809 19.776C89.5609 19.152 88.7329 17.7 88.7329 16.188V14.892H87.4129V16.188C87.4129 17.796 86.5489 19.296 84.8569 19.92ZM86.7769 24.768H93.9769V23.712H88.0729V21.48H86.7769V24.768ZM103.253 14.28V24.972H104.489V14.28H103.253ZM95.4772 18.9C95.4772 21.276 96.3652 22.728 97.7572 22.728C99.0652 22.728 99.9412 21.468 100.049 19.368H101.105V24.456H102.317V14.496H101.105V18.312H100.037C99.9052 16.308 99.0412 15.096 97.7572 15.096C96.3652 15.096 95.4772 16.548 95.4772 18.9ZM96.6532 18.9C96.6532 17.232 97.0732 16.32 97.7572 16.32C98.4652 16.32 98.8852 17.232 98.8852 18.9C98.8852 20.58 98.4652 21.504 97.7572 21.504C97.0732 21.504 96.6532 20.58 96.6532 18.9ZM116.495 14.28V18.468H115.307V14.496H114.095V24.432H115.307V19.536H116.495V24.972H117.743V14.28H116.495ZM108.959 22.464H109.679C111.131 22.464 112.247 22.428 113.543 22.164L113.423 21.096C112.343 21.312 111.395 21.372 110.243 21.384V16.608H112.907V15.564H108.959V22.464ZM119.099 15.996V17.04H124.283V15.996H122.339V14.592H121.067V15.996H119.099ZM119.387 20.088C119.387 21.576 120.359 22.596 121.691 22.596C123.047 22.596 124.019 21.576 124.019 20.088C124.019 18.636 123.047 17.616 121.691 17.616C120.359 17.616 119.387 18.636 119.387 20.088ZM120.539 20.088C120.539 19.248 121.019 18.696 121.691 18.696C122.387 18.696 122.867 19.248 122.867 20.088C122.867 20.976 122.387 21.516 121.691 21.516C121.019 21.516 120.539 20.976 120.539 20.088ZM124.715 24.48H125.939V19.752H126.983V24.972H128.219V14.28H126.983V18.696H125.939V14.508H124.715V24.48ZM138.473 16.08V17.124H139.937V18.06H138.473V19.032C138.101 19.08 137.729 19.116 137.333 19.14V16.092H138.281V15.036H132.653V16.092H133.589V19.284H132.377L132.509 20.352C134.225 20.352 136.553 20.316 138.569 19.98L138.497 19.092H139.937V20.844H141.233V14.292H139.937V16.08H138.473ZM134.045 22.992C134.045 24.24 135.413 24.96 137.657 24.96C139.901 24.96 141.269 24.24 141.269 22.992C141.269 21.744 139.901 21.036 137.657 21.036C135.413 21.036 134.045 21.744 134.045 22.992ZM134.837 19.26V16.092H136.097V19.212C135.677 19.236 135.257 19.248 134.837 19.26ZM135.329 22.992C135.329 22.356 136.169 22.02 137.657 22.02C139.157 22.02 139.973 22.356 139.973 22.992C139.973 23.628 139.157 23.964 137.657 23.964C136.169 23.964 135.329 23.628 135.329 22.992ZM149.838 14.28V24.96H151.134V19.548H152.718V18.468H151.134V14.28H149.838ZM142.818 22.056L143.526 23.04C147.042 21.288 148.326 18.54 148.326 15.408H143.346V16.464H147.03C146.778 18.9 145.374 20.736 142.818 22.056ZM153.33 15.996V17.04H158.514V15.996H156.57V14.592H155.298V15.996H153.33ZM153.618 20.088C153.618 21.576 154.59 22.596 155.922 22.596C157.278 22.596 158.25 21.576 158.25 20.088C158.25 18.636 157.278 17.616 155.922 17.616C154.59 17.616 153.618 18.636 153.618 20.088ZM154.77 20.088C154.77 19.248 155.25 18.696 155.922 18.696C156.618 18.696 157.098 19.248 157.098 20.088C157.098 20.976 156.618 21.516 155.922 21.516C155.25 21.516 154.77 20.976 154.77 20.088ZM158.946 24.48H160.17V19.752H161.214V24.972H162.45V14.28H161.214V18.696H160.17V14.508H158.946V24.48ZM163.818 20.256V21.312H167.97V24.972H169.254V21.312H173.478V20.256H163.818ZM164.322 18.504L164.814 19.524C166.602 19.26 168.006 18.408 168.654 17.244C169.29 18.408 170.694 19.26 172.494 19.524L172.974 18.504C170.886 18.228 169.482 17.088 169.386 15.912H172.566V14.892H164.694V15.912H167.91C167.814 17.088 166.41 18.228 164.322 18.504ZM178.518 17.988V19.044H180.03V24.456H181.242V14.496H180.03V17.988H178.518ZM174.15 21.804L174.942 22.776C175.95 22.164 176.622 21.072 177.006 19.776C177.366 20.952 177.99 21.96 178.938 22.536L179.646 21.528C178.218 20.616 177.63 18.816 177.63 17.088V15.252H176.37V17.148C176.37 18.972 175.674 20.868 174.15 21.804ZM182.202 24.972H183.45V14.28H182.202V24.972ZM184.795 22.62V23.688H194.467V22.62H192.223V19.896C193.063 19.404 193.567 18.648 193.567 17.712C193.567 15.996 191.911 14.892 189.619 14.892C187.339 14.892 185.671 15.996 185.671 17.712C185.671 18.648 186.187 19.404 187.027 19.896V22.62H184.795ZM186.943 17.712C186.943 16.596 188.035 15.9 189.619 15.9C191.203 15.9 192.283 16.596 192.283 17.712C192.283 18.816 191.203 19.5 189.619 19.5C188.035 19.5 186.943 18.816 186.943 17.712ZM188.311 22.62V20.376C188.719 20.46 189.151 20.508 189.619 20.508C190.087 20.508 190.519 20.46 190.927 20.376V22.62H188.311ZM197.731 14.964H196.123L196.351 21.684H197.527L197.731 14.964ZM196.231 23.448C196.231 23.856 196.483 24.168 196.939 24.168C197.395 24.168 197.647 23.856 197.647 23.448C197.647 23.064 197.395 22.752 196.939 22.752C196.483 22.752 196.231 23.064 196.231 23.448Z" fill="#2898FF"/>
</g>
<defs>
<filter id="filter0_d_3005_21069" x="0" y="0" width="215" height="45" filterUnits="userSpaceOnUse" color-interpolation-filters="sRGB">
<feFlood flood-opacity="0" result="BackgroundImageFix"/>
<feColorMatrix in="SourceAlpha" type="matrix" values="0 0 0 0 0 0 0 0 0 0 0 0 0 0 0 0 0 0 127 0" result="hardAlpha"/>
<feOffset/>
<feGaussianBlur stdDeviation="2"/>
<feComposite in2="hardAlpha" operator="out"/>
<feColorMatrix type="matrix" values="0 0 0 0 0 0 0 0 0 0 0 0 0 0 0 0 0 0 0.1 0"/>
<feBlend mode="normal" in2="BackgroundImageFix" result="effect1_dropShadow_3005_21069"/>
<feBlend mode="normal" in="SourceGraphic" in2="effect1_dropShadow_3005_21069" result="shape"/>
</filter>
</defs>
</svg>
