<svg width="20" height="20" viewBox="0 0 20 20" fill="none" xmlns="http://www.w3.org/2000/svg">
<path d="M10 16.6663C9.72222 16.6663 9.48611 16.5691 9.29167 16.3747C9.09722 16.1802 9 15.9441 9 15.6663C9 15.3886 9.09722 15.1525 9.29167 14.958C9.48611 14.7636 9.72222 14.6663 10 14.6663C10.2778 14.6663 10.5139 14.7636 10.7083 14.958C10.9028 15.1525 11 15.3886 11 15.6663C11 15.9441 10.9028 16.1802 10.7083 16.3747C10.5139 16.5691 10.2778 16.6663 10 16.6663ZM10 10.9997C9.72222 10.9997 9.48611 10.9025 9.29167 10.708C9.09722 10.5136 9 10.2775 9 9.99967C9 9.7219 9.09722 9.48579 9.29167 9.29134C9.48611 9.0969 9.72222 8.99967 10 8.99967C10.2778 8.99967 10.5139 9.0969 10.7083 9.29134C10.9028 9.48579 11 9.7219 11 9.99967C11 10.2775 10.9028 10.5136 10.7083 10.708C10.5139 10.9025 10.2778 10.9997 10 10.9997ZM10 5.33301C9.72222 5.33301 9.48611 5.23579 9.29167 5.04134C9.09722 4.8469 9 4.61079 9 4.33301C9 4.05523 9.09722 3.81912 9.29167 3.62467C9.48611 3.43023 9.72222 3.33301 10 3.33301C10.2778 3.33301 10.5139 3.43023 10.7083 3.62467C10.9028 3.81912 11 4.05523 11 4.33301C11 4.61079 10.9028 4.8469 10.7083 5.04134C10.5139 5.23579 10.2778 5.33301 10 5.33301Z" fill="#757575"/>
</svg>
