<svg width="20" height="20" viewBox="0 0 20 20" fill="currentColor" xmlns="http://www.w3.org/2000/svg">
<path d="M10 12.5625C9.91667 12.5625 9.84028 12.5486 9.77084 12.5208C9.70139 12.4931 9.63195 12.4444 9.5625 12.375L5.4375 8.25C5.32639 8.13889 5.27431 7.98958 5.28125 7.80208C5.2882 7.61458 5.34722 7.46527 5.45834 7.35416C5.59722 7.21527 5.74653 7.15625 5.90625 7.17708C6.06597 7.19791 6.20834 7.26389 6.33334 7.375L10 11.0417L13.6667 7.375C13.7778 7.26389 13.9271 7.20139 14.1146 7.1875C14.3021 7.17361 14.4514 7.23611 14.5625 7.375C14.7014 7.48611 14.7604 7.63194 14.7396 7.8125C14.7188 7.99305 14.6528 8.14583 14.5417 8.27083L10.4375 12.375C10.3681 12.4444 10.2986 12.4931 10.2292 12.5208C10.1597 12.5486 10.0833 12.5625 10 12.5625V12.5625Z" fill="currentColor"/>
</svg>
