<svg width="20" height="20" viewBox="0 0 20 20" fill="currentColor" xmlns="http://www.w3.org/2000/svg">
<path d="M5.45835 12.3542C5.33335 12.2292 5.26738 12.0833 5.26044 11.9167C5.25349 11.75 5.31252 11.6042 5.43752 11.4792L9.56252 7.35416C9.63196 7.28471 9.70141 7.2361 9.77085 7.20832C9.8403 7.18054 9.91669 7.16666 10 7.16666C10.0834 7.16666 10.1597 7.18054 10.2292 7.20832C10.2986 7.2361 10.3681 7.28471 10.4375 7.35416L14.5625 11.4583C14.6875 11.5694 14.75 11.7118 14.75 11.8854C14.75 12.059 14.6875 12.2083 14.5625 12.3333C14.4375 12.4583 14.2882 12.5208 14.1146 12.5208C13.941 12.5208 13.7917 12.4583 13.6667 12.3333L10 8.68749L6.33335 12.375C6.22224 12.5 6.07988 12.559 5.90627 12.5521C5.73266 12.5451 5.58335 12.4792 5.45835 12.3542V12.3542Z" fill="currentColor"/>
</svg>
