<svg width="20" height="20" viewBox="0 0 20 20" fill="currentColor" xmlns="http://www.w3.org/2000/svg">
<path d="M7.37502 14.5417C7.26391 14.4028 7.20488 14.25 7.19794 14.0833C7.19099 13.9167 7.25002 13.7708 7.37502 13.6458L11.0417 9.97916L7.35419 6.29166C7.24308 6.18055 7.19099 6.03125 7.19794 5.84375C7.20488 5.65625 7.26391 5.50694 7.37502 5.39583C7.51391 5.25694 7.66322 5.19097 7.82294 5.19791C7.98266 5.20486 8.12502 5.27083 8.25002 5.39583L12.3959 9.54166C12.4653 9.61111 12.5139 9.68055 12.5417 9.75C12.5695 9.81944 12.5834 9.89583 12.5834 9.97916C12.5834 10.0625 12.5695 10.1389 12.5417 10.2083C12.5139 10.2778 12.4653 10.3472 12.3959 10.4167L8.27086 14.5417C8.14586 14.6667 8.00002 14.7257 7.83336 14.7187C7.66669 14.7118 7.51391 14.6528 7.37502 14.5417V14.5417Z" fill="currentColor"/>
</svg>
