<svg width="298" height="280" viewBox="0 0 298 280" fill="none" xmlns="http://www.w3.org/2000/svg">
<circle cx="149.5" cy="136.5" r="103.5" fill="#FFF7E1"/>
<g clip-path="url(#clip0_6335_46830)">
<path d="M203.321 32.3649H93.5249C86.5201 32.3649 80.8416 38.0446 80.8416 45.0508V183.314C80.8416 190.32 86.5201 196 93.5249 196H203.321C210.326 196 216.004 190.32 216.004 183.314V45.0508C216.004 38.0446 210.326 32.3649 203.321 32.3649Z" fill="#2952E8"/>
<path d="M143.874 23.5736C143.874 23.4848 143.882 23.4002 143.887 23.3157H138.856C138.856 23.4002 138.847 23.489 138.847 23.5736V25.0494H143.87V23.5736H143.874Z" fill="#E5C645"/>
<path d="M148.419 19.0236C150.837 19.0236 152.816 20.9265 152.951 23.3114H157.982C157.843 18.1441 153.619 14 148.419 14C143.219 14 138.995 18.1483 138.855 23.3114H143.887C144.022 20.9265 146 19.0236 148.419 19.0236Z" fill="#FFDF5A"/>
<path d="M163.867 25.0452H132.975C128.303 25.0452 124.519 28.8298 124.519 33.5024V35.9381C124.519 37.8072 126.033 39.321 127.901 39.321H168.941C170.809 39.321 172.323 37.8072 172.323 35.9381V33.5024C172.323 28.8298 168.539 25.0452 163.867 25.0452Z" fill="#FFDF5A"/>
<path d="M152.968 23.5736V25.0494H157.99V23.5736C157.99 23.4848 157.986 23.4002 157.982 23.3157H152.951C152.955 23.4002 152.964 23.489 152.964 23.5736H152.968Z" fill="#E5C645"/>
<path d="M93.5249 176.548V160.818H65C65 173.242 75.0706 183.314 87.4919 183.314H100.289C96.552 183.314 93.5249 180.286 93.5249 176.548Z" fill="#BDDBE5"/>
<path d="M180.229 183.297C180.03 183.293 179.827 183.289 179.632 183.28C179.451 183.272 179.273 183.255 179.096 183.238C178.893 183.221 178.69 183.213 178.491 183.192C178.313 183.175 178.14 183.145 177.962 183.124C177.764 183.098 177.561 183.077 177.366 183.048C177.193 183.022 177.02 182.984 176.842 182.955C176.648 182.921 176.449 182.887 176.259 182.849C176.085 182.811 175.912 182.769 175.739 182.731C175.548 182.688 175.358 182.646 175.172 182.595C174.999 182.549 174.83 182.498 174.656 182.447C174.475 182.397 174.289 182.346 174.107 182.291C173.933 182.236 173.764 182.177 173.591 182.117C173.413 182.058 173.236 181.999 173.062 181.936C172.889 181.872 172.72 181.8 172.551 181.733C172.382 181.665 172.213 181.602 172.044 181.53C171.874 181.458 171.705 181.377 171.536 181.301C171.371 181.225 171.211 181.158 171.05 181.077C170.881 180.997 170.716 180.908 170.551 180.823C170.395 180.743 170.234 180.663 170.082 180.582C169.917 180.494 169.756 180.396 169.596 180.303C169.443 180.215 169.291 180.13 169.143 180.041C168.983 179.944 168.826 179.838 168.67 179.737C168.526 179.644 168.378 179.551 168.234 179.453C168.082 179.348 167.93 179.238 167.778 179.128C167.634 179.026 167.49 178.929 167.351 178.823C167.203 178.713 167.063 178.599 166.919 178.485C166.78 178.375 166.64 178.269 166.505 178.155C166.366 178.041 166.23 177.918 166.095 177.8C165.96 177.682 165.824 177.567 165.693 177.449C165.562 177.326 165.431 177.2 165.304 177.077C165.173 176.954 165.042 176.832 164.915 176.705C164.789 176.578 164.67 176.447 164.548 176.32C164.421 176.189 164.294 176.058 164.171 175.923C164.053 175.791 163.943 175.656 163.825 175.525C163.702 175.385 163.579 175.25 163.465 175.106C163.355 174.971 163.25 174.832 163.14 174.692C163.026 174.548 162.907 174.404 162.797 174.252C162.692 174.113 162.594 173.969 162.493 173.825C162.383 173.673 162.273 173.525 162.172 173.368C162.074 173.225 161.986 173.077 161.888 172.929C161.787 172.772 161.685 172.616 161.588 172.455C161.499 172.307 161.415 172.151 161.326 171.998C161.233 171.838 161.136 171.677 161.047 171.512C160.962 171.36 160.886 171.199 160.806 171.043C160.722 170.878 160.633 170.709 160.552 170.539C160.476 170.379 160.404 170.214 160.333 170.053C160.256 169.884 160.176 169.715 160.104 169.542C160.032 169.377 159.969 169.203 159.906 169.034C159.838 168.861 159.766 168.692 159.703 168.518C159.639 168.345 159.584 168.167 159.525 167.994C159.466 167.82 159.407 167.651 159.352 167.474C159.297 167.292 159.246 167.11 159.195 166.924C159.145 166.751 159.094 166.581 159.052 166.404C159.005 166.214 158.963 166.023 158.92 165.833C158.882 165.66 158.84 165.49 158.802 165.313C158.764 165.118 158.73 164.92 158.696 164.725C158.667 164.552 158.633 164.378 158.603 164.205C158.574 164.006 158.553 163.803 158.527 163.605C158.506 163.431 158.481 163.254 158.464 163.08C158.443 162.881 158.434 162.678 158.417 162.475C158.405 162.294 158.388 162.116 158.379 161.934C158.371 161.735 158.367 161.537 158.362 161.338C158.362 161.165 158.35 160.991 158.35 160.818H109.979H93.5249V176.548C93.5249 180.286 96.552 183.314 100.289 183.314H180.829C180.829 183.314 180.804 183.314 180.791 183.314C180.778 183.314 180.765 183.314 180.753 183.314C180.579 183.314 180.406 183.306 180.229 183.297Z" fill="#BDDBE5"/>
<path d="M180.749 183.314C180.749 183.314 180.774 183.314 180.787 183.314C180.601 183.314 180.41 183.306 180.224 183.301C180.398 183.306 180.571 183.314 180.749 183.318V183.314Z" fill="#E5C645"/>
<path d="M203.317 51.8166C203.317 48.0785 200.289 45.0508 196.552 45.0508H100.289C96.552 45.0508 93.5249 48.0785 93.5249 51.8166V160.818H109.979H158.337C158.337 160.991 158.345 161.165 158.35 161.338C158.345 161.139 158.337 160.94 158.337 160.737C158.341 159.304 158.345 158.166 158.35 157.321C158.35 158.166 158.341 159.304 158.337 160.737C158.337 160.94 158.345 161.139 158.35 161.338C158.354 161.537 158.354 161.74 158.367 161.934C158.375 162.116 158.392 162.294 158.405 162.475C158.417 162.678 158.43 162.877 158.451 163.08C158.468 163.258 158.493 163.431 158.515 163.604C158.54 163.803 158.561 164.006 158.591 164.205C158.616 164.378 158.65 164.552 158.684 164.725C158.718 164.92 158.747 165.118 158.789 165.313C158.823 165.486 158.87 165.66 158.908 165.833C158.95 166.023 158.992 166.214 159.039 166.404C159.085 166.577 159.136 166.751 159.183 166.924C159.233 167.106 159.284 167.292 159.339 167.474C159.394 167.647 159.453 167.82 159.512 167.994C159.572 168.171 159.627 168.345 159.69 168.518C159.753 168.692 159.825 168.861 159.893 169.034C159.961 169.203 160.024 169.372 160.092 169.541C160.163 169.715 160.244 169.884 160.32 170.053C160.392 170.214 160.464 170.379 160.54 170.539C160.62 170.709 160.709 170.874 160.793 171.043C160.874 171.199 160.95 171.356 161.034 171.512C161.123 171.677 161.22 171.838 161.313 171.998C161.402 172.151 161.483 172.303 161.576 172.455C161.673 172.616 161.774 172.772 161.876 172.929C161.969 173.077 162.062 173.225 162.159 173.368C162.265 173.525 162.375 173.673 162.48 173.825C162.582 173.969 162.679 174.113 162.785 174.252C162.895 174.4 163.013 174.544 163.127 174.692C163.237 174.831 163.339 174.971 163.453 175.106C163.571 175.25 163.694 175.385 163.812 175.525C163.926 175.656 164.04 175.791 164.159 175.922C164.281 176.058 164.408 176.189 164.535 176.32C164.658 176.447 164.776 176.578 164.903 176.705C165.03 176.832 165.161 176.954 165.292 177.077C165.423 177.2 165.55 177.326 165.681 177.449C165.812 177.567 165.951 177.686 166.082 177.8C166.218 177.918 166.353 178.041 166.492 178.155C166.628 178.269 166.771 178.375 166.907 178.485C167.051 178.599 167.194 178.713 167.338 178.823C167.478 178.929 167.621 179.026 167.765 179.128C167.917 179.238 168.065 179.348 168.222 179.453C168.365 179.551 168.513 179.644 168.657 179.737C168.814 179.838 168.97 179.944 169.131 180.041C169.279 180.134 169.435 180.219 169.583 180.303C169.744 180.396 169.904 180.494 170.069 180.582C170.226 180.667 170.382 180.743 170.538 180.823C170.703 180.908 170.868 180.997 171.037 181.077C171.198 181.153 171.363 181.225 171.524 181.301C171.693 181.377 171.858 181.458 172.031 181.53C172.2 181.602 172.369 181.665 172.538 181.733C172.707 181.8 172.881 181.872 173.05 181.936C173.223 181.999 173.401 182.058 173.578 182.117C173.752 182.177 173.921 182.236 174.094 182.291C174.276 182.346 174.462 182.397 174.644 182.447C174.817 182.498 174.986 182.549 175.159 182.595C175.345 182.646 175.54 182.684 175.726 182.731C175.899 182.769 176.068 182.815 176.246 182.849C176.44 182.887 176.635 182.921 176.829 182.955C177.003 182.984 177.176 183.022 177.354 183.048C177.552 183.077 177.751 183.098 177.95 183.124C178.127 183.145 178.301 183.175 178.478 183.191C178.677 183.213 178.88 183.225 179.083 183.238C179.26 183.251 179.442 183.268 179.62 183.28C179.818 183.289 180.017 183.293 180.216 183.297C180.402 183.301 180.588 183.31 180.778 183.31C193.183 183.331 203.266 173.305 203.308 160.894C203.308 160.869 203.308 160.843 203.308 160.814V51.8166H203.317Z" fill="#DDF5FF"/>
<path d="M148.419 139.48C166.031 139.48 180.309 125.2 180.309 107.584C180.309 89.9677 166.031 75.6872 148.419 75.6872C130.806 75.6872 116.528 89.9677 116.528 107.584C116.528 125.2 130.806 139.48 148.419 139.48Z" fill="#1FA9FA"/>
<path d="M145.818 117.005C145.062 117.005 144.305 116.718 143.726 116.138L136.006 108.417C134.852 107.262 134.852 105.385 136.006 104.23C137.16 103.076 139.037 103.076 140.191 104.23L145.818 109.859L156.65 99.025C157.804 97.8705 159.681 97.8705 160.836 99.025C161.99 100.179 161.99 102.057 160.836 103.211L147.911 116.138C147.332 116.718 146.575 117.005 145.818 117.005Z" fill="white"/>
</g>
<ellipse cx="148" cy="266" rx="63" ry="8" fill="#EAEAEA"/>
<defs>
<clipPath id="clip0_6335_46830">
<rect width="151" height="182" fill="white" transform="translate(65 14)"/>
</clipPath>
</defs>
</svg>
