<svg width="20" height="20" viewBox="0 0 20 20" fill="currentColor" xmlns="http://www.w3.org/2000/svg">
<path d="M6.45841 10.5625H13.5626C13.7292 10.5625 13.8716 10.5 13.9897 10.375C14.1077 10.25 14.1667 10.1041 14.1667 9.93746C14.1667 9.7569 14.1077 9.6076 13.9897 9.48954C13.8716 9.37149 13.7223 9.31246 13.5417 9.31246H6.43758C6.27091 9.31246 6.12855 9.37496 6.0105 9.49996C5.89244 9.62496 5.83341 9.77079 5.83341 9.93746C5.83341 10.118 5.89244 10.2673 6.0105 10.3854C6.12855 10.5034 6.27786 10.5625 6.45841 10.5625V10.5625ZM10.0001 18.3333C8.81953 18.3333 7.7223 18.1215 6.70841 17.6979C5.69453 17.2743 4.81258 16.6875 4.06258 15.9375C3.31258 15.1875 2.72578 14.3055 2.30216 13.2916C1.87855 12.2777 1.66675 11.1805 1.66675 9.99996C1.66675 8.83329 1.87855 7.74301 2.30216 6.72913C2.72578 5.71524 3.31258 4.83329 4.06258 4.08329C4.81258 3.33329 5.69453 2.74301 6.70841 2.31246C7.7223 1.8819 8.81953 1.66663 10.0001 1.66663C11.1667 1.66663 12.257 1.8819 13.2709 2.31246C14.2848 2.74301 15.1667 3.33329 15.9167 4.08329C16.6667 4.83329 17.257 5.71524 17.6876 6.72913C18.1181 7.74301 18.3334 8.83329 18.3334 9.99996C18.3334 11.1805 18.1181 12.2777 17.6876 13.2916C17.257 14.3055 16.6667 15.1875 15.9167 15.9375C15.1667 16.6875 14.2848 17.2743 13.2709 17.6979C12.257 18.1215 11.1667 18.3333 10.0001 18.3333Z" fill="currentColor"/>
</svg>
