<svg width="20" height="20" viewBox="0 0 20 20" fill="none" xmlns="http://www.w3.org/2000/svg">
<path d="M10 12.5625C9.91667 12.5625 9.84028 12.5486 9.77084 12.5208C9.70139 12.493 9.63195 12.4444 9.5625 12.375L5.4375 8.24997C5.32639 8.13885 5.27431 7.98955 5.28125 7.80205C5.2882 7.61455 5.34722 7.46524 5.45834 7.35413C5.59722 7.21524 5.74653 7.15622 5.90625 7.17705C6.06597 7.19788 6.20834 7.26386 6.33334 7.37497L10 11.0416L13.6667 7.37497C13.7778 7.26386 13.9271 7.20136 14.1146 7.18747C14.3021 7.17358 14.4514 7.23608 14.5625 7.37497C14.7014 7.48608 14.7604 7.63191 14.7396 7.81247C14.7188 7.99302 14.6528 8.1458 14.5417 8.2708L10.4375 12.375C10.3681 12.4444 10.2986 12.493 10.2292 12.5208C10.1597 12.5486 10.0833 12.5625 10 12.5625Z" fill="#383838"/>
</svg>
