<svg width="20" height="19" viewBox="0 0 20 19" fill="none" xmlns="http://www.w3.org/2000/svg">
<path d="M14.6853 13.1629C13.553 14.3199 12.1099 15.7016 10.3524 17.3099C10.3516 17.3107 10.3507 17.3114 10.3499 17.3122L10 17.6279L9.65009 17.3122C9.64925 17.3114 9.6484 17.3106 9.64755 17.3098C7.89007 15.7015 6.44695 14.3198 5.31467 13.1629C4.18448 12.0082 3.30137 10.9941 2.65433 10.1182C2.00496 9.2392 1.58274 8.48664 1.35138 7.85565C1.11509 7.21123 1 6.56923 1 5.9249C1 4.67481 1.40936 3.67975 2.21961 2.86951C3.03216 2.05696 4.01999 1.6499 5.25 1.6499C6.03453 1.6499 6.74561 1.83373 7.40109 2.19863C8.06285 2.56704 8.65869 3.10877 9.18303 3.85158L9.96106 4.95379L10.7893 3.88884C11.4274 3.06854 12.0687 2.5099 12.7019 2.16637C13.3373 1.82161 14.0148 1.6499 14.75 1.6499C15.98 1.6499 16.9678 2.05696 17.7804 2.86951C18.5906 3.67975 19 4.67481 19 5.9249C19 6.56923 18.8849 7.21123 18.6486 7.85565C18.4173 8.48664 17.995 9.2392 17.3457 10.1182C16.6986 10.9941 15.8155 12.0082 14.6853 13.1629Z" stroke="#919191" stroke-width="2"/>
</svg>
