<svg width="18" height="14" viewBox="0 0 18 14" fill="none" xmlns="http://www.w3.org/2000/svg">
<path d="M14.2084 7.62467V6.37467H17.3334V7.62467H14.2084ZM15.2501 13.6663L12.7292 11.7913L13.4792 10.7913L16.0001 12.6663L15.2501 13.6663ZM13.5417 3.18717L12.7917 2.18717L15.2501 0.333008L16.0001 1.33301L13.5417 3.18717ZM3.37508 12.833V9.49967H1.91675C1.56953 9.49967 1.27439 9.37815 1.03133 9.13509C0.788276 8.89204 0.666748 8.5969 0.666748 8.24967V5.74967C0.666748 5.40245 0.788276 5.10731 1.03133 4.86426C1.27439 4.6212 1.56953 4.49967 1.91675 4.49967H5.66675L9.83341 1.99967V11.9997L5.66675 9.49967H4.62508V12.833H3.37508ZM10.6667 9.79134V4.20801C11.0417 4.54134 11.3438 4.94759 11.573 5.42676C11.8022 5.90592 11.9167 6.43023 11.9167 6.99967C11.9167 7.56912 11.8022 8.09342 11.573 8.57259C11.3438 9.05176 11.0417 9.45801 10.6667 9.79134Z" fill="#ACACAC"/>
</svg>
