<svg width="178" height="48" viewBox="0 0 178 48" fill="none" xmlns="http://www.w3.org/2000/svg">
<g clip-path="url(#clip0_6541_9110)">
<path d="M24.5278 12H30.6168L35.091 27.8963L38.9716 12H45.3297L38.3779 35.687H32.5027L27.5704 19.3963L22.827 35.687H16.9518L10 12H16.3601L20.2406 27.8963L24.7129 12H30.8039" fill="white"/>
<path d="M47.7803 36.0001H60.7829L47.7803 20.3408V36.0001Z" fill="white"/>
<path d="M75.2134 35.9997V28.2256L65.3145 35.9997H75.2134Z" fill="white"/>
<path d="M62.0983 12L63.1042 13.2556L54.7686 19.7907L57.6432 23.2593L65.5666 17.1944L68.6015 20.75L60.6075 27.0074L63.841 30.8407L72.5909 23.9037L75.2136 26.9537V12H62.0983Z" fill="white"/>
<path d="M56.8336 12L47.7803 19.0074V12H56.8336Z" fill="white"/>
<path d="M83.7099 12H77.0635L86.3345 35.6685H89.3885V28.8019L83.7099 12Z" fill="white"/>
<path d="M95.0654 12H101.712L92.4427 35.6685H89.3887V28.8019L95.0654 12Z" fill="white"/>
<path d="M120 12H103.544V35.6685H120.574V30.65H109.293V25.8037H119.282V21.237H109.221V16.8111H119.982L120 12Z" fill="white"/>
<path d="M131.263 12H124.474V35.6685H130.24V20.1574L139.941 35.6685H146.623V12H140.91V27.3204L131.263 12Z" fill="white"/>
<path d="M169 12H149.274V16.8111H156.154V35.6685H162.119V16.8111H169V12Z" fill="white"/>
</g>
<defs>
<clipPath id="clip0_6541_9110">
<rect width="159" height="24" fill="white" transform="translate(10 12)"/>
</clipPath>
</defs>
</svg>
