<svg width="20" height="19" viewBox="0 0 20 19" fill="none" xmlns="http://www.w3.org/2000/svg">
<path d="M10 18.9749L8.975 18.0499C7.20833 16.4332 5.75 15.0374 4.6 13.8624C3.45 12.6874 2.53333 11.6374 1.85 10.7124C1.16667 9.7874 0.6875 8.9499 0.4125 8.1999C0.1375 7.4499 0 6.69157 0 5.9249C0 4.4249 0.504167 3.17074 1.5125 2.1624C2.52083 1.15407 3.76667 0.649902 5.25 0.649902C6.2 0.649902 7.07916 0.874902 7.8875 1.3249C8.69583 1.7749 9.4 2.4249 10 3.2749C10.7 2.3749 11.4417 1.7124 12.225 1.2874C13.0083 0.862402 13.85 0.649902 14.75 0.649902C16.2333 0.649902 17.4792 1.15407 18.4875 2.1624C19.4958 3.17074 20 4.4249 20 5.9249C20 6.69157 19.8625 7.4499 19.5875 8.1999C19.3125 8.9499 18.8333 9.7874 18.15 10.7124C17.4667 11.6374 16.55 12.6874 15.4 13.8624C14.25 15.0374 12.7917 16.4332 11.025 18.0499L10 18.9749Z" fill="#FB5C30"/>
</svg>
