<svg width="40" height="40" viewBox="0 0 40 40" fill="none" xmlns="http://www.w3.org/2000/svg">
<rect width="40" height="40" rx="20" fill="#FEE708"/>
<path d="M20.01 11C14.0737 11 9.25391 14.7937 9.25391 19.4751C9.25391 22.5005 11.2668 25.1554 14.2922 26.6544C14.1215 27.223 13.2354 30.3081 13.1995 30.5505C13.1995 30.5505 13.1773 30.7332 13.2951 30.8015C13.3348 30.8216 13.3781 30.8333 13.4224 30.836C13.4668 30.8386 13.5112 30.8321 13.5529 30.8169C13.8944 30.7708 17.4798 28.2559 18.0944 27.8154C18.7267 27.905 19.3646 27.9496 20.0032 27.9486C25.9396 27.9486 30.7593 24.1549 30.7593 19.4751C30.7593 14.7954 25.9464 11 20.0032 11H20.01Z" fill="#010101"/>
<path d="M14.0677 22.4321C13.9072 22.4358 13.7518 22.3757 13.6356 22.2649C13.5194 22.1542 13.4519 22.0019 13.4479 21.8414V18.157H12.4799C12.3974 18.1614 12.315 18.1489 12.2376 18.1204C12.1601 18.0919 12.0893 18.0479 12.0294 17.9911C11.9695 17.9343 11.9218 17.8659 11.8892 17.7901C11.8567 17.7143 11.8398 17.6326 11.8398 17.5501C11.8398 17.4675 11.8567 17.3859 11.8892 17.31C11.9218 17.2342 11.9695 17.1658 12.0294 17.109C12.0893 17.0522 12.1601 17.0082 12.2376 16.9797C12.315 16.9512 12.3974 16.9387 12.4799 16.9431H15.6555C15.7379 16.9387 15.8203 16.9512 15.8978 16.9797C15.9752 17.0082 16.046 17.0522 16.1059 17.109C16.1658 17.1658 16.2135 17.2342 16.2461 17.31C16.2787 17.3859 16.2955 17.4675 16.2955 17.5501C16.2955 17.6326 16.2787 17.7143 16.2461 17.7901C16.2135 17.8659 16.1658 17.9343 16.1059 17.9911C16.046 18.0479 15.9752 18.0919 15.8978 18.1204C15.8203 18.1489 15.7379 18.1614 15.6555 18.157H14.6874V21.8414C14.6834 22.0019 14.6159 22.1542 14.4997 22.2649C14.3835 22.3757 14.2281 22.4358 14.0677 22.4321ZM19.5055 22.4321C19.2477 22.4321 19.0496 22.3263 18.9933 22.1573L18.686 21.3531H16.7908L16.4852 22.159C16.4255 22.3297 16.2274 22.4321 15.973 22.4321C15.8375 22.4321 15.7036 22.403 15.5803 22.3468C15.4096 22.2665 15.2389 22.0497 15.4318 21.4658L16.9155 17.5612C16.9695 17.3841 17.0789 17.229 17.2277 17.1189C17.3765 17.0087 17.5567 16.9492 17.7418 16.9492C17.9269 16.9492 18.1072 17.0087 18.2559 17.1189C18.4047 17.229 18.5142 17.3841 18.5682 17.5612L20.0518 21.4641C20.2396 22.0514 20.0757 22.2682 19.905 22.3468C19.7812 22.4032 19.6467 22.4323 19.5106 22.4321H19.5055ZM18.3565 20.2553L17.7367 18.4968L17.1169 20.2553H18.3565ZM21.0438 22.3485C20.8899 22.3517 20.7411 22.2939 20.6297 22.1877C20.5184 22.0814 20.4537 21.9355 20.4496 21.7817V17.5629C20.4496 17.3949 20.5164 17.2338 20.6351 17.115C20.7539 16.9962 20.9151 16.9294 21.083 16.9294C21.251 16.9294 21.4121 16.9962 21.5309 17.115C21.6497 17.2338 21.7165 17.3949 21.7165 17.5629V21.2063H23.0345C23.1117 21.202 23.1889 21.2136 23.2615 21.2402C23.334 21.2668 23.4004 21.308 23.4565 21.3611C23.5126 21.4142 23.5573 21.4782 23.5879 21.5492C23.6184 21.6202 23.6342 21.6967 23.6342 21.774C23.6342 21.8513 23.6184 21.9277 23.5879 21.9987C23.5573 22.0697 23.5126 22.1337 23.4565 22.1868C23.4004 22.24 23.334 22.2811 23.2615 22.3077C23.1889 22.3343 23.1117 22.3459 23.0345 22.3417L21.0438 22.3485ZM24.4891 22.4321C24.3249 22.4317 24.1675 22.3663 24.0514 22.2501C23.9353 22.134 23.8698 21.9766 23.8694 21.8124V17.5629C23.8694 17.3985 23.9347 17.2409 24.0509 17.1246C24.1671 17.0084 24.3248 16.9431 24.4891 16.9431C24.6535 16.9431 24.8112 17.0084 24.9274 17.1246C25.0436 17.2409 25.1089 17.3985 25.1089 17.5629V18.8946L26.8401 17.1651C26.8851 17.1206 26.9385 17.0856 26.9971 17.0618C27.0557 17.0381 27.1184 17.0262 27.1816 17.0268C27.3362 17.0316 27.4837 17.0931 27.5961 17.1994C27.7084 17.3058 27.7778 17.4497 27.7911 17.6038C27.7966 17.6728 27.7872 17.7422 27.7637 17.8073C27.7401 17.8724 27.7029 17.9317 27.6545 17.9812L26.2409 19.3948L27.7672 21.4163C27.8164 21.4813 27.8523 21.5553 27.8728 21.6342C27.8933 21.7131 27.8981 21.7952 27.8869 21.8759C27.8756 21.9567 27.8485 22.0344 27.8072 22.1046C27.7659 22.1749 27.7111 22.2363 27.646 22.2853C27.538 22.366 27.4069 22.4097 27.2721 22.4099C27.176 22.4101 27.0811 22.3879 26.9952 22.3449C26.9092 22.3019 26.8345 22.2394 26.777 22.1624L25.324 20.2365L25.1089 20.4516V21.8038C25.1085 21.9685 25.0428 22.1263 24.9264 22.2428C24.8099 22.3592 24.6521 22.4249 24.4874 22.4253L24.4891 22.4321Z" fill="#FEE708"/>
</svg>
