<svg width="32" height="32" viewBox="0 0 32 32" fill="none" xmlns="http://www.w3.org/2000/svg">
<g clip-path="url(#clip0_1445_17513)">
<path d="M27.636 18.1333H4.36324C3.64918 18.1333 3.07031 18.7104 3.07031 19.4222V27.1557C3.07031 27.8675 3.64918 28.4446 4.36324 28.4446H27.636C28.35 28.4446 28.9289 27.8675 28.9289 27.1557V19.4222C28.9289 18.7104 28.35 18.1333 27.636 18.1333Z" fill="#A8A8A8"/>
<path d="M28.9289 14.2666H3.07027C2.35621 14.2666 1.77734 14.8437 1.77734 15.5555C1.77734 16.2674 2.35621 16.8444 3.07027 16.8444H28.9289C29.6429 16.8444 30.2218 16.2674 30.2218 15.5555C30.2218 14.8437 29.6429 14.2666 28.9289 14.2666Z" fill="#A8A8A8"/>
<path d="M21.0937 8.71131C22.5218 8.71131 23.6795 7.55718 23.6795 6.13349C23.6795 4.70979 22.5218 3.55566 21.0937 3.55566C19.6655 3.55566 18.5078 4.70979 18.5078 6.13349C18.5078 7.55718 19.6655 8.71131 21.0937 8.71131Z" fill="#A8A8A8"/>
<path d="M12.1208 3.95532H4.36324C3.64918 3.95532 3.07031 4.53239 3.07031 5.24423V9.11097C3.07031 9.82282 3.64918 10.3999 4.36324 10.3999H12.1208C12.8349 10.3999 13.4137 9.82282 13.4137 9.11097V5.24423C13.4137 4.53239 12.8349 3.95532 12.1208 3.95532Z" fill="#A8A8A8"/>
<path d="M9.53508 10.3999H6.94922V14.2666H9.53508V10.3999Z" fill="#A8A8A8"/>
<path d="M25.6317 9.35571H23.6794L21.0936 11.9335L18.5077 9.35571H16.5554C15.4952 9.35571 14.6289 10.2193 14.6289 11.2762V14.5114H27.5582V11.2762C27.5582 10.2193 26.6919 9.35571 25.6317 9.35571Z" fill="#A8A8A8"/>
</g>
<defs>
<clipPath id="clip0_1445_17513">
<rect width="28.4444" height="24.8889" fill="white" transform="translate(1.77734 3.55566)"/>
</clipPath>
</defs>
</svg>
