<svg width="20" height="20" viewBox="0 0 20 20" fill="none" xmlns="http://www.w3.org/2000/svg">
<path d="M4.58301 18.3335C4.23579 18.3335 3.94065 18.212 3.69759 17.9689C3.45454 17.7259 3.33301 17.4307 3.33301 17.0835V8.04183C3.33301 7.69461 3.45454 7.39947 3.69759 7.15641C3.94065 6.91336 4.23579 6.79183 4.58301 6.79183H6.04134V4.79183C6.04134 3.69461 6.42676 2.76058 7.19759 1.98975C7.96842 1.21891 8.90245 0.833496 9.99967 0.833496C11.0969 0.833496 12.0309 1.21891 12.8018 1.98975C13.5726 2.76058 13.958 3.69461 13.958 4.79183V6.79183H15.4163C15.7636 6.79183 16.0587 6.91336 16.3018 7.15641C16.5448 7.39947 16.6663 7.69461 16.6663 8.04183V17.0835C16.6663 17.4307 16.5448 17.7259 16.3018 17.9689C16.0587 18.212 15.7636 18.3335 15.4163 18.3335H4.58301ZM9.99967 14.1668C10.4441 14.1668 10.8226 14.0141 11.1351 13.7085C11.4476 13.4029 11.6038 13.0349 11.6038 12.6043C11.6038 12.1877 11.4476 11.8092 11.1351 11.4689C10.8226 11.1286 10.4441 10.9585 9.99967 10.9585C9.55523 10.9585 9.17676 11.1286 8.86426 11.4689C8.55176 11.8092 8.39551 12.1877 8.39551 12.6043C8.39551 13.0349 8.55176 13.4029 8.86426 13.7085C9.17676 14.0141 9.55523 14.1668 9.99967 14.1668ZM7.29134 6.79183H12.708V4.79183C12.708 4.04183 12.4441 3.40294 11.9163 2.87516C11.3886 2.34739 10.7497 2.0835 9.99967 2.0835C9.24967 2.0835 8.61079 2.34739 8.08301 2.87516C7.55523 3.40294 7.29134 4.04183 7.29134 4.79183V6.79183Z" fill="#C8C8C8"/>
</svg>
