<svg width="162" height="36" viewBox="0 0 162 36" fill="none" xmlns="http://www.w3.org/2000/svg">
<g clip-path="url(#clip0_6335_47021)">
<path d="M21.3171 7H26.8987L31.0001 21.5716L34.5573 7H40.3856L34.0131 28.7131H28.6275L24.1062 13.7799L19.7581 28.7131H14.3725L8 7H13.8301L17.3873 21.5716L21.4868 7H27.0702" fill="#2898FF"/>
<path d="M42.6322 29H54.5513L42.6322 14.6456V29Z" fill="#2898FF"/>
<path d="M67.7792 29V21.8738L58.7052 29H67.7792Z" fill="#2898FF"/>
<path d="M55.7569 7L56.679 8.15093L49.0379 14.1415L51.673 17.321L58.9361 11.7616L61.7182 15.0208L54.3903 20.7568L57.3544 24.2707L65.3751 17.9117L67.7792 20.7076V7H55.7569Z" fill="#2898FF"/>
<path d="M50.9312 7L42.6322 13.4235V7H50.9312Z" fill="#2898FF"/>
<path d="M75.5672 7H69.4747L77.9731 28.6961H80.7726V22.4017L75.5672 7Z" fill="#2898FF"/>
<path d="M85.9763 7H92.0688L83.5722 28.6961H80.7726V22.4017L85.9763 7Z" fill="#2898FF"/>
<path d="M108.833 7H93.7486V28.6961H109.36V24.0958H99.0187V19.6534H108.175V15.4673H98.9522V11.4102H108.817L108.833 7Z" fill="#2898FF"/>
<path d="M119.158 7H112.934V28.6961H118.22V14.4776L127.112 28.6961H133.238V7H128.001V21.0437L119.158 7Z" fill="#2898FF"/>
<path d="M153.75 7H135.668V11.4102H141.974V28.6961H147.442V11.4102H153.75V7Z" fill="#2898FF"/>
</g>
<defs>
<clipPath id="clip0_6335_47021">
<rect width="145.75" height="22" fill="white" transform="translate(8 7)"/>
</clipPath>
</defs>
</svg>
