<svg width="178" height="48" viewBox="0 0 178 48" fill="currentColor" xmlns="http://www.w3.org/2000/svg">
<g clip-path="url(#clip0_3179_18482)">
<path d="M24.5278 12H30.6168L35.091 27.8963L38.9716 12H45.3297L38.3779 35.687H32.5027L27.5704 19.3963L22.827 35.687H16.9518L10 12H16.3601L20.2406 27.8963L24.7129 12H30.8039" fill="#2898FF"/>
<path d="M47.7806 36H60.7833L47.7806 20.3407V36Z" fill="#2898FF"/>
<path d="M75.2137 36V28.2259L65.3148 36H75.2137Z" fill="#2898FF"/>
<path d="M62.0984 12L63.1043 13.2556L54.7687 19.7907L57.6433 23.2593L65.5667 17.1944L68.6017 20.75L60.6077 27.0074L63.8411 30.8407L72.591 23.9037L75.2137 26.9537V12H62.0984Z" fill="#2898FF"/>
<path d="M56.834 12L47.7806 19.0074V12H56.834Z" fill="#2898FF"/>
<path d="M83.7097 12H77.0633L86.3343 35.6685H89.3883V28.8019L83.7097 12Z" fill="#2898FF"/>
<path d="M95.065 12H101.711L92.4424 35.6685H89.3883V28.8019L95.065 12Z" fill="#2898FF"/>
<path d="M120 12H103.544V35.6685H120.574V30.65H109.293V25.8037H119.282V21.237H109.221V16.8111H119.982L120 12Z" fill="#2898FF"/>
<path d="M131.263 12H124.474V35.6685H130.24V20.1574L139.941 35.6685H146.623V12H140.91V27.3204L131.263 12Z" fill="#2898FF"/>
<path d="M169 12H149.275V16.8111H156.154V35.6685H162.119V16.8111H169V12Z" fill="#2898FF"/>
</g>
<defs>
<clipPath id="clip0_3179_18482">
<rect width="159" height="24" fill="white" transform="translate(10 12)"/>
</clipPath>
</defs>
</svg>
