<svg width="56" height="50" viewBox="0 0 56 50" fill="currentColor" xmlns="http://www.w3.org/2000/svg">
<path d="M10.464 2.992V17.344H12.448V2.992H10.464ZM0.576 13.328L1.616 14.896C6.672 12.448 8.192 8.864 8.192 4.48H1.312V6.08H6.16C5.856 9.264 4.24 11.568 0.576 13.328ZM16.1284 3.536V9.344H19.9524V10.608H14.4644V12.192H27.4564V10.608H21.9204V9.344H25.8084V3.536H23.8244V4.96H18.0964V3.536H16.1284ZM16.0644 17.088H25.9844V15.488H18.0324V13.056H16.0644V17.088ZM18.0964 7.792V6.512H23.8244V7.792H18.0964ZM35.7928 5.152V6.736H38.4648V10.304H40.4648V3.008H38.4648V5.152H35.7928ZM28.3848 8.848L29.3928 10.4C31.0568 9.872 32.1927 8.8 32.8008 7.424C33.4248 8.656 34.4808 9.632 36.0008 10.128L37.0248 8.592C34.8008 7.888 33.7768 6.24 33.7768 4.528V3.472H31.7768V4.528C31.7768 6.352 30.7368 8.128 28.3848 8.848ZM31.0088 12.448H38.4968V13.296H31.0408V17.184H40.8808V15.632H32.9928V14.736H40.4648V10.912H31.0088V12.448ZM50.2251 6.48V8.096H52.4491V11.536H54.4491V3.008H52.4491V6.48H50.2251ZM42.4011 9.952L43.4091 11.52C45.1051 10.944 46.2411 9.76 46.8651 8.304C47.4731 9.584 48.5611 10.624 50.1291 11.152L51.0891 9.584C48.8971 8.848 47.8731 7.136 47.8251 5.472H50.6411V3.888H42.9451V5.472H45.8091C45.7771 7.296 44.7051 9.168 42.4011 9.952ZM44.7051 14.608C44.7051 16.352 46.5771 17.376 49.6011 17.376C52.6251 17.376 54.4971 16.352 54.4971 14.608C54.4971 12.88 52.6251 11.856 49.6011 11.856C46.5771 11.856 44.7051 12.88 44.7051 14.608ZM46.6731 14.608C46.6731 13.776 47.6971 13.36 49.6011 13.36C51.5051 13.36 52.5131 13.776 52.5131 14.608C52.5131 15.424 51.5051 15.84 49.6011 15.84C47.6971 15.84 46.6731 15.424 46.6731 14.608Z" fill="currentColor"/>
<rect y="46" width="56" height="4" fill="currentColor"/>
</svg>
