<svg width="20" height="20" viewBox="0 0 20 20" fill="currentColor" xmlns="http://www.w3.org/2000/svg">
<path d="M10 16.6667C9.72222 16.6667 9.48611 16.5695 9.29167 16.375C9.09722 16.1806 9 15.9445 9 15.6667C9 15.3889 9.09722 15.1528 9.29167 14.9583C9.48611 14.7639 9.72222 14.6667 10 14.6667C10.2778 14.6667 10.5139 14.7639 10.7083 14.9583C10.9028 15.1528 11 15.3889 11 15.6667C11 15.9445 10.9028 16.1806 10.7083 16.375C10.5139 16.5695 10.2778 16.6667 10 16.6667ZM10 11C9.72222 11 9.48611 10.9028 9.29167 10.7083C9.09722 10.5139 9 10.2778 9 10C9 9.72223 9.09722 9.48612 9.29167 9.29168C9.48611 9.09723 9.72222 9.00001 10 9.00001C10.2778 9.00001 10.5139 9.09723 10.7083 9.29168C10.9028 9.48612 11 9.72223 11 10C11 10.2778 10.9028 10.5139 10.7083 10.7083C10.5139 10.9028 10.2778 11 10 11ZM10 5.33334C9.72222 5.33334 9.48611 5.23612 9.29167 5.04168C9.09722 4.84723 9 4.61112 9 4.33334C9 4.05557 9.09722 3.81945 9.29167 3.62501C9.48611 3.43057 9.72222 3.33334 10 3.33334C10.2778 3.33334 10.5139 3.43057 10.7083 3.62501C10.9028 3.81945 11 4.05557 11 4.33334C11 4.61112 10.9028 4.84723 10.7083 5.04168C10.5139 5.23612 10.2778 5.33334 10 5.33334V5.33334Z" fill="currentColor"/>
</svg>
