<svg width="10" height="6" viewBox="0 0 10 6" fill="none" xmlns="http://www.w3.org/2000/svg">
<path d="M0.458231 5.35449C0.333231 5.22949 0.267258 5.08366 0.260314 4.91699C0.253369 4.75033 0.312397 4.60449 0.437397 4.47949L4.5624 0.354492C4.63184 0.285047 4.70129 0.236436 4.77073 0.208658C4.84018 0.18088 4.91656 0.166992 4.9999 0.166992C5.08323 0.166992 5.15962 0.18088 5.22906 0.208658C5.29851 0.236436 5.36795 0.285047 5.4374 0.354492L9.5624 4.45866C9.6874 4.56977 9.7499 4.71213 9.7499 4.88574C9.7499 5.05935 9.6874 5.20866 9.5624 5.33366C9.4374 5.45866 9.28809 5.52116 9.11448 5.52116C8.94087 5.52116 8.79156 5.45866 8.66656 5.33366L4.9999 1.68783L1.33323 5.37533C1.22212 5.50033 1.07976 5.55935 0.906147 5.55241C0.732536 5.54546 0.583231 5.47949 0.458231 5.35449Z" fill="white"/>
</svg>
