<svg width="10" height="6" viewBox="0 0 10 6" fill="none" xmlns="http://www.w3.org/2000/svg">
<path d="M4.99988 5.56234C4.91655 5.56234 4.84016 5.54845 4.77071 5.52068C4.70127 5.4929 4.63182 5.44429 4.56238 5.37484L0.43738 1.24984C0.326269 1.13873 0.274186 0.989428 0.28113 0.801928C0.288075 0.614428 0.347103 0.465122 0.458214 0.354011C0.597103 0.215122 0.746408 0.156094 0.90613 0.176928C1.06585 0.197761 1.20821 0.263733 1.33321 0.374844L4.99988 4.04151L8.66655 0.374844C8.77766 0.263733 8.92696 0.201233 9.11446 0.187344C9.30196 0.173455 9.45127 0.235956 9.56238 0.374844C9.70127 0.485956 9.7603 0.631789 9.73946 0.812344C9.71863 0.9929 9.65266 1.14568 9.54155 1.27068L5.43738 5.37484C5.36794 5.44429 5.29849 5.4929 5.22905 5.52068C5.1596 5.54845 5.08321 5.56234 4.99988 5.56234Z" fill="white"/>
</svg>
