<svg width="18" height="18" viewBox="0 0 18 18" fill="none" xmlns="http://www.w3.org/2000/svg">
<path d="M3.62508 13.6878C4.50008 13.1323 5.36467 12.7121 6.21883 12.4274C7.073 12.1427 8.00008 12.0003 9.00008 12.0003C10.0001 12.0003 10.9306 12.1427 11.7917 12.4274C12.6529 12.7121 13.5209 13.1323 14.3959 13.6878C15.007 12.9378 15.4411 12.1809 15.698 11.417C15.9549 10.6531 16.0834 9.84755 16.0834 9.00033C16.0834 6.98644 15.4063 5.30241 14.0522 3.94824C12.698 2.59408 11.014 1.91699 9.00008 1.91699C6.98619 1.91699 5.30217 2.59408 3.948 3.94824C2.59383 5.30241 1.91675 6.98644 1.91675 9.00033C1.91675 9.84755 2.04869 10.6531 2.31258 11.417C2.57647 12.1809 3.01397 12.9378 3.62508 13.6878ZM9.00008 9.62533C8.19453 9.62533 7.51744 9.35102 6.96883 8.80241C6.42022 8.2538 6.14592 7.57671 6.14592 6.77116C6.14592 5.9656 6.42022 5.28852 6.96883 4.73991C7.51744 4.1913 8.19453 3.91699 9.00008 3.91699C9.80564 3.91699 10.4827 4.1913 11.0313 4.73991C11.5799 5.28852 11.8542 5.9656 11.8542 6.77116C11.8542 7.57671 11.5799 8.2538 11.0313 8.80241C10.4827 9.35102 9.80564 9.62533 9.00008 9.62533ZM9.00008 17.3337C7.83342 17.3337 6.74314 17.1149 5.72925 16.6774C4.71536 16.2399 3.83342 15.6427 3.08341 14.8857C2.33341 14.1288 1.74314 13.2434 1.31258 12.2295C0.882026 11.2156 0.666748 10.1323 0.666748 8.97949C0.666748 7.8406 0.885498 6.76421 1.323 5.75033C1.7605 4.73644 2.35772 3.85449 3.11466 3.10449C3.87161 2.35449 4.75703 1.76074 5.77092 1.32324C6.7848 0.885742 7.86814 0.666992 9.02092 0.666992C10.1598 0.666992 11.2362 0.885742 12.2501 1.32324C13.264 1.76074 14.1459 2.35449 14.8959 3.10449C15.6459 3.85449 16.2397 4.73644 16.6772 5.75033C17.1147 6.76421 17.3334 7.84755 17.3334 9.00033C17.3334 10.1392 17.1147 11.2156 16.6772 12.2295C16.2397 13.2434 15.6459 14.1288 14.8959 14.8857C14.1459 15.6427 13.264 16.2399 12.2501 16.6774C11.2362 17.1149 10.1529 17.3337 9.00008 17.3337Z" fill="#2898FF"/>
</svg>
