<svg width="32" height="32" viewBox="0 0 32 32" fill="none" xmlns="http://www.w3.org/2000/svg">
<path d="M2.33301 26.6666C2.04412 26.6666 1.80523 26.5721 1.61634 26.3833C1.42745 26.1944 1.33301 25.9555 1.33301 25.6666V21.3333C1.33301 20.6888 1.56079 20.1388 2.01634 19.6833C2.4719 19.2277 3.0219 18.9999 3.66634 18.9999H8.36634C8.74412 18.9999 9.10523 19.0944 9.44967 19.2833C9.79412 19.4721 10.0886 19.7333 10.333 20.0666C10.9775 20.9999 11.7997 21.7221 12.7997 22.2333C13.7997 22.7444 14.8663 22.9999 15.9997 22.9999C17.133 22.9999 18.1997 22.7444 19.1997 22.2333C20.1997 21.7221 21.033 20.9999 21.6997 20.0666C21.9441 19.7333 22.233 19.4721 22.5663 19.2833C22.8997 19.0944 23.2552 18.9999 23.633 18.9999H28.333C28.9775 18.9999 29.5275 19.2277 29.983 19.6833C30.4386 20.1388 30.6663 20.6888 30.6663 21.3333V25.6666C30.6663 25.9555 30.5719 26.1944 30.383 26.3833C30.1941 26.5721 29.9552 26.6666 29.6663 26.6666H22.9997C22.7108 26.6666 22.4719 26.5721 22.283 26.3833C22.0941 26.1944 21.9997 25.9555 21.9997 25.6666V22.6999C21.1997 23.4333 20.283 23.9999 19.2497 24.3999C18.2163 24.7999 17.133 24.9999 15.9997 24.9999C14.8663 24.9999 13.7886 24.7999 12.7663 24.3999C11.7441 23.9999 10.8219 23.4333 9.99967 22.6999V25.6666C9.99967 25.9555 9.90523 26.1944 9.71634 26.3833C9.52745 26.5721 9.28856 26.6666 8.99967 26.6666H2.33301ZM15.9997 20.9999C15.2219 20.9999 14.4719 20.8166 13.7497 20.4499C13.0275 20.0833 12.4441 19.5777 11.9997 18.9333C11.6441 18.4221 11.2163 18.011 10.7163 17.6999C10.2163 17.3888 9.67745 17.1777 9.09967 17.0666C9.74412 16.3999 10.7552 15.8888 12.133 15.5333C13.5108 15.1777 14.7997 14.9999 15.9997 14.9999C17.1997 14.9999 18.4941 15.1777 19.883 15.5333C21.2719 15.8888 22.2886 16.3999 22.933 17.0666C22.3552 17.1777 21.8163 17.3888 21.3163 17.6999C20.8163 18.011 20.3886 18.4221 20.033 18.9333C19.5886 19.5777 19.0052 20.0833 18.283 20.4499C17.5608 20.8166 16.7997 20.9999 15.9997 20.9999ZM5.33301 16.6666C4.31079 16.6666 3.44412 16.311 2.73301 15.5999C2.0219 14.8888 1.66634 14.0221 1.66634 12.9999C1.66634 11.9777 2.0219 11.111 2.73301 10.3999C3.44412 9.68881 4.31079 9.33325 5.33301 9.33325C6.35523 9.33325 7.2219 9.68881 7.93301 10.3999C8.64412 11.111 8.99967 11.9777 8.99967 12.9999C8.99967 14.0221 8.64412 14.8888 7.93301 15.5999C7.2219 16.311 6.35523 16.6666 5.33301 16.6666ZM26.6663 16.6666C25.6441 16.6666 24.7775 16.311 24.0663 15.5999C23.3552 14.8888 22.9997 14.0221 22.9997 12.9999C22.9997 11.9777 23.3552 11.111 24.0663 10.3999C24.7775 9.68881 25.6441 9.33325 26.6663 9.33325C27.6886 9.33325 28.5552 9.68881 29.2663 10.3999C29.9775 11.111 30.333 11.9777 30.333 12.9999C30.333 14.0221 29.9775 14.8888 29.2663 15.5999C28.5552 16.311 27.6886 16.6666 26.6663 16.6666ZM15.9997 12.6666C14.9775 12.6666 14.1108 12.311 13.3997 11.5999C12.6886 10.8888 12.333 10.0221 12.333 8.99992C12.333 7.9777 12.6886 7.11103 13.3997 6.39992C14.1108 5.68881 14.9775 5.33325 15.9997 5.33325C17.0219 5.33325 17.8886 5.68881 18.5997 6.39992C19.3108 7.11103 19.6663 7.9777 19.6663 8.99992C19.6663 10.0221 19.3108 10.8888 18.5997 11.5999C17.8886 12.311 17.0219 12.6666 15.9997 12.6666Z" fill="#A8A8A8"/>
</svg>
