<svg width="32" height="32" viewBox="0 0 32 32" fill="currentColor" xmlns="http://www.w3.org/2000/svg">
<path d="M6.81836 25.3334C5.99803 25.3334 5.33301 24.6684 5.33301 23.8481C5.33301 23.5147 5.44516 23.191 5.65141 22.9291L7.70428 20.3223C7.982 19.9696 8.13301 19.5338 8.13301 19.0849V13.1334C8.13301 11.2667 8.68301 9.60564 9.78301 8.15008C10.883 6.69453 12.333 5.77786 14.133 5.40008V4.43341C14.133 3.9223 14.3163 3.50008 14.683 3.16675C15.0497 2.83341 15.4886 2.66675 15.9997 2.66675C16.5108 2.66675 16.9497 2.83341 17.3163 3.16675C17.683 3.50008 17.8663 3.9223 17.8663 4.43341V5.40008C19.6663 5.77786 21.1219 6.69453 22.233 8.15008C23.3441 9.60564 23.8997 11.2667 23.8997 13.1334V19.0914C23.8997 19.5363 24.048 19.9685 24.3212 20.3196L26.3525 22.9301C26.5559 23.1915 26.6663 23.5132 26.6663 23.8445C26.6663 24.6668 25.9997 25.3334 25.1774 25.3334H6.81836ZM15.9997 29.3334C15.2886 29.3334 14.6663 29.0723 14.133 28.5501C13.5997 28.0279 13.333 27.4001 13.333 26.6667H18.6663C18.6663 27.4001 18.4052 28.0279 17.883 28.5501C17.3608 29.0723 16.733 29.3334 15.9997 29.3334Z" fill="#A8A8A8"/>
</svg>
