<svg width="64" height="64" viewBox="0 0 64 64" fill="currentColor" xmlns="http://www.w3.org/2000/svg">
<path d="M32 0C14.33 0 0 14.33 0 32C0 49.67 14.33 64 32 64C49.67 64 64 49.67 64 32C64 14.33 49.67 0 32 0ZM32 18C35.87 18 39 21.13 39 25C39 28.87 35.87 32 32 32C28.13 32 25 28.87 25 25C25 21.13 28.13 18 32 18ZM46 44C46 45.1 45.1 46 44 46H20C18.9 46 18 45.1 18 44V39C18 34.8 21.23 31.37 25.34 31.03C26.99 32.85 29.36 34 32 34C34.64 34 37.01 32.85 38.66 31.03C42.77 31.37 46 34.8 46 39V44Z" fill="#FCC953"/>
<path d="M38.66 31.0312C37.01 32.8513 34.64 34.0012 32 34.0012C29.36 34.0012 26.99 32.8513 25.34 31.0312C21.23 31.3713 18 34.8012 18 39.0012V44.0012C18 45.1012 18.9 46.0012 20 46.0012H44C45.1 46.0012 46 45.1012 46 44.0012V39.0012C46 34.8012 42.77 31.3713 38.66 31.0312Z" fill="white"/>
<path d="M32 32C35.866 32 39 28.866 39 25C39 21.134 35.866 18 32 18C28.134 18 25 21.134 25 25C25 28.866 28.134 32 32 32Z" fill="white"/>
</svg>
