<svg width="24" height="24" viewBox="0 0 24 24" fill="currentColor" xmlns="http://www.w3.org/2000/svg">
<path d="M5.55 17.625C6.6 16.9583 7.6375 16.4542 8.6625 16.1125C9.6875 15.7708 10.8 15.6 12 15.6C13.2 15.6 14.3167 15.7708 15.35 16.1125C16.3833 16.4542 17.425 16.9583 18.475 17.625C19.2083 16.725 19.7292 15.8167 20.0375 14.9C20.3458 13.9833 20.5 13.0167 20.5 12C20.5 9.58333 19.6875 7.5625 18.0625 5.9375C16.4375 4.3125 14.4167 3.5 12 3.5C9.58333 3.5 7.5625 4.3125 5.9375 5.9375C4.3125 7.5625 3.5 9.58333 3.5 12C3.5 13.0167 3.65833 13.9833 3.975 14.9C4.29167 15.8167 4.81667 16.725 5.55 17.625ZM12 12.75C11.0333 12.75 10.2208 12.4208 9.5625 11.7625C8.90417 11.1042 8.575 10.2917 8.575 9.325C8.575 8.35833 8.90417 7.54583 9.5625 6.8875C10.2208 6.22917 11.0333 5.9 12 5.9C12.9667 5.9 13.7792 6.22917 14.4375 6.8875C15.0958 7.54583 15.425 8.35833 15.425 9.325C15.425 10.2917 15.0958 11.1042 14.4375 11.7625C13.7792 12.4208 12.9667 12.75 12 12.75ZM12 22C10.6 22 9.29167 21.7375 8.075 21.2125C6.85833 20.6875 5.8 19.9708 4.9 19.0625C4 18.1542 3.29167 17.0917 2.775 15.875C2.25833 14.6583 2 13.3583 2 11.975C2 10.6083 2.2625 9.31667 2.7875 8.1C3.3125 6.88333 4.02917 5.825 4.9375 4.925C5.84583 4.025 6.90833 3.3125 8.125 2.7875C9.34167 2.2625 10.6417 2 12.025 2C13.3917 2 14.6833 2.2625 15.9 2.7875C17.1167 3.3125 18.175 4.025 19.075 4.925C19.975 5.825 20.6875 6.88333 21.2125 8.1C21.7375 9.31667 22 10.6167 22 12C22 13.3667 21.7375 14.6583 21.2125 15.875C20.6875 17.0917 19.975 18.1542 19.075 19.0625C18.175 19.9708 17.1167 20.6875 15.9 21.2125C14.6833 21.7375 13.3833 22 12 22Z" fill="currentColor"/>
</svg>
