<svg width="40" height="40" viewBox="0 0 40 40" fill="currentColor" xmlns="http://www.w3.org/2000/svg">
<path d="M20 38.3333L15 33.3333H6.5C5.83333 33.3333 5.25 33.0764 4.75 32.5625C4.25 32.0486 4 31.4722 4 30.8333V5.83331C4 5.16665 4.25 4.58331 4.75 4.08331C5.25 3.58331 5.83333 3.33331 6.5 3.33331H33.5C34.1389 3.33331 34.7153 3.58331 35.2292 4.08331C35.7431 4.58331 36 5.16665 36 5.83331V30.8333C36 31.4722 35.7431 32.0486 35.2292 32.5625C34.7153 33.0764 34.1389 33.3333 33.5 33.3333H25L20 38.3333ZM20.875 21.4166C20.875 20.5555 21.0139 19.8541 21.2917 19.3125C21.5694 18.7708 22.0556 18.1528 22.75 17.4583C23.6667 16.5416 24.3056 15.7291 24.6667 15.0208C25.0278 14.3125 25.2083 13.5694 25.2083 12.7916C25.2083 11.3194 24.7361 10.1528 23.7917 9.29165C22.8472 8.43053 21.5694 7.99998 19.9583 7.99998C18.5417 7.99998 17.3264 8.34026 16.3125 9.02081C15.2986 9.70137 14.5556 10.6389 14.0833 11.8333L16.2917 12.75C16.6806 11.9722 17.1806 11.3819 17.7917 10.9791C18.4028 10.5764 19.125 10.375 19.9583 10.375C20.8472 10.375 21.5486 10.5972 22.0625 11.0416C22.5764 11.4861 22.8333 12.0972 22.8333 12.875C22.8333 13.4305 22.6806 13.9653 22.375 14.4791C22.0694 14.993 21.5556 15.5972 20.8333 16.2916C19.8056 17.2639 19.1597 18.0972 18.8958 18.7916C18.6319 19.4861 18.5 20.3611 18.5 21.4166H20.875ZM19.875 27.5833C20.3194 27.5833 20.6944 27.4305 21 27.125C21.3056 26.8194 21.4583 26.4444 21.4583 26C21.4583 25.5555 21.3056 25.1805 21 24.875C20.6944 24.5694 20.3194 24.4166 19.875 24.4166C19.4306 24.4166 19.0556 24.5694 18.75 24.875C18.4444 25.1805 18.2917 25.5555 18.2917 26C18.2917 26.4444 18.4444 26.8194 18.75 27.125C19.0556 27.4305 19.4306 27.5833 19.875 27.5833Z" fill="currentColor"/>
</svg>
