<svg width="64" height="64" viewBox="0 0 64 64" fill="currentColor" xmlns="http://www.w3.org/2000/svg">
<circle cx="32" cy="32" r="32" fill="#FCC953"/>
<path d="M44 39.9993H24C23.6464 39.9993 23.3072 40.1398 23.0572 40.3899C22.8071 40.6399 22.6667 40.9791 22.6667 41.3327C22.6667 41.6863 22.8071 42.0254 23.0572 42.2755C23.3072 42.5255 23.6464 42.666 24 42.666H44V45.3327H24C22.9391 45.3327 21.9217 44.9113 21.1716 44.1611C20.4214 43.411 20 42.3935 20 41.3327V21.3327C20 20.6254 20.281 19.9472 20.781 19.4471C21.2811 18.947 21.9594 18.666 22.6667 18.666H44V39.9993ZM37.3333 27.9993V25.3327H26.6667V27.9993H37.3333Z" fill="white"/>
</svg>
