<svg width="40" height="40" viewBox="0 0 40 40" fill="currentColor" xmlns="http://www.w3.org/2000/svg">
<path d="M16.1667 36.6666L15.3334 31.4166C14.8056 31.2222 14.25 30.9583 13.6667 30.625C13.0834 30.2916 12.5695 29.9444 12.125 29.5833L7.20837 31.8333L3.33337 25L7.83337 21.7083C7.77782 21.4583 7.7431 21.1736 7.72921 20.8541C7.71532 20.5347 7.70837 20.25 7.70837 20C7.70837 19.75 7.71532 19.4653 7.72921 19.1458C7.7431 18.8264 7.77782 18.5416 7.83337 18.2916L3.33337 15L7.20837 8.16665L12.125 10.4166C12.5695 10.0555 13.0834 9.70831 13.6667 9.37498C14.25 9.04165 14.8056 8.79165 15.3334 8.62498L16.1667 3.33331H23.8334L24.6667 8.58331C25.1945 8.77776 25.757 9.0347 26.3542 9.35415C26.9514 9.67359 27.4584 10.0278 27.875 10.4166L32.7917 8.16665L36.6667 15L32.1667 18.2083C32.2223 18.4861 32.257 18.7847 32.2709 19.1041C32.2848 19.4236 32.2917 19.7222 32.2917 20C32.2917 20.2778 32.2848 20.5694 32.2709 20.875C32.257 21.1805 32.2223 21.4722 32.1667 21.75L36.6667 25L32.7917 31.8333L27.875 29.5833C27.4306 29.9444 26.9237 30.2986 26.3542 30.6458C25.7848 30.993 25.2223 31.25 24.6667 31.4166L23.8334 36.6666H16.1667ZM20 25.4166C21.5 25.4166 22.7778 24.8889 23.8334 23.8333C24.8889 22.7778 25.4167 21.5 25.4167 20C25.4167 18.5 24.8889 17.2222 23.8334 16.1666C22.7778 15.1111 21.5 14.5833 20 14.5833C18.5 14.5833 17.2223 15.1111 16.1667 16.1666C15.1112 17.2222 14.5834 18.5 14.5834 20C14.5834 21.5 15.1112 22.7778 16.1667 23.8333C17.2223 24.8889 18.5 25.4166 20 25.4166Z" fill="currentColor"/>
</svg>
