<svg width="16" height="16" viewBox="0 0 16 16" fill="currentColor" xmlns="http://www.w3.org/2000/svg">
<path d="M4.08922 15.3937C3.70279 15.6878 3.1662 15.3139 3.30827 14.8495L4.68659 10.3441C4.74942 10.1387 4.67407 9.91613 4.49939 9.79116L0.933989 7.2403C0.53855 6.95739 0.738697 6.33366 1.22492 6.33366H5.62807C5.84887 6.33366 6.04353 6.18882 6.10698 5.97733L7.52117 1.26337C7.6637 0.788268 8.33646 0.788268 8.47899 1.26337L9.89318 5.97733C9.95663 6.18882 10.1513 6.33366 10.3721 6.33366H14.7752C15.2615 6.33366 15.4616 6.95739 15.0662 7.2403L11.5008 9.79116C11.3261 9.91613 11.2507 10.1387 11.3136 10.3441L12.6919 14.8495C12.834 15.3139 12.2974 15.6878 11.9109 15.3937L8.30291 12.6475C8.12399 12.5113 7.87617 12.5113 7.69725 12.6475L4.08922 15.3937Z" fill="#2898FF"/>
</svg>
