<svg width="64" height="64" viewBox="0 0 64 64" fill="currentColor" xmlns="http://www.w3.org/2000/svg">
<circle cx="32" cy="32" r="32" fill="#FCC953"/>
<mask id="mask0_1727_61408" style="mask-type:alpha" maskUnits="userSpaceOnUse" x="16" y="16" width="32" height="32">
<rect x="16" y="16" width="32" height="32" fill="#D9D9D9"/>
</mask>
<g mask="url(#mask0_1727_61408)">
<path d="M38.6 36.0208L43.6667 31.8554L45.2279 31.9805C46.1205 32.052 46.4764 33.1704 45.7893 33.7446L41.8 37.0782L42.9911 42.0765C43.1951 42.9325 42.2737 43.6157 41.5139 43.1717L40.1333 42.3651L38.6 36.0208ZM35.4667 26.6647L34.0667 23.5246L34.6893 22.0934C35.037 21.2941 36.1695 21.2913 36.5212 22.0887L38.6667 26.953L35.4667 26.6647ZM24.1203 43.1802C23.3594 43.6213 22.4406 42.9362 22.6464 42.0811L24.2667 35.3479L18.8742 30.8539C18.187 30.2813 18.5398 29.1636 19.4312 29.0892L26.6 28.491L29.4179 22.082C29.7682 21.2853 30.8985 21.2853 31.2488 22.082L34.0667 28.491L41.2355 29.0892C42.1268 29.1636 42.4796 30.2813 41.7925 30.8539L36.4 35.3479L38.0203 42.0811C38.2261 42.9362 37.3072 43.6213 36.5464 43.1802L30.3333 39.5774L24.1203 43.1802Z" fill="white"/>
</g>
</svg>
