<svg width="12" height="12" viewBox="0 0 12 12" fill="none" xmlns="http://www.w3.org/2000/svg">
<path fill-rule="evenodd" clip-rule="evenodd" d="M6.7999 2.9502C6.7999 2.53598 6.46411 2.2002 6.0499 2.2002C5.63568 2.2002 5.2999 2.53598 5.2999 2.9502V4.65094L3.82532 3.79959C3.4666 3.59249 3.00791 3.71539 2.8008 4.07411C2.59369 4.43283 2.7166 4.89153 3.07532 5.09863L4.54941 5.9497L3.07735 6.79959C2.71863 7.0067 2.59572 7.46539 2.80283 7.82411C3.00993 8.18283 3.46863 8.30574 3.82735 8.09863L5.2999 7.24846V8.9502C5.2999 9.36441 5.63568 9.7002 6.0499 9.7002C6.46411 9.7002 6.7999 9.36441 6.7999 8.9502V7.24902L8.27147 8.09863C8.63019 8.30574 9.08889 8.18283 9.29599 7.82411C9.5031 7.46539 9.38019 7.0067 9.02147 6.79959L7.54941 5.9497L9.0235 5.09863C9.38222 4.89153 9.50513 4.43283 9.29802 4.07411C9.09091 3.71539 8.63222 3.59249 8.2735 3.79959L6.7999 4.65038V2.9502Z" fill="#FB5C30"/>
</svg>
