<svg width="44" height="20" viewBox="0 0 44 20" fill="currentColor" xmlns="http://www.w3.org/2000/svg">
<rect x="0.5" y="0.5" width="43" height="19" rx="9.5" fill="currentColor" stroke="#7EB9FE"/>
<path d="M9.279 5.31V5.706C9.279 6.894 7.75 7.983 5.902 8.225L6.276 9.028C7.827 8.797 9.18 8.038 9.796 6.971C10.423 8.027 11.776 8.797 13.305 9.028L13.69 8.225C11.853 7.983 10.302 6.872 10.302 5.706V5.31H9.279ZM5.407 10.546H14.185V9.732H5.407V10.546ZM6.452 13.109C6.452 14.22 7.695 14.836 9.785 14.836C11.864 14.836 13.118 14.22 13.118 13.109C13.118 11.998 11.864 11.371 9.785 11.371C7.695 11.371 6.452 11.998 6.452 13.109ZM7.464 13.109C7.464 12.504 8.322 12.152 9.785 12.152C11.237 12.152 12.084 12.504 12.084 13.109C12.084 13.725 11.237 14.066 9.785 14.066C8.322 14.066 7.464 13.725 7.464 13.109ZM21.9843 5.145V12.207H22.9963V5.145H21.9843ZM15.2303 8.214C15.2303 9.622 16.3303 10.623 17.7823 10.623C19.2453 10.623 20.3453 9.622 20.3453 8.214C20.3453 6.806 19.2453 5.805 17.7823 5.805C16.3303 5.805 15.2303 6.806 15.2303 8.214ZM16.2203 8.214C16.2203 7.301 16.8913 6.685 17.7823 6.685C18.6843 6.685 19.3553 7.301 19.3553 8.214C19.3553 9.127 18.6843 9.743 17.7823 9.743C16.8913 9.743 16.2203 9.127 16.2203 8.214ZM16.7263 14.649H23.2933V13.813H17.7273V11.492H16.7263V14.649Z" fill="currentColor"/>
<g filter="url(#filter0_d_275_4184)">
<rect x="27" y="3" width="14" height="14" rx="7" fill="currentColor"/>
</g>
<rect x="29.5" y="5.5" width="9" height="9" rx="4.5" stroke="white"/>
<defs>
<filter id="filter0_d_275_4184" x="26" y="2" width="16" height="16" filterUnits="userSpaceOnUse" color-interpolation-filters="sRGB">
<feFlood flood-opacity="0" result="BackgroundImageFix"/>
<feColorMatrix in="SourceAlpha" type="matrix" values="0 0 0 0 0 0 0 0 0 0 0 0 0 0 0 0 0 0 127 0" result="hardAlpha"/>
<feOffset/>
<feGaussianBlur stdDeviation="0.5"/>
<feComposite in2="hardAlpha" operator="out"/>
<feColorMatrix type="matrix" values="0 0 0 0 0 0 0 0 0 0 0 0 0 0 0 0 0 0 0.2 0"/>
<feBlend mode="normal" in2="BackgroundImageFix" result="effect1_dropShadow_275_4184"/>
<feBlend mode="normal" in="SourceGraphic" in2="effect1_dropShadow_275_4184" result="shape"/>
</filter>
</defs>
</svg>
