<svg width="20" height="20" viewBox="0 0 20 20" fill="none" xmlns="http://www.w3.org/2000/svg">
<path d="M5.45823 12.354C5.33323 12.229 5.26726 12.0832 5.26031 11.9165C5.25337 11.7498 5.3124 11.604 5.4374 11.479L9.5624 7.354C9.63184 7.28456 9.70129 7.23595 9.77073 7.20817C9.84018 7.18039 9.91656 7.1665 9.9999 7.1665C10.0832 7.1665 10.1596 7.18039 10.2291 7.20817C10.2985 7.23595 10.368 7.28456 10.4374 7.354L14.5624 11.4582C14.6874 11.5693 14.7499 11.7116 14.7499 11.8853C14.7499 12.0589 14.6874 12.2082 14.5624 12.3332C14.4374 12.4582 14.2881 12.5207 14.1145 12.5207C13.9409 12.5207 13.7916 12.4582 13.6666 12.3332L9.9999 8.68734L6.33323 12.3748C6.22212 12.4998 6.07976 12.5589 5.90615 12.5519C5.73254 12.545 5.58323 12.479 5.45823 12.354Z" fill="#383838"/>
</svg>
