<svg width="20" height="20" viewBox="0 0 20 20" fill="currentColor" xmlns="http://www.w3.org/2000/svg">
<path d="M9.99998 13.125C10.9861 13.125 11.8229 12.7813 12.5104 12.0938C13.1979 11.4063 13.5416 10.5695 13.5416 9.58334C13.5416 8.59723 13.1979 7.76043 12.5104 7.07293C11.8229 6.38543 10.9861 6.04168 9.99998 6.04168C9.01387 6.04168 8.17706 6.38543 7.48956 7.07293C6.80206 7.76043 6.45831 8.59723 6.45831 9.58334C6.45831 10.5695 6.80206 11.4063 7.48956 12.0938C8.17706 12.7813 9.01387 13.125 9.99998 13.125ZM9.99998 11.9167C9.3472 11.9167 8.79512 11.691 8.34373 11.2396C7.89234 10.7882 7.66665 10.2361 7.66665 9.58334C7.66665 8.93057 7.89234 8.37848 8.34373 7.92709C8.79512 7.4757 9.3472 7.25001 9.99998 7.25001C10.6528 7.25001 11.2048 7.4757 11.6562 7.92709C12.1076 8.37848 12.3333 8.93057 12.3333 9.58334C12.3333 10.2361 12.1076 10.7882 11.6562 11.2396C11.2048 11.691 10.6528 11.9167 9.99998 11.9167ZM9.99998 15.8333C7.9722 15.8333 6.13887 15.257 4.49998 14.1042C2.86109 12.9514 1.63887 11.4445 0.833313 9.58334C1.63887 7.72223 2.86109 6.21529 4.49998 5.06251C6.13887 3.90973 7.9722 3.33334 9.99998 3.33334C12.0278 3.33334 13.8611 3.90973 15.5 5.06251C17.1389 6.21529 18.3611 7.72223 19.1666 9.58334C18.3611 11.4445 17.1389 12.9514 15.5 14.1042C13.8611 15.257 12.0278 15.8333 9.99998 15.8333ZM9.99998 14.5833C11.6805 14.5833 13.2257 14.1285 14.6354 13.2188C16.0451 12.309 17.118 11.0972 17.8541 9.58334C17.118 8.06945 16.0451 6.85765 14.6354 5.94793C13.2257 5.0382 11.6805 4.58334 9.99998 4.58334C8.31942 4.58334 6.77429 5.0382 5.36456 5.94793C3.95484 6.85765 2.87498 8.06945 2.12498 9.58334C2.87498 11.0972 3.95484 12.309 5.36456 13.2188C6.77429 14.1285 8.31942 14.5833 9.99998 14.5833Z" fill="currentColor"/>
<circle cx="10" cy="10" r="3" fill="currentColor"/>
<circle cx="11.25" cy="8.25" r="1.25" fill="currentColor"/>
</svg>
