<svg width="20" height="20" viewBox="0 0 20 20" fill="currentColor" xmlns="http://www.w3.org/2000/svg">
<path d="M13.1041 11.2708L12.1875 10.3542C12.5486 9.36805 12.3611 8.5486 11.625 7.89582C10.8889 7.24305 10.0903 7.07638 9.22915 7.39582L8.31248 6.47916C8.54859 6.32638 8.81248 6.21527 9.10415 6.14582C9.39581 6.07638 9.69442 6.04166 9.99998 6.04166C10.9861 6.04166 11.8229 6.38541 12.5104 7.07291C13.1979 7.76041 13.5416 8.59721 13.5416 9.58332C13.5416 9.88888 13.5035 10.191 13.4271 10.4896C13.3507 10.7882 13.243 11.0486 13.1041 11.2708ZM15.7916 13.9583L14.9583 13.125C15.6389 12.625 16.2326 12.066 16.7396 11.4479C17.2465 10.8299 17.618 10.2083 17.8541 9.58332C17.1597 8.04166 16.118 6.82291 14.7291 5.92707C13.3403 5.03124 11.8333 4.58332 10.2083 4.58332C9.62498 4.58332 9.02776 4.63888 8.41665 4.74999C7.80554 4.8611 7.32637 4.99305 6.97915 5.14582L6.02081 4.16666C6.50692 3.94443 7.12845 3.74999 7.8854 3.58332C8.64234 3.41666 9.38192 3.33332 10.1041 3.33332C12.0903 3.33332 13.9062 3.8993 15.5521 5.03124C17.1979 6.16318 18.4028 7.68055 19.1666 9.58332C18.8055 10.4722 18.3403 11.2847 17.7708 12.0208C17.2014 12.7569 16.5416 13.4028 15.7916 13.9583ZM17 18.6667L13.5 15.2292C13.0139 15.4236 12.4653 15.5729 11.8541 15.6771C11.243 15.7812 10.625 15.8333 9.99998 15.8333C7.9722 15.8333 6.13192 15.2674 4.47915 14.1354C2.82637 13.0035 1.61109 11.4861 0.833313 9.58332C1.11109 8.8611 1.49651 8.15624 1.98956 7.46874C2.48262 6.78124 3.08331 6.12499 3.79165 5.49999L1.16665 2.87499L2.04165 1.97916L17.8125 17.75L17 18.6667ZM4.64581 6.37499C4.13192 6.74999 3.6354 7.24305 3.15623 7.85416C2.67706 8.46527 2.33331 9.04166 2.12498 9.58332C2.83331 11.125 3.89929 12.3437 5.3229 13.2396C6.74651 14.1354 8.36109 14.5833 10.1666 14.5833C10.625 14.5833 11.0764 14.5555 11.5208 14.5C11.9653 14.4444 12.2986 14.3611 12.5208 14.25L11.1875 12.9167C11.0347 12.9861 10.8472 13.0382 10.625 13.0729C10.4028 13.1076 10.1944 13.125 9.99998 13.125C9.02776 13.125 8.19442 12.7847 7.49998 12.1042C6.80554 11.4236 6.45831 10.5833 6.45831 9.58332C6.45831 9.37499 6.47567 9.16666 6.5104 8.95832C6.54512 8.74999 6.5972 8.56249 6.66665 8.39582L4.64581 6.37499Z" fill="currentColor"/>
</svg>
