<svg width="40" height="40" viewBox="0 0 40 40" fill="currentColor" xmlns="http://www.w3.org/2000/svg">
<g clip-path="url(#clip0_114_683)">
<path d="M11.1365 16.7966C11.1318 16.3554 10.9544 15.9336 10.6425 15.6216C10.3305 15.3096 9.90867 15.1322 9.46747 15.1276H6.66747C6.22483 15.1276 5.80031 15.3034 5.48731 15.6164C5.17431 15.9294 4.99847 16.3539 4.99847 16.7966C4.99847 17.2392 5.17431 17.6637 5.48731 17.9767C5.80031 18.2897 6.22483 18.4656 6.66747 18.4656H9.44247C9.66349 18.4679 9.8828 18.4266 10.0878 18.3438C10.2927 18.2611 10.4793 18.1387 10.6368 17.9835C10.7942 17.8284 10.9194 17.6437 11.0052 17.44C11.0909 17.2363 11.1356 17.0176 11.1365 16.7966Z" fill="currentColor"/>
<path d="M10.572 11.8136C10.8972 11.8137 11.2152 11.7173 11.4857 11.5367C11.7562 11.356 11.9671 11.0992 12.0916 10.7987C12.2162 10.4983 12.2488 10.1676 12.1854 9.84855C12.122 9.52951 11.9654 9.23644 11.7355 9.00641C11.5055 8.77637 11.2125 8.6197 10.8935 8.5562C10.5745 8.49271 10.2438 8.52525 9.94326 8.6497C9.64274 8.77415 9.38587 8.98493 9.20515 9.25538C9.02443 9.52583 8.92797 9.8438 8.92797 10.1691C8.92383 10.3861 8.96352 10.6018 9.04466 10.8031C9.12581 11.0045 9.24674 11.1874 9.40023 11.3409C9.55371 11.4945 9.7366 11.6155 9.93793 11.6967C10.1393 11.7779 10.3549 11.8176 10.572 11.8136Z" fill="currentColor"/>
<path d="M12.2655 28.4556H11.0155C10.5728 28.4556 10.1483 28.6314 9.83533 28.9444C9.52234 29.2574 9.3465 29.6819 9.3465 30.1246C9.3465 30.5672 9.52234 30.9917 9.83533 31.3047C10.1483 31.6177 10.5728 31.7936 11.0155 31.7936H12.2655C12.7081 31.7936 13.1327 31.6177 13.4457 31.3047C13.7587 30.9917 13.9345 30.5672 13.9345 30.1246C13.9345 29.6819 13.7587 29.2574 13.4457 28.9444C13.1327 28.6314 12.7081 28.4556 12.2655 28.4556Z" fill="currentColor"/>
<path d="M33.79 8.50006H16.3155C15.9039 8.49951 15.5054 8.64489 15.1909 8.91036C14.8764 9.17584 14.6661 9.54422 14.5975 9.95006C14.5687 10.183 14.5897 10.4195 14.659 10.6438C14.7283 10.8681 14.8444 11.0751 14.9997 11.2512C15.1549 11.4273 15.3457 11.5685 15.5595 11.6654C15.7733 11.7624 16.0052 11.8129 16.24 11.8136H18.94C19.3826 11.8103 19.8085 11.983 20.1237 12.2937C20.439 12.6044 20.618 13.0277 20.6213 13.4703C20.6245 13.913 20.4518 14.3388 20.1411 14.6541C19.8304 14.9694 19.4071 15.1483 18.9645 15.1516H14.3745C13.9333 15.1562 13.5115 15.3336 13.1995 15.6456C12.8875 15.9576 12.7102 16.3794 12.7055 16.8206C12.7016 16.871 12.71 16.9216 12.73 16.9681C12.7672 17.3609 12.9434 17.7276 13.2269 18.0022C13.5105 18.2767 13.8826 18.441 14.2765 18.4656H16.584C16.9587 18.5075 17.3079 18.676 17.5739 18.9432C17.8398 19.2105 18.0066 19.5605 18.0467 19.9354C18.0867 20.3103 17.9976 20.6877 17.7941 21.0051C17.5906 21.3225 17.2849 21.561 16.9275 21.6811C16.7611 21.7379 16.5876 21.7716 16.412 21.7811H12.5845C12.1472 21.7908 11.7309 21.9705 11.4238 22.2821C11.1168 22.5937 10.9433 23.0126 10.94 23.4501C10.94 23.5501 10.9645 23.6711 10.9645 23.7691C11.0384 24.1415 11.2364 24.4778 11.5262 24.723C11.8161 24.9682 12.1805 25.1079 12.56 25.1191H17.74C17.84 25.1191 17.9365 25.1436 18.0345 25.1436C18.4063 25.2144 18.7418 25.4123 18.9837 25.7034C19.2255 25.9945 19.3586 26.3606 19.36 26.7391V26.7636C19.3552 27.1666 19.1971 27.5528 18.918 27.8436C18.8636 27.906 18.7966 27.9562 18.7215 27.9911C18.4166 28.1852 18.0732 28.3107 17.715 28.3591C17.665 28.3591 17.615 28.3836 17.543 28.3836H17.443C17.3351 28.3882 17.2281 28.405 17.124 28.4336C16.7571 28.5189 16.4296 28.725 16.1939 29.0188C15.9581 29.3125 15.8279 29.6769 15.824 30.0536C15.8286 30.1695 15.8454 30.2846 15.874 30.3971C15.958 30.7668 16.163 31.0979 16.4564 31.338C16.7498 31.5781 17.115 31.7134 17.494 31.7226H33.8655C34.2951 31.7091 34.7031 31.5308 35.0047 31.2246C35.3063 30.9184 35.4785 30.5078 35.4855 30.0781V10.1936C35.4846 9.74436 35.3056 9.31384 34.9878 8.99639C34.6699 8.67894 34.2392 8.50046 33.79 8.50006Z" fill="currentColor"/>
<path d="M7.52798 21.8036C7.20273 21.8036 6.88479 21.9 6.61435 22.0807C6.34391 22.2614 6.13313 22.5182 6.00866 22.8187C5.8842 23.1192 5.85163 23.4499 5.91508 23.7689C5.97854 24.0879 6.13516 24.3809 6.36515 24.6109C6.59514 24.8409 6.88816 24.9975 7.20716 25.061C7.52616 25.1244 7.85681 25.0918 8.15731 24.9674C8.4578 24.8429 8.71464 24.6321 8.89534 24.3617C9.07604 24.0913 9.17248 23.7733 9.17248 23.4481C9.17248 23.0119 8.99923 22.5936 8.69082 22.2852C8.38242 21.9768 7.96413 21.8036 7.52798 21.8036Z" fill="currentColor"/>
</g>
<defs>
<clipPath id="clip0_114_683">
<rect width="30.486" height="23.294" fill="currentColor" transform="translate(5 8.50006)"/>
</clipPath>
</defs>
</svg>
