<?xml version="1.0" encoding="utf-8"?>
<!-- Generator: Adobe Illustrator 27.0.0, SVG Export Plug-In . SVG Version: 6.00 Build 0)  -->
<svg version="1.1" id="Layer_1" xmlns="http://www.w3.org/2000/svg" xmlns:xlink="http://www.w3.org/1999/xlink" x="0px" y="0px"
	 viewBox="0 0 333 96" style="enable-background:new 0 0 333 96;" xml:space="preserve">
<style type="text/css">
	.st0{fill:#FFFFFF;}
	.st1{fill:#C8C8C8;}
	.st2{fill:#EAEAEA;}
</style>
<g>
	<g>
		<path class="st0" d="M132.47,65.73l-11.5-35.46h6.86l8.53,27.29h-2.32l8.32-27.29h5.15l8.32,27.29h-2.27l8.53-27.29h6.76
			l-11.5,35.46h-5.15l-8.37-27.24h2.22l-8.37,27.24H132.47z"/>
		<path class="st0" d="M173.64,65.73V30.27h6.86v35.46H173.64z M178.68,36.32v-6.05h19.37v6.05H178.68z M178.68,50.6v-5.9h17.91v5.9
			H178.68z M178.68,65.73v-6.05h19.62v6.05H178.68z"/>
		<path class="st0" d="M215.41,65.73l-14.02-35.46h7.47l10.8,28.7h-2.88l10.9-28.7h7.32l-14.13,35.46H215.41z"/>
		<path class="st0" d="M239.62,65.73V30.27h6.86v35.46H239.62z M244.67,36.32v-6.05h19.37v6.05H244.67z M244.67,50.6v-5.9h17.91v5.9
			H244.67z M244.67,65.73v-6.05h19.62v6.05H244.67z"/>
		<path class="st0" d="M270.04,65.73V30.27h4.79l2.07,6.91v28.55H270.04z M294.56,65.73l-21.04-27.19l1.31-8.27l21.09,27.19
			L294.56,65.73z M294.56,65.73l-1.97-6.66V30.27h6.86v35.46H294.56z"/>
		<path class="st0" d="M304.19,36.37v-6.1h29.51v6.1H304.19z M315.49,65.73V31.02h6.91v34.71H315.49z"/>
	</g>
</g>
<g>
	<circle class="st1" cx="48" cy="48" r="45.92"/>
	<g>
		<g>
			<path class="st0" d="M48,33.77c2.75,0,4.97-2.23,4.97-4.97c0-2.75-2.23-4.97-4.97-4.97c-2.75,0-4.97,2.23-4.97,4.97
				C43.03,31.54,45.25,33.77,48,33.77z"/>
		</g>
		<g>
			<path class="st0" d="M52.6,41.15c-0.93-2.26-3.39-3.56-5.89-2.91c-1.57,0.41-2.79,1.65-3.4,3.14l-5.25,12.76l-1.42-3.44
				l-3.93-9.55c-1.05-2.54-3.95-3.75-6.49-2.71c-2.54,1.05-3.75,3.95-2.7,6.49l7.75,18.82l1.42,3.45l0.68,1.65
				c0.62,1.5,1.84,2.74,3.4,3.14c2.49,0.65,4.96-0.66,5.89-2.91L48,56.11l0,0l4.6-11.17C53.1,43.73,53.1,42.37,52.6,41.15z"/>
		</g>
		<g>
			<path class="st0" d="M69.78,38.45c-2.54-1.05-5.45,0.17-6.49,2.71l-5.35,12.99l-0.01-0.02l-5.38,13.06l0.79,1.92
				c0.77,1.86,2.58,3.08,4.6,3.08c2.02,0,3.83-1.22,4.6-3.08l9.94-24.16C73.53,42.4,72.32,39.49,69.78,38.45z"/>
		</g>
		<g>
			<polygon class="st2" points="54.8,46.5 49.42,59.56 52.56,67.18 57.94,54.12 			"/>
		</g>
	</g>
</g>
</svg>
