<svg width="20" height="10" viewBox="0 0 20 10" fill="none" xmlns="http://www.w3.org/2000/svg">
<g id="Group">
<path id="Vector" d="M6.25107 5C6.25107 5.41 6.59097 5.75 7.00086 5.75H11.9995C12.4094 5.75 12.7493 5.41 12.7493 5C12.7493 4.59 12.4094 4.25 11.9995 4.25H7.00086C6.59097 4.25 6.25107 4.59 6.25107 5Z" fill="currentColor"/>
<path id="Vector_2" d="M7.25082 8.5H5.00144C2.83204 8.5 1.11254 6.51 1.58241 4.27C1.91232 2.63 3.43185 1.5 5.10139 1.5H7.25082C7.6607 1.5 8.00061 1.16 8.00061 0.75C8.00061 0.34 7.6607 0 7.25082 0H5.2114C2.60213 0 0.272773 1.91 0.0228428 4.51C-0.257079 7.49 2.07225 10 5.00144 10H7.25082C7.6607 10 8.00061 9.66 8.00061 9.25C8.00061 8.84 7.6607 8.5 7.25082 8.5Z" fill="currentColor"/>
<path id="Vector_3" d="M19.9772 4.51C19.7273 1.91 17.398 0 14.7887 0H12.7493C12.3394 0 11.9995 0.34 11.9995 0.75C11.9995 1.16 12.3394 1.5 12.7493 1.5H14.8987C16.5682 1.5 18.0878 2.63 18.4177 4.27C18.8776 6.52 17.168 8.5 14.9986 8.5H12.7493C12.3394 8.5 11.9995 8.84 11.9995 9.25C11.9995 9.66 12.3394 10 12.7493 10H14.9986C17.9178 10 20.2572 7.49 19.9772 4.51Z" fill="currentColor"/>
</g>
</svg>
