<svg width="24" height="24" viewBox="0 0 24 24" fill="none" xmlns="http://www.w3.org/2000/svg">
<g id="color=bk">
<path id="Vector" d="M20.61 8.52L12.61 2.21C12.43 2.07 12.21 2 12 2C11.79 2 11.57 2.07 11.39 2.21L3.39001 8.52C3.15001 8.71 3 9.01 3 9.32V20.99C3 21.55 3.45 22 4 22H9.5C10.05 22 10.5 21.55 10.5 21V16C10.5 15.17 11.17 14.5 12 14.5C12.83 14.5 13.5 15.17 13.5 16V21C13.5 21.55 13.95 22 14.5 22H20C20.55 22 21 21.55 21 20.99V9.32C21 9.01 20.86 8.71 20.61 8.52ZM19.5 20.5H15V16C15 14.34 13.66 13 12 13C10.34 13 9 14.34 9 16V20.5H4.5V9.55L12 3.64L19.5 9.55V20.5Z" fill="currentColor"/>
</g>
</svg>
