<svg width="18" height="20" viewBox="0 0 18 20" fill="none" xmlns="http://www.w3.org/2000/svg">
<g id="Group">
<path id="Vector" d="M17.0795 3.998H14.0078V1.06946C14.0078 0.47976 13.5875 0 13.0773 0H0.930517C0.410228 0 0 0.47976 0 1.06946V14.9325C0 15.5222 0.420233 16.002 0.930517 16.002H4.00222V18.9305C4.00222 19.5202 4.42246 20 4.93274 20H17.0695C17.5898 20 18 19.5202 18 18.9305V5.06747C18 4.47776 17.5798 3.998 17.0695 3.998H17.0795ZM1.40078 14.3928V1.5992H12.607V14.3928H1.40078ZM16.6092 18.3908H5.403V15.992H13.0773C13.5976 15.992 14.0078 15.5122 14.0078 14.9225V5.5972H16.6092V18.3908Z" fill="currentColor"/>
</g>
</svg>
