<svg width="20" height="18" viewBox="0 0 20 18" fill="none" xmlns="http://www.w3.org/2000/svg">
<g id="Group">
<path id="Vector" d="M9.24519 7V11C9.24519 11.41 9.58519 11.75 9.99519 11.75C10.4052 11.75 10.7452 11.41 10.7452 11V7C10.7452 6.59 10.4052 6.25 9.99519 6.25C9.58519 6.25 9.24519 6.59 9.24519 7Z" fill="currentColor"/>
<path id="Vector_2" d="M10.5252 13.47C10.2452 13.19 9.74519 13.19 9.46519 13.47C9.39519 13.54 9.34519 13.62 9.30519 13.71C9.26519 13.81 9.24519 13.9 9.24519 14C9.24519 14.2 9.32519 14.39 9.46519 14.53C9.60519 14.67 9.79519 14.75 9.99519 14.75C10.1952 14.75 10.3852 14.67 10.5252 14.53C10.6652 14.39 10.7452 14.2 10.7452 14C10.7452 13.9 10.7252 13.81 10.6852 13.71C10.6552 13.62 10.5952 13.54 10.5252 13.47Z" fill="currentColor"/>
<path id="Vector_3" d="M19.8524 16.42L10.9348 0.549999C10.7348 0.189999 10.3649 0 9.995 0C9.6251 0 9.26519 0.179999 9.05524 0.549999L0.137596 16.42C-0.262299 17.13 0.257537 18 1.07732 18H18.9227C19.7424 18 20.2623 17.13 19.8624 16.42H19.8524ZM1.80714 16.5L9.995 1.94L18.1829 16.5H1.81715H1.80714Z" fill="currentColor"/>
</g>
</svg>
