<svg width="20" height="20" viewBox="0 0 20 20" fill="none" xmlns="http://www.w3.org/2000/svg">
<g id="Group">
<path id="Vector" d="M19 0H1C0.45 0 0 0.45 0 1V14C0 14.55 0.45 15 1 15H3V20L10.22 15H19C19.55 15 20 14.55 20 14V1C20 0.45 19.55 0 19 0ZM18.5 13.5H9.75L9.36 13.77L4.49 17.14V13.5H1.49V1.5H18.49V13.5H18.5Z" fill="currentColor"/>
<path id="Vector_2" d="M6 6.75H14C14.41 6.75 14.75 6.41 14.75 6C14.75 5.59 14.41 5.25 14 5.25H6C5.59 5.25 5.25 5.59 5.25 6C5.25 6.41 5.59 6.75 6 6.75Z" fill="currentColor"/>
<path id="Vector_3" d="M6 9.75H14C14.41 9.75 14.75 9.41 14.75 9C14.75 8.59 14.41 8.25 14 8.25H6C5.59 8.25 5.25 8.59 5.25 9C5.25 9.41 5.59 9.75 6 9.75Z" fill="currentColor"/>
</g>
</svg>
