<svg width="18" height="18" viewBox="0 0 18 18" fill="none" xmlns="http://www.w3.org/2000/svg">
<g id="Group">
<path id="Vector" d="M17 0H1C0.45 0 0 0.45 0 1V17C0 17.55 0.45 18 1 18H17C17.55 18 18 17.55 18 17V1C18 0.45 17.55 0 17 0ZM16.5 16.5H1.5V1.5H16.5V16.5Z" fill="currentColor"/>
<path id="Vector_2" d="M8 12.06L13.53 6.53C13.82 6.24 13.82 5.76 13.53 5.47C13.24 5.18 12.76 5.18 12.47 5.47L8 9.94L5.53 7.47C5.24 7.18 4.76 7.18 4.47 7.47C4.18 7.76 4.18 8.24 4.47 8.53L8 12.06Z" fill="currentColor"/>
</g>
</svg>
