<svg width="20" height="20" viewBox="0 0 20 20" fill="none" xmlns="http://www.w3.org/2000/svg">
<g id="Group">
<path id="Vector" d="M10 0C4.48 0 0 4.48 0 10C0 15.52 4.48 20 10 20C15.52 20 20 15.52 20 10C20 4.48 15.52 0 10 0ZM10 18.5C5.31 18.5 1.5 14.69 1.5 10C1.5 5.31 5.31 1.5 10 1.5C14.69 1.5 18.5 5.31 18.5 10C18.5 14.69 14.69 18.5 10 18.5Z" fill="currentColor"/>
<path id="Vector_2" d="M14 9.25H10.75V5C10.75 4.59 10.41 4.25 10 4.25C9.59 4.25 9.25 4.59 9.25 5V10.75H14C14.41 10.75 14.75 10.41 14.75 10C14.75 9.59 14.41 9.25 14 9.25Z" fill="currentColor"/>
</g>
</svg>
