<svg width="14" height="20" viewBox="0 0 14 20" fill="none" xmlns="http://www.w3.org/2000/svg">
<g id="Group">
<path id="Vector" d="M7 12C9.21 12 11 10.21 11 8V4C11 1.79 9.21 0 7 0C4.79 0 3 1.79 3 4V8C3 10.21 4.79 12 7 12ZM4.5 4C4.5 2.62 5.62 1.5 7 1.5C8.38 1.5 9.5 2.62 9.5 4V8C9.5 9.38 8.38 10.5 7 10.5C5.62 10.5 4.5 9.38 4.5 8V4Z" fill="currentColor"/>
<path id="Vector_2" d="M13 3.25C12.59 3.25 12.25 3.59 12.25 4V8C12.25 10.9 9.9 13.25 7 13.25C4.1 13.25 1.75 10.9 1.75 8V4C1.75 3.59 1.41 3.25 1 3.25C0.59 3.25 0.25 3.59 0.25 4V8C0.25 11.47 2.88 14.33 6.25 14.71V19.25C6.25 19.66 6.59 20 7 20C7.41 20 7.75 19.66 7.75 19.25V14.71C11.12 14.34 13.75 11.47 13.75 8V4C13.75 3.59 13.41 3.25 13 3.25Z" fill="currentColor"/>
</g>
</svg>
