<svg width="20" height="20" viewBox="0 0 20 20" fill="none" xmlns="http://www.w3.org/2000/svg">
<g id="Group">
<path id="Vector" d="M13 11H7C3.13 11 0 14.13 0 18V19C0 19.55 0.45 20 1 20H19C19.55 20 20 19.55 20 19V18C20 14.13 16.87 11 13 11ZM18.5 18.5H1.5V18C1.5 14.97 3.97 12.5 7 12.5H13C16.03 12.5 18.5 14.97 18.5 18V18.5Z" fill="currentColor"/>
<path id="Vector_2" d="M10 10C12.76 10 15 7.76 15 5C15 2.24 12.76 0 10 0C7.24 0 5 2.24 5 5C5 7.76 7.24 10 10 10ZM10 1.5C11.93 1.5 13.5 3.07 13.5 5C13.5 6.93 11.93 8.5 10 8.5C8.07 8.5 6.5 6.93 6.5 5C6.5 3.07 8.07 1.5 10 1.5Z" fill="currentColor"/>
</g>
</svg>
