<svg width="20" height="20" viewBox="0 0 20 20" fill="none" xmlns="http://www.w3.org/2000/svg">
<g id="Layer_1" clip-path="url(#clip0_138_2033)">
<path id="Vector" d="M13.47 6.47L9 10.94L6.53 8.47C6.24 8.18 5.76 8.18 5.47 8.47C5.18 8.76 5.18 9.24 5.47 9.53L9 13.06L14.53 7.53C14.82 7.24 14.82 6.76 14.53 6.47C14.24 6.18 13.76 6.18 13.47 6.47Z" fill="currentColor"/>
<path id="Vector_2" d="M10 0C4.48 0 0 4.48 0 10C0 15.52 4.48 20 10 20C15.52 20 20 15.52 20 10C20 4.48 15.52 0 10 0ZM14.53 7.53L9 13.06L5.47 9.53C5.18 9.24 5.18 8.76 5.47 8.47C5.76 8.18 6.24 8.18 6.53 8.47L9 10.94L13.47 6.47C13.76 6.18 14.24 6.18 14.53 6.47C14.82 6.76 14.82 7.24 14.53 7.53Z" fill="#FAFAFA"/>
</g>
<defs>
<clipPath id="clip0_138_2033">
<rect width="20" height="20" fill="white"/>
</clipPath>
</defs>
</svg>
