<svg width="18" height="20" viewBox="0 0 18 20" fill="none" xmlns="http://www.w3.org/2000/svg">
<g id="Layer_1" clip-path="url(#clip0_138_2292)">
<path id="Vector" d="M17 4.75H13.75C13.75 2.13 11.62 0 9 0C6.38 0 4.25 2.13 4.25 4.75H1C0.45 4.75 0 5.2 0 5.75V19C0 19.55 0.45 20 1 20H17C17.55 20 18 19.55 18 19V5.75C18 5.2 17.55 4.75 17 4.75ZM9 1.5C10.79 1.5 12.25 2.96 12.25 4.75H5.75C5.75 2.96 7.21 1.5 9 1.5ZM16.5 18.5H1.5V6.25H4.25V8.75C4.25 9.16 4.59 9.5 5 9.5C5.41 9.5 5.75 9.16 5.75 8.75V6.25H12.25V8.75C12.25 9.16 12.59 9.5 13 9.5C13.41 9.5 13.75 9.16 13.75 8.75V6.25H16.5V18.5Z" fill="currentColor"/>
</g>
<defs>
<clipPath id="clip0_138_2292">
<rect width="18" height="20" fill="white"/>
</clipPath>
</defs>
</svg>
