<svg width="20" height="20" viewBox="0 0 20 20" fill="none" xmlns="http://www.w3.org/2000/svg">
<g id="Group">
<path id="Vector" d="M10 0C4.48 0 0 4.48 0 10C0 15.52 4.48 20 10 20C15.52 20 20 15.52 20 10C20 4.48 15.52 0 10 0ZM10 18.5C5.31 18.5 1.5 14.69 1.5 10C1.5 5.31 5.31 1.5 10 1.5C14.69 1.5 18.5 5.31 18.5 10C18.5 14.69 14.69 18.5 10 18.5Z" fill="currentColor"/>
<path id="Vector_2" d="M10 6.97L5.47 11.65C5.18 11.95 5.18 12.44 5.47 12.75C5.76 13.05 6.24 13.05 6.53 12.75L10 9.17L13.47 12.75C13.76 13.05 14.24 13.05 14.53 12.75C14.82 12.45 14.82 11.96 14.53 11.65L10 6.97Z" fill="currentColor"/>
</g>
</svg>
