<svg width="18" height="16" viewBox="0 0 18 16" fill="none" xmlns="http://www.w3.org/2000/svg">
<g id="Group">
<path id="Vector" d="M0.769989 1.54193H17.23C17.66 1.54193 18 1.19149 18 0.770964C18 0.350438 17.65 0 17.23 0H0.769989C0.339989 0 0 0.350438 0 0.770964C0 1.19149 0.349989 1.54193 0.769989 1.54193Z" fill="currentColor"/>
<path id="Vector_2" d="M17.23 7.22903H0.769989C0.339989 7.22903 0 7.57947 0 8C0 8.42052 0.349989 8.77096 0.769989 8.77096H17.23C17.66 8.77096 18 8.42052 18 8C18 7.57947 17.65 7.22903 17.23 7.22903Z" fill="currentColor"/>
<path id="Vector_3" d="M17.23 14.4581H0.769989C0.339989 14.4581 0 14.8085 0 15.229C0 15.6496 0.349989 16 0.769989 16H17.23C17.66 16 18 15.6496 18 15.229C18 14.8085 17.65 14.4581 17.23 14.4581Z" fill="currentColor"/>
</g>
</svg>
