<svg width="19" height="18" viewBox="0 0 19 18" fill="none" xmlns="http://www.w3.org/2000/svg">
<g id="Group 2">
<path id="Vector" d="M5.99392 15.5014C6.27411 15.5014 6.49425 15.7213 6.49425 16.0011C6.49425 16.281 6.27411 16.5008 5.99392 16.5008C5.71374 16.5008 5.4936 16.281 5.4936 16.0011C5.4936 15.7213 5.71374 15.5014 5.99392 15.5014ZM5.99392 14.0022C4.8932 14.0022 3.99261 14.9017 3.99261 16.0011C3.99261 17.1005 4.8932 18 5.99392 18C7.09465 18 7.99523 17.1005 7.99523 16.0011C7.99523 14.9017 7.09465 14.0022 5.99392 14.0022Z" fill="currentColor"/>
<path id="Vector_2" d="M14.9998 15.5014C15.28 15.5014 15.5001 15.7213 15.5001 16.0011C15.5001 16.281 15.28 16.5008 14.9998 16.5008C14.7196 16.5008 14.4995 16.281 14.4995 16.0011C14.4995 15.7213 14.7196 15.5014 14.9998 15.5014ZM14.9998 14.0022C13.8991 14.0022 12.9985 14.9017 12.9985 16.0011C12.9985 17.1005 13.8991 18 14.9998 18C16.1005 18 17.0011 17.1005 17.0011 16.0011C17.0011 14.9017 16.1005 14.0022 14.9998 14.0022Z" fill="currentColor"/>
<path id="Vector_3" d="M15.7903 12.503H5.51362C4.67307 12.503 3.96261 11.9034 3.81251 11.0638L2.1314 1.70905C2.11139 1.58912 2.01132 1.49917 1.89124 1.49917H0.74049C0.330222 1.49917 0 1.15936 0 0.749583C0 0.339811 0.330222 0 0.74049 0H1.89124C2.73179 0 3.44227 0.599669 3.59236 1.4392L3.87255 2.99833H17.2713C17.8117 2.99833 18.302 3.2482 18.6322 3.66797C18.9624 4.08773 19.0825 4.64742 18.9424 5.16713L17.4614 11.1638C17.2713 11.9434 16.5809 12.4931 15.7803 12.4931L15.7903 12.503ZM4.14271 4.5075L5.27346 10.794C5.29347 10.9139 5.39354 11.0039 5.51362 11.0039H15.7903C15.9004 11.0039 16.0005 10.9239 16.0305 10.814L17.5115 4.81732C17.5415 4.71738 17.4915 4.63742 17.4614 4.60744C17.4314 4.56746 17.3714 4.5075 17.2713 4.5075H4.14271Z" fill="currentColor"/>
</g>
</svg>
