<svg width="20" height="16" viewBox="0 0 20 16" fill="none" xmlns="http://www.w3.org/2000/svg">
<g id="Group">
<g id="Group_2">
<path id="Vector" d="M18 15.25H2C1.04 15.25 0.25 14.46 0.25 13.5V2.5C0.25 1.54 1.04 0.75 2 0.75H18C18.96 0.75 19.75 1.54 19.75 2.5V13.5C19.75 14.46 18.96 15.25 18 15.25ZM2 2.25C1.86 2.25 1.75 2.36 1.75 2.5V13.5C1.75 13.64 1.86 13.75 2 13.75H18C18.14 13.75 18.25 13.64 18.25 13.5V2.5C18.25 2.36 18.14 2.25 18 2.25H2Z" fill="#1C1C1C"/>
</g>
<g id="Group_3">
<path id="Vector_2" d="M10 9.45C9.6 9.45 9.2 9.31 8.88 9.04L0.519997 2.08L1.48 0.93L9.84 7.9C9.93 7.98 10.07 7.98 10.16 7.9L18.52 0.93L19.48 2.08L11.12 9.05C10.8 9.31 10.4 9.45 10 9.45Z" fill="#1C1C1C"/>
</g>
</g>
</svg>
