<svg width="18" height="20" viewBox="0 0 18 20" fill="none" xmlns="http://www.w3.org/2000/svg">
<g id="Group">
<path id="Vector" d="M17 2H11V1C11 0.45 10.55 0 10 0H8C7.45 0 7 0.45 7 1V2H1C0.45 2 0 2.45 0 3V6C0 6.55 0.45 7 1 7V19C1 19.55 1.45 20 2 20H16C16.55 20 17 19.55 17 19V7C17.55 7 18 6.55 18 6V3C18 2.45 17.55 2 17 2ZM8.5 1.5H9.5V2H8.5V1.5ZM1.5 3.5H16.5V5.5H1.5V3.5ZM15.5 18.5H2.5V7H15.5V18.5Z" fill="currentColor"/>
<path id="Vector_2" d="M6 15.25C6.41 15.25 6.75 14.91 6.75 14.5V10.5C6.75 10.09 6.41 9.75 6 9.75C5.59 9.75 5.25 10.09 5.25 10.5V14.5C5.25 14.91 5.59 15.25 6 15.25Z" fill="currentColor"/>
<path id="Vector_3" d="M9 15.25C9.41 15.25 9.75 14.91 9.75 14.5V10.5C9.75 10.09 9.41 9.75 9 9.75C8.59 9.75 8.25 10.09 8.25 10.5V14.5C8.25 14.91 8.59 15.25 9 15.25Z" fill="currentColor"/>
<path id="Vector_4" d="M12 15.25C12.41 15.25 12.75 14.91 12.75 14.5V10.5C12.75 10.09 12.41 9.75 12 9.75C11.59 9.75 11.25 10.09 11.25 10.5V14.5C11.25 14.91 11.59 15.25 12 15.25Z" fill="currentColor"/>
</g>
</svg>
