<svg width="18" height="20" viewBox="0 0 18 20" fill="none" xmlns="http://www.w3.org/2000/svg">
<g id="Group">
<path id="Vector" d="M17.4286 16.63L15.9823 13V9C15.9823 5.82 13.8677 3.14 10.965 2.29C10.975 2.2 10.9949 2.1 10.9949 2C10.9949 0.9 10.0972 0 9 0C7.90278 0 7.00506 0.9 7.00506 2C7.00506 2.1 7.02501 2.19 7.03498 2.29C4.13235 3.14 2.01771 5.82 2.01771 9V13L0.571385 16.63C0.312043 17.29 0.790821 18 1.49902 18H7.00506C7.00506 19.1 7.90278 20 9 20C10.0972 20 10.9949 19.1 10.9949 18H16.501C17.2092 18 17.688 17.29 17.4286 16.63ZM8.50127 2C8.50127 1.72 8.72071 1.5 9 1.5C9.27929 1.5 9.49874 1.72 9.49874 2V2.02C9.33914 2.01 9.16956 2 9.00997 2C8.85037 2 8.68081 2.01 8.52122 2.02V2H8.50127ZM9 18.5C8.72071 18.5 8.50127 18.28 8.50127 18H9.49874C9.49874 18.28 9.27929 18.5 9 18.5ZM10.3067 16.5H2.23716L3.41416 13.56L3.52389 13.29V9C3.52389 6.36 5.37919 4.16 7.85292 3.63C8.22198 3.55 8.61098 3.5 9.00997 3.5C9.40896 3.5 9.788 3.54 10.167 3.63C12.6408 4.16 14.4961 6.37 14.4961 9V13.29L14.6058 13.56L15.7828 16.5H10.3266H10.3067Z" fill="currentColor"/>
</g>
</svg>
