<svg width="18" height="18" viewBox="0 0 18 18" fill="none" xmlns="http://www.w3.org/2000/svg">
<g id="Group 3">
<path id="Vector" d="M17 0H1C0.447715 0 0 0.447715 0 1V17C0 17.5523 0.447715 18 1 18H17C17.5523 18 18 17.5523 18 17V1C18 0.447715 17.5523 0 17 0Z" fill="currentColor"/>
<path id="Vector_2" d="M8 12.06L4.47 8.53C4.18 8.24 4.18 7.76 4.47 7.47C4.76 7.18 5.24 7.18 5.53 7.47L8 9.94L12.47 5.47C12.76 5.18 13.24 5.18 13.53 5.47C13.82 5.76 13.82 6.24 13.53 6.53L8 12.06Z" fill="white"/>
</g>
</svg>
