<svg width="18" height="18" viewBox="0 0 18 18" fill="none" xmlns="http://www.w3.org/2000/svg">
<g id="Group">
<path id="Vector" d="M6.53 4.57475L8.25 2.86047V11.0233C8.25 11.4319 8.59 11.7708 9 11.7708C9.41 11.7708 9.75 11.4319 9.75 11.0233V2.86047L11.47 4.57475C11.62 4.72425 11.81 4.79402 12 4.79402C12.19 4.79402 12.38 4.72425 12.53 4.57475C12.82 4.28571 12.82 3.80731 12.53 3.51827L9 0L5.47 3.51827C5.18 3.80731 5.18 4.28571 5.47 4.57475C5.76 4.86379 6.24 4.86379 6.53 4.57475Z" fill="currentColor"/>
<path id="Vector_2" d="M17.25 12.0199C16.84 12.0199 16.5 12.3588 16.5 12.7674V16.505H1.5V12.7674C1.5 12.3588 1.16 12.0199 0.75 12.0199C0.34 12.0199 0 12.3588 0 12.7674V17.0033C0 17.5515 0.45 18 1 18H17C17.55 18 18 17.5515 18 17.0033V12.7674C18 12.3588 17.66 12.0199 17.25 12.0199Z" fill="currentColor"/>
</g>
</svg>
