<svg width="12" height="12" viewBox="0 0 12 12" fill="none" xmlns="http://www.w3.org/2000/svg">
<g id="Group">
<path id="Vector" d="M11.78 10.72L8.16 7.1C8.68 6.36 9 5.47 9 4.5C9 2.01 6.99 0 4.5 0C2.01 0 0 2.01 0 4.5C0 6.99 2.01 9 4.5 9C5.47 9 6.37 8.68 7.1 8.16L10.72 11.78C10.87 11.93 11.06 12 11.25 12C11.44 12 11.63 11.93 11.78 11.78C12.07 11.49 12.07 11.01 11.78 10.72ZM4.5 7.5C2.85 7.5 1.5 6.15 1.5 4.5C1.5 2.85 2.85 1.5 4.5 1.5C6.15 1.5 7.5 2.85 7.5 4.5C7.5 5.05 7.34 5.57 7.07 6.01C6.81 6.45 6.45 6.81 6.01 7.07C5.56 7.33 5.05 7.5 4.5 7.5Z" fill="currentColor"/>
</g>
</svg>
