<svg width="18" height="18" viewBox="0 0 18 18" fill="none" xmlns="http://www.w3.org/2000/svg">
<g id="Group">
<path id="Vector" d="M9 12.06L12.53 8.53C12.82 8.24 12.82 7.76 12.53 7.47C12.24 7.18 11.76 7.18 11.47 7.47L9.75 9.19V0.75C9.75 0.34 9.41 0 9 0C8.59 0 8.25 0.34 8.25 0.75V9.19L6.53 7.47C6.24 7.18 5.76 7.18 5.47 7.47C5.18 7.76 5.18 8.24 5.47 8.53L9 12.06Z" fill="currentColor"/>
<path id="Vector_2" d="M17.25 12C16.84 12 16.5 12.34 16.5 12.75V16.5H1.5V12.75C1.5 12.34 1.16 12 0.75 12C0.34 12 0 12.34 0 12.75V17C0 17.55 0.45 18 1 18H17C17.55 18 18 17.55 18 17V12.75C18 12.34 17.66 12 17.25 12Z" fill="currentColor"/>
</g>
</svg>
