<svg width="20" height="20" viewBox="0 0 20 20" fill="none" xmlns="http://www.w3.org/2000/svg">
<g id="Group">
<path id="Vector" d="M13.47 6.47L9 10.94L6.53 8.47C6.24 8.18 5.76 8.18 5.47 8.47C5.18 8.76 5.18 9.24 5.47 9.53L9 13.06L14.53 7.53C14.82 7.24 14.82 6.76 14.53 6.47C14.24 6.18 13.76 6.18 13.47 6.47Z" fill="currentColor"/>
<path id="Vector_2" d="M10 0C4.48 0 0 4.48 0 10C0 15.52 4.48 20 10 20C15.52 20 20 15.52 20 10C20 4.48 15.52 0 10 0ZM10 18.5C5.31 18.5 1.5 14.69 1.5 10C1.5 5.31 5.31 1.5 10 1.5C14.69 1.5 18.5 5.31 18.5 10C18.5 14.69 14.69 18.5 10 18.5Z" fill="currentColor"/>
</g>
</svg>
