<svg width="12" height="12" viewBox="0 0 12 12" fill="none" xmlns="http://www.w3.org/2000/svg">
<g id="Group 25">
<path id="Vector" d="M6 1.5C8.48 1.5 10.5 3.52 10.5 6C10.5 8.48 8.48 10.5 6 10.5C3.52 10.5 1.5 8.48 1.5 6C1.5 3.52 3.52 1.5 6 1.5ZM6 0C2.69 0 0 2.69 0 6C0 9.31 2.69 12 6 12C9.31 12 12 9.31 12 6C12 2.69 9.31 0 6 0Z" fill="currentColor"/>
<path id="Vector_2" d="M5.5 8.30994L3.47 6.27994C3.18 5.98994 3.18 5.50994 3.47 5.21994C3.76 4.92994 4.24 4.92994 4.53 5.21994L5.5 6.18994L7.47 4.21994C7.76 3.92994 8.24 3.92994 8.53 4.21994C8.82 4.50994 8.82 4.98994 8.53 5.27994L5.5 8.30994Z" fill="currentColor"/>
</g>
</svg>
