<svg width="18" height="16" viewBox="0 0 18 16" fill="none" xmlns="http://www.w3.org/2000/svg">
<g id="Group">
<path id="Vector" d="M1 2C1.55228 2 2 1.55228 2 1C2 0.447715 1.55228 0 1 0C0.447715 0 0 0.447715 0 1C0 1.55228 0.447715 2 1 2Z" fill="currentColor"/>
<path id="Vector_2" d="M1 9C1.55228 9 2 8.55228 2 8C2 7.44772 1.55228 7 1 7C0.447715 7 0 7.44772 0 8C0 8.55228 0.447715 9 1 9Z" fill="currentColor"/>
<path id="Vector_3" d="M1 16C1.55228 16 2 15.5523 2 15C2 14.4477 1.55228 14 1 14C0.447715 14 0 14.4477 0 15C0 15.5523 0.447715 16 1 16Z" fill="currentColor"/>
<path id="Vector_4" d="M5.25 1.75H17.25C17.66 1.75 18 1.41 18 1C18 0.59 17.66 0.25 17.25 0.25H5.25C4.84 0.25 4.5 0.59 4.5 1C4.5 1.41 4.84 1.75 5.25 1.75Z" fill="currentColor"/>
<path id="Vector_5" d="M17.25 7.25H5.25C4.84 7.25 4.5 7.59 4.5 8C4.5 8.41 4.84 8.75 5.25 8.75H17.25C17.66 8.75 18 8.41 18 8C18 7.59 17.66 7.25 17.25 7.25Z" fill="currentColor"/>
<path id="Vector_6" d="M17.25 14.25H5.25C4.84 14.25 4.5 14.59 4.5 15C4.5 15.41 4.84 15.75 5.25 15.75H17.25C17.66 15.75 18 15.41 18 15C18 14.59 17.66 14.25 17.25 14.25Z" fill="currentColor"/>
</g>
</svg>
