<svg width="24" height="24" viewBox="0 0 24 24" fill="none" xmlns="http://www.w3.org/2000/svg">
<g id="color=bk">
<path id="Union" fill-rule="evenodd" clip-rule="evenodd" d="M12 2C6.48 2 2 6.48 2 12C2 17.52 6.48 22 12 22C17.52 22 22 17.52 22 12C22 6.48 17.52 2 12 2ZM12 20.5C7.31 20.5 3.5 16.69 3.5 12C3.5 7.31 7.31 3.5 12 3.5C16.69 3.5 20.5 7.31 20.5 12C20.5 16.69 16.69 20.5 12 20.5ZM12 8.75C11.3142 8.75 10.75 9.31421 10.75 10H9.25C9.25 8.48579 10.4858 7.25 12 7.25C13.5142 7.25 14.75 8.48579 14.75 10C14.75 11.2544 13.9019 12.3177 12.75 12.6457V14H11.25V11.25H12C12.6858 11.25 13.25 10.6858 13.25 10C13.25 9.31421 12.6858 8.75 12 8.75ZM11.25 15.25V16.75H12.75V15.25H11.25Z" fill="currentColor"/>
</g>
</svg>
