<svg width="20" height="20" viewBox="0 0 20 20" fill="none" xmlns="http://www.w3.org/2000/svg">
<g id="Group 13">
<path id="Vector" d="M10 0C4.48 0 0 4.48 0 10C0 15.52 4.48 20 10 20C15.52 20 20 15.52 20 10C20 4.48 15.52 0 10 0ZM10 18.5C5.31 18.5 1.5 14.69 1.5 10C1.5 5.31 5.31 1.5 10 1.5C14.69 1.5 18.5 5.31 18.5 10C18.5 14.69 14.69 18.5 10 18.5Z" fill="currentColor"/>
<path id="Vector (Stroke)" fill-rule="evenodd" clip-rule="evenodd" d="M11.4697 5.46967L12.5303 6.53033L9.06065 10L12.5303 13.4697L11.4697 14.5303L6.93933 10L11.4697 5.46967Z" fill="currentColor"/>
</g>
</svg>
