<svg width="20" height="20" viewBox="0 0 20 20" fill="none" xmlns="http://www.w3.org/2000/svg">
<g id="Group">
<path id="Vector" d="M14 11H6C2.69 11 0 13.69 0 17V20H20V17C20 13.69 17.31 11 14 11ZM18.5 18.5H1.5V17C1.5 14.51 3.51 12.5 6 12.5H14C16.49 12.5 18.5 14.51 18.5 17V18.5Z" fill="currentColor"/>
<path id="Vector_2" d="M10 10C12.76 10 15 7.76 15 5C15 2.24 12.76 0 10 0C7.24 0 5 2.24 5 5C5 7.76 7.24 10 10 10ZM10 1.5C11.93 1.5 13.5 3.07 13.5 5C13.5 6.93 11.93 8.5 10 8.5C8.07 8.5 6.5 6.93 6.5 5C6.5 3.07 8.07 1.5 10 1.5Z" fill="currentColor"/>
</g>
</svg>
