<svg width="18" height="20" viewBox="0 0 18 20" fill="none" xmlns="http://www.w3.org/2000/svg">
<g id="Group">
<path id="Vector" d="M18 18L16 13V9C16 5.82 13.88 3.14 10.97 2.29C10.98 2.2 11 2.1 11 2C11 0.9 10.1 0 9 0C7.9 0 7 0.9 7 2C7 2.1 7.02 2.19 7.03 2.29C4.12 3.14 2 5.82 2 9V13L0 18H7C7 19.1 7.9 20 9 20C10.1 20 11 19.1 11 18H18ZM8.5 2C8.5 1.72 8.72 1.5 9 1.5C9.28 1.5 9.5 1.72 9.5 2V2.02C9.34 2.01 9.16999 2 9.00999 2C8.84999 2 8.68 2.01 8.52 2.02V2H8.5ZM9 18.5C8.72 18.5 8.5 18.28 8.5 18H9.5C9.5 18.28 9.28 18.5 9 18.5ZM10.31 16.5H2.22L3.39999 13.56L3.50999 13.29V9C3.50999 6.36 5.37001 4.16 7.85001 3.63C8.22001 3.55 8.60999 3.5 9.00999 3.5C9.40999 3.5 9.79 3.54 10.17 3.63C12.65 4.16 14.51 6.37 14.51 9V13.29L14.62 13.56L15.8 16.5H10.33H10.31Z" fill="currentColor"/>
</g>
</svg>
