<svg width="19" height="18" viewBox="0 0 19 18" fill="none" xmlns="http://www.w3.org/2000/svg">
<g id="Group 20">
<path id="Vector" d="M6.019 15.5C6.29989 15.5 6.52058 15.72 6.52058 16C6.52058 16.28 6.29989 16.5 6.019 16.5C5.73811 16.5 5.51742 16.28 5.51742 16C5.51742 15.72 5.73811 15.5 6.019 15.5ZM6.019 14C4.91552 14 4.01266 14.9 4.01266 16C4.01266 17.1 4.91552 18 6.019 18C7.12248 18 8.02534 17.1 8.02534 16C8.02534 14.9 7.12248 14 6.019 14Z" fill="currentColor"/>
<path id="Vector_2" d="M15.0475 15.5C15.3284 15.5 15.5491 15.72 15.5491 16C15.5491 16.28 15.3284 16.5 15.0475 16.5C14.7666 16.5 14.5459 16.28 14.5459 16C14.5459 15.72 14.7666 15.5 15.0475 15.5ZM15.0475 14C13.944 14 13.0412 14.9 13.0412 16C13.0412 17.1 13.944 18 15.0475 18C16.151 18 17.0538 17.1 17.0538 16C17.0538 14.9 16.151 14 15.0475 14Z" fill="currentColor"/>
<path id="Vector_3" d="M16.6526 12.56H4.37381L2.36748 1.56H0V0H3.65153L4.15311 3.11H19L16.6626 12.55L16.6526 12.56ZM5.65787 11H15.4488L17.1241 4.67H4.40391L5.65787 11Z" fill="currentColor"/>
</g>
</svg>
