<svg width="24" height="24" viewBox="0 0 24 24" fill="none" xmlns="http://www.w3.org/2000/svg">
<g id="color=bk">
<path id="Union" fill-rule="evenodd" clip-rule="evenodd" d="M12 15C14.21 15 16 13.21 16 11V7C16 4.79 14.21 3 12 3C9.79 3 8 4.79 8 7V11C8 13.21 9.79 15 12 15ZM9.5 7C9.5 5.62 10.62 4.5 12 4.5C13.38 4.5 14.5 5.62 14.5 7V11C14.5 12.38 13.38 13.5 12 13.5C10.62 13.5 9.5 12.38 9.5 11V7ZM11.25 17.7085C7.88119 17.3339 5.25 14.4666 5.25 11V6H6.75V11C6.75 13.9 9.1 16.25 12 16.25C14.9 16.25 17.25 13.9 17.25 11V6H18.75V11C18.75 14.4666 16.1188 17.3339 12.75 17.7085V22H11.25V17.7085Z" fill="currentColor"/>
</g>
</svg>
