<svg width="18" height="20" viewBox="0 0 18 20" fill="none" xmlns="http://www.w3.org/2000/svg">
<g id="Group 12">
<g id="Group">
<path id="Vector" d="M18 2H11V3.5H16.5V5H17V7H18V2Z" fill="currentColor"/>
<path id="Vector_2" d="M9.5 2H8.5V2.5H9.5V2Z" fill="currentColor"/>
<path id="Vector_3" d="M15.5 6.5H2.5V7H15.5V6.5Z" fill="currentColor"/>
<path id="Vector_4" d="M1.5 5V3.5H7V2H0V7H1V5H1.5Z" fill="currentColor"/>
<path id="Vector_5" d="M15.5 18.5H2.5V7H1V20H17V7H15.5V18.5Z" fill="currentColor"/>
<path id="Vector_6" d="M16.5 5V5.5H1.5V5H1V7H2.5V6.5H15.5V7H17V5H16.5Z" fill="currentColor"/>
<path id="Vector_7" d="M8.5 1.5H9.5V2H11V0H7V2H8.5V1.5Z" fill="currentColor"/>
<path id="Vector_8" d="M11 3.5V2H9.5V2.5H8.5V2H7V3.5H11Z" fill="currentColor"/>
</g>
<path id="Vector (Stroke)" fill-rule="evenodd" clip-rule="evenodd" d="M8.25 15V10H9.75V15H8.25Z" fill="currentColor"/>
<path id="Vector (Stroke)_2" fill-rule="evenodd" clip-rule="evenodd" d="M5.25 15V10H6.75V15H5.25Z" fill="currentColor"/>
<path id="Vector (Stroke)_3" fill-rule="evenodd" clip-rule="evenodd" d="M11.25 15V10H12.75V15H11.25Z" fill="currentColor"/>
</g>
</svg>
