<svg width="40" height="40" viewBox="0 0 40 40" fill="none" xmlns="http://www.w3.org/2000/svg">
<g clip-path="url(#clip0_6526_52629)">
<path d="M40 20C40 8.9543 31.0457 0 20 0C8.9543 0 0 8.9543 0 20C0 31.0457 8.9543 40 20 40C31.0457 40 40 31.0457 40 20Z" fill="#1778F2"/>
<path d="M21.5948 31.289V20.5833H25.1883L25.7272 16.4111H21.5948V13.7473C21.5948 12.5394 21.9303 11.7162 23.6625 11.7162H25.8719V7.98563C24.8025 7.87249 23.7277 7.81769 22.6524 7.82147C19.4669 7.82147 17.2862 9.76573 17.2862 13.3365V16.4111H13.6835V20.5833H17.2862V31.289H21.5948Z" fill="#FDFDFD"/>
</g>
<defs>
<clipPath id="clip0_6526_52629">
<rect width="40" height="40" fill="white"/>
</clipPath>
</defs>
</svg>
