<svg width="32" height="32" viewBox="0 0 32 32" fill="currenColor" xmlns="http://www.w3.org/2000/svg">
<circle cx="16" cy="16" r="15.5" fill="white" stroke="#EAEAEA"/>
<path d="M24.448 16.1999C24.448 15.5759 24.392 14.9759 24.288 14.3999H16V17.8079H20.736C20.528 18.9039 19.904 19.8319 18.968 20.4559V22.6719H21.824C23.488 21.1359 24.448 18.8799 24.448 16.1999Z" fill="#4285F4"/>
<path d="M16.0005 24.7997C18.3765 24.7997 20.3685 24.0157 21.8245 22.6717L18.9685 20.4557C18.1845 20.9837 17.1845 21.3037 16.0005 21.3037C13.7125 21.3037 11.7685 19.7597 11.0725 17.6797H8.14453V19.9517C9.59253 22.8237 12.5605 24.7997 16.0005 24.7997Z" fill="#34A853"/>
<path d="M11.0732 17.6717C10.8972 17.1437 10.7932 16.5837 10.7932 15.9997C10.7932 15.4157 10.8972 14.8557 11.0732 14.3277V12.0557H8.14517C7.54517 13.2397 7.20117 14.5757 7.20117 15.9997C7.20117 17.4237 7.54517 18.7597 8.14517 19.9437L10.4252 18.1677L11.0732 17.6717Z" fill="#FBBC05"/>
<path d="M16.0005 10.7037C17.2965 10.7037 18.4485 11.1517 19.3685 12.0157L21.8885 9.49571C20.3605 8.07171 18.3765 7.19971 16.0005 7.19971C12.5605 7.19971 9.59253 9.17571 8.14453 12.0557L11.0725 14.3277C11.7685 12.2477 13.7125 10.7037 16.0005 10.7037Z" fill="#EA4335"/>
</svg>
