<svg width="40" height="40" viewBox="0 0 40 40" fill="none" xmlns="http://www.w3.org/2000/svg">
<rect x="0.5" y="0.5" width="39" height="39" rx="19.5" fill="white" stroke="#EAEAEA"/>
<g clip-path="url(#clip0_6419_51735)">
<path d="M30.8991 20.2137C30.8991 19.2773 30.8231 18.5939 30.6586 17.8853H19.9653V22.1119H26.2421C26.1156 23.1623 25.4322 24.7441 23.9136 25.8071L23.8923 25.9486L27.2733 28.5678L27.5076 28.5912C29.6589 26.6044 30.8991 23.6811 30.8991 20.2137Z" fill="#4285F4"/>
<path d="M19.9653 31.3501C23.0403 31.3501 25.6219 30.3377 27.5075 28.5914L23.9135 25.8073C22.9518 26.478 21.661 26.9462 19.9653 26.9462C16.9534 26.9462 14.3972 24.9595 13.486 22.2134L13.3524 22.2247L9.83675 24.9455L9.79077 25.0733C11.6637 28.7938 15.5107 31.3501 19.9653 31.3501Z" fill="#34A853"/>
<path d="M13.4862 22.213C13.2457 21.5044 13.1066 20.745 13.1066 19.9605C13.1066 19.1758 13.2457 18.4166 13.4735 17.7079L13.4672 17.557L9.90747 14.7925L9.791 14.8479C9.01909 16.3918 8.57617 18.1255 8.57617 19.9605C8.57617 21.7954 9.01909 23.5291 9.791 25.073L13.4862 22.213Z" fill="#FBBC05"/>
<path d="M19.9653 12.9751C22.1039 12.9751 23.5465 13.8989 24.3691 14.6709L27.5834 11.5325C25.6093 9.69757 23.0403 8.57129 19.9653 8.57129C15.5107 8.57129 11.6637 11.1275 9.79077 14.848L13.4733 17.708C14.3972 14.962 16.9534 12.9751 19.9653 12.9751Z" fill="#EB4335"/>
</g>
<defs>
<clipPath id="clip0_6419_51735">
<rect width="22.3429" height="22.8571" fill="white" transform="translate(8.57141 8.57129)"/>
</clipPath>
</defs>
</svg>
