<svg width="32" height="32" viewBox="0 0 32 32" fill="none" xmlns="http://www.w3.org/2000/svg">
<g opacity="0.5">
<circle cx="16" cy="16" r="15.5" fill="white" stroke="#EAEAEA"/>
<path d="M24.448 16.1999C24.448 15.5759 24.392 14.9759 24.288 14.3999H16V17.8079H20.736C20.528 18.9039 19.904 19.8319 18.968 20.4559V22.6719H21.824C23.488 21.1359 24.448 18.8799 24.448 16.1999Z" fill="#4285F4"/>
<path d="M15.9966 24.7997C18.3726 24.7997 20.3646 24.0157 21.8206 22.6717L18.9646 20.4557C18.1806 20.9837 17.1806 21.3037 15.9966 21.3037C13.7086 21.3037 11.7646 19.7597 11.0686 17.6797H8.14062V19.9517C9.58863 22.8237 12.5566 24.7997 15.9966 24.7997Z" fill="#34A853"/>
<path d="M11.0712 17.6717C10.8952 17.1437 10.7912 16.5837 10.7912 15.9997C10.7912 15.4157 10.8952 14.8557 11.0712 14.3277V12.0557H8.14322C7.54322 13.2397 7.19922 14.5757 7.19922 15.9997C7.19922 17.4237 7.54322 18.7597 8.14322 19.9437L10.4232 18.1677L11.0712 17.6717Z" fill="#FBBC05"/>
<path d="M15.9966 10.7037C17.2926 10.7037 18.4446 11.1517 19.3646 12.0157L21.8846 9.49571C20.3566 8.07171 18.3726 7.19971 15.9966 7.19971C12.5566 7.19971 9.58862 9.17571 8.14062 12.0557L11.0686 14.3277C11.7646 12.2477 13.7086 10.7037 15.9966 10.7037Z" fill="#EA4335"/>
</g>
</svg>
