<svg width="16" height="16" viewBox="0 0 16 16" fill="currentColor" xmlns="http://www.w3.org/2000/svg">
<path d="M3.70004 11.75C4.40004 11.3055 5.09171 10.9694 5.77504 10.7416C6.45837 10.5139 7.20004 10.4 8.00004 10.4C8.80004 10.4 9.54449 10.5139 10.2334 10.7416C10.9223 10.9694 11.6167 11.3055 12.3167 11.75C12.8056 11.15 13.1528 10.5444 13.3584 9.93331C13.5639 9.3222 13.6667 8.67776 13.6667 7.99998C13.6667 6.38887 13.125 5.04165 12.0417 3.95831C10.9584 2.87498 9.61115 2.33331 8.00004 2.33331C6.38893 2.33331 5.04171 2.87498 3.95837 3.95831C2.87504 5.04165 2.33337 6.38887 2.33337 7.99998C2.33337 8.67776 2.43893 9.3222 2.65004 9.93331C2.86115 10.5444 3.21115 11.15 3.70004 11.75ZM8.00004 8.49998C7.3556 8.49998 6.81393 8.28053 6.37504 7.84165C5.93615 7.40276 5.71671 6.86109 5.71671 6.21665C5.71671 5.5722 5.93615 5.03053 6.37504 4.59165C6.81393 4.15276 7.3556 3.93331 8.00004 3.93331C8.64448 3.93331 9.18615 4.15276 9.62504 4.59165C10.0639 5.03053 10.2834 5.5722 10.2834 6.21665C10.2834 6.86109 10.0639 7.40276 9.62504 7.84165C9.18615 8.28053 8.64448 8.49998 8.00004 8.49998ZM8.00004 14.6666C7.06671 14.6666 6.19448 14.4916 5.38337 14.1416C4.57226 13.7916 3.86671 13.3139 3.26671 12.7083C2.66671 12.1028 2.19449 11.3944 1.85004 10.5833C1.5056 9.7722 1.33337 8.90554 1.33337 7.98331C1.33337 7.0722 1.50837 6.21109 1.85837 5.39998C2.20837 4.58887 2.68615 3.88331 3.29171 3.28331C3.89726 2.68331 4.6056 2.20831 5.41671 1.85831C6.22782 1.50831 7.09448 1.33331 8.01671 1.33331C8.92782 1.33331 9.78893 1.50831 10.6 1.85831C11.4112 2.20831 12.1167 2.68331 12.7167 3.28331C13.3167 3.88331 13.7917 4.58887 14.1417 5.39998C14.4917 6.21109 14.6667 7.07776 14.6667 7.99998C14.6667 8.91109 14.4917 9.7722 14.1417 10.5833C13.7917 11.3944 13.3167 12.1028 12.7167 12.7083C12.1167 13.3139 11.4112 13.7916 10.6 14.1416C9.78893 14.4916 8.92226 14.6666 8.00004 14.6666Z" fill="currentColor"/>
</svg>
