<svg width="20" height="20" viewBox="0 0 20 20" fill="currentColor" xmlns="http://www.w3.org/2000/svg">
<path d="M15.8334 11.6667C15.6528 11.6667 15.5035 11.6076 15.3855 11.4896C15.2674 11.3715 15.2084 11.2222 15.2084 11.0417V8.95832H13.125C12.9445 8.95832 12.7952 8.8993 12.6771 8.78124C12.5591 8.66318 12.5 8.51388 12.5 8.33332C12.5 8.15277 12.5591 8.00346 12.6771 7.88541C12.7952 7.76735 12.9445 7.70832 13.125 7.70832H15.2084V5.62499C15.2084 5.44443 15.2674 5.29513 15.3855 5.17707C15.5035 5.05902 15.6528 4.99999 15.8334 4.99999C16.0139 4.99999 16.1632 5.05902 16.2813 5.17707C16.3993 5.29513 16.4584 5.44443 16.4584 5.62499V7.70832H18.5417C18.7223 7.70832 18.8716 7.76735 18.9896 7.88541C19.1077 8.00346 19.1667 8.15277 19.1667 8.33332C19.1667 8.51388 19.1077 8.66318 18.9896 8.78124C18.8716 8.8993 18.7223 8.95832 18.5417 8.95832H16.4584V11.0417C16.4584 11.2222 16.3993 11.3715 16.2813 11.4896C16.1632 11.6076 16.0139 11.6667 15.8334 11.6667ZM7.50004 9.97916C6.58337 9.97916 5.83337 9.68749 5.25004 9.10416C4.66671 8.52082 4.37504 7.77082 4.37504 6.85416C4.37504 5.93749 4.66671 5.18749 5.25004 4.60416C5.83337 4.02082 6.58337 3.72916 7.50004 3.72916C8.41671 3.72916 9.16671 4.02082 9.75004 4.60416C10.3334 5.18749 10.625 5.93749 10.625 6.85416C10.625 7.77082 10.3334 8.52082 9.75004 9.10416C9.16671 9.68749 8.41671 9.97916 7.50004 9.97916V9.97916ZM1.45837 16.6667C1.27782 16.6667 1.12851 16.6076 1.01046 16.4896C0.892402 16.3715 0.833374 16.2222 0.833374 16.0417V14.7083C0.833374 14.2222 0.958374 13.7812 1.20837 13.3854C1.45837 12.9896 1.8056 12.6944 2.25004 12.5C3.29171 12.0417 4.21879 11.7187 5.03129 11.5312C5.84379 11.3437 6.66671 11.25 7.50004 11.25C8.33337 11.25 9.15629 11.3437 9.96879 11.5312C10.7813 11.7187 11.7014 12.0417 12.7292 12.5C13.1737 12.7083 13.5243 13.0069 13.7813 13.3958C14.0382 13.7847 14.1667 14.2222 14.1667 14.7083V16.0417C14.1667 16.2222 14.1077 16.3715 13.9896 16.4896C13.8716 16.6076 13.7223 16.6667 13.5417 16.6667H1.45837Z" fill="currentColor"/>
</svg>
