<svg width="20" height="20" viewBox="0 0 20 20" fill="currentColor" xmlns="http://www.w3.org/2000/svg">
<path d="M12.625 13.5625C12.75 13.6875 12.8959 13.75 13.0625 13.75C13.2292 13.75 13.382 13.6805 13.5209 13.5417C13.6597 13.4028 13.7327 13.243 13.7396 13.0625C13.7465 12.8819 13.6806 12.7292 13.5417 12.6042L10.6875 9.74999V6.16666C10.6875 5.99999 10.6285 5.85763 10.5104 5.73957C10.3924 5.62152 10.2431 5.56249 10.0625 5.56249C9.88196 5.56249 9.73266 5.62152 9.6146 5.73957C9.49655 5.85763 9.43752 6.00693 9.43752 6.18749V9.99999C9.43752 10.0833 9.45141 10.1597 9.47919 10.2292C9.50696 10.2986 9.54863 10.368 9.60419 10.4375L12.625 13.5625ZM10 18.3333C8.86113 18.3333 7.78474 18.1146 6.77085 17.6771C5.75696 17.2396 4.87155 16.6424 4.1146 15.8854C3.35766 15.1285 2.76044 14.243 2.32294 13.2292C1.88544 12.2153 1.66669 11.1389 1.66669 9.99999C1.66669 8.8611 1.88544 7.78471 2.32294 6.77082C2.76044 5.75693 3.35766 4.87152 4.1146 4.11457C4.87155 3.35763 5.75696 2.76041 6.77085 2.32291C7.78474 1.88541 8.86113 1.66666 10 1.66666C11.1389 1.66666 12.2153 1.88541 13.2292 2.32291C14.2431 2.76041 15.1285 3.35763 15.8854 4.11457C16.6424 4.87152 17.2396 5.75693 17.6771 6.77082C18.1146 7.78471 18.3334 8.8611 18.3334 9.99999C18.3334 11.1389 18.1146 12.2153 17.6771 13.2292C17.2396 14.243 16.6424 15.1285 15.8854 15.8854C15.1285 16.6424 14.2431 17.2396 13.2292 17.6771C12.2153 18.1146 11.1389 18.3333 10 18.3333ZM10 17.0833C11.9445 17.0833 13.6111 16.3889 15 15C16.3889 13.6111 17.0834 11.9444 17.0834 9.99999C17.0834 8.05555 16.3889 6.38888 15 4.99999C13.6111 3.6111 11.9445 2.91666 10 2.91666C8.05558 2.91666 6.38891 3.6111 5.00002 4.99999C3.61113 6.38888 2.91669 8.05555 2.91669 9.99999C2.91669 11.9444 3.61113 13.6111 5.00002 15C6.38891 16.3889 8.05558 17.0833 10 17.0833Z" fill="currentColor"/>
</svg>
