<svg width="20" height="20" viewBox="0 0 20 20" fill="currentColor" xmlns="http://www.w3.org/2000/svg">
<path d="M8.77085 11.8958L6.72919 9.85416C6.60419 9.72916 6.45141 9.66666 6.27085 9.66666C6.0903 9.66666 5.93752 9.72916 5.81252 9.85416C5.67363 9.99305 5.60419 10.1562 5.60419 10.3437C5.60419 10.5312 5.66669 10.6875 5.79169 10.8125L8.33335 13.3542C8.44446 13.4653 8.5903 13.5208 8.77085 13.5208C8.95141 13.5208 9.09724 13.4653 9.20835 13.3542L14.2084 8.35416C14.3334 8.22916 14.3959 8.07638 14.3959 7.89582C14.3959 7.71527 14.3264 7.55554 14.1875 7.41666C14.0625 7.29166 13.9063 7.22916 13.7188 7.22916C13.5313 7.22916 13.3681 7.2986 13.2292 7.43749L8.77085 11.8958ZM10 18.3333C8.81946 18.3333 7.72224 18.1215 6.70835 17.6979C5.69446 17.2743 4.81252 16.6875 4.06252 15.9375C3.31252 15.1875 2.72571 14.3055 2.3021 13.2917C1.87849 12.2778 1.66669 11.1805 1.66669 9.99999C1.66669 8.83332 1.87849 7.74305 2.3021 6.72916C2.72571 5.71527 3.31252 4.83332 4.06252 4.08332C4.81252 3.33332 5.69446 2.74305 6.70835 2.31249C7.72224 1.88193 8.81946 1.66666 10 1.66666C11.1667 1.66666 12.257 1.88193 13.2709 2.31249C14.2847 2.74305 15.1667 3.33332 15.9167 4.08332C16.6667 4.83332 17.257 5.71527 17.6875 6.72916C18.1181 7.74305 18.3334 8.83332 18.3334 9.99999C18.3334 11.1805 18.1181 12.2778 17.6875 13.2917C17.257 14.3055 16.6667 15.1875 15.9167 15.9375C15.1667 16.6875 14.2847 17.2743 13.2709 17.6979C12.257 18.1215 11.1667 18.3333 10 18.3333Z" fill="currentColor"/>
</svg>
