<svg width="20" height="20" viewBox="0 0 20 20" fill="currenColor" xmlns="http://www.w3.org/2000/svg">
<mask id="mask0_5385_14533" style="mask-type:alpha" maskUnits="userSpaceOnUse" x="0" y="0" width="20" height="20">
<rect width="20" height="20" fill="#D9D9D9"/>
</mask>
<g mask="url(#mask0_5385_14533)">
<path d="M9.96455 18C7.9163 18 6.1318 17.3296 4.61105 15.9887C3.09093 14.6472 2.22058 12.9647 2 10.9412H3.44165C3.67799 12.5725 4.41064 13.9216 5.63959 14.9882C6.86854 16.0549 8.31019 16.5882 9.96455 16.5882C11.808 16.5882 13.3719 15.9489 14.6563 14.6701C15.9401 13.392 16.582 11.8353 16.582 10C16.582 8.16471 15.9401 6.60769 14.6563 5.32894C13.3719 4.05082 11.808 3.41176 9.96455 3.41176C8.94042 3.41176 7.97554 3.63922 7.0699 4.09412C6.16362 4.54902 5.38749 5.17647 4.74151 5.97647H7.19941V7.38824H2.40177V2.61176H3.81979V4.84706C4.59183 3.93726 5.51354 3.23514 6.58493 2.74071C7.65633 2.2469 8.78287 2 9.96455 2C11.0832 2 12.131 2.21176 13.1078 2.63529C14.0847 3.05882 14.9355 3.63137 15.6603 4.35294C16.385 5.07451 16.956 5.9178 17.3732 6.88282C17.7911 7.84722 18 8.88627 18 10C18 11.1137 17.7911 12.1528 17.3732 13.1172C16.956 14.0822 16.385 14.9255 15.6603 15.6471C14.9355 16.3686 14.0847 16.9412 13.1078 17.3647C12.131 17.7882 11.0832 18 9.96455 18ZM12.8006 13.7882L9.27917 10.2824V5.29412H10.6972V9.71765L13.7932 12.8L12.8006 13.7882Z" fill="#1C1B1F"/>
</g>
</svg>
