<svg width="20" height="20" viewBox="0 0 20 20" fill="currentColor" xmlns="http://www.w3.org/2000/svg">
<path d="M9.43746 14.1667H10.6875V9.16669H9.43746V14.1667ZM9.99996 7.62502C10.1944 7.62502 10.3576 7.56252 10.4895 7.43752C10.6215 7.31252 10.6875 7.1528 10.6875 6.95835C10.6875 6.76391 10.6215 6.59724 10.4895 6.45835C10.3576 6.31946 10.1944 6.25002 9.99996 6.25002C9.80551 6.25002 9.64232 6.31946 9.51038 6.45835C9.37843 6.59724 9.31246 6.76391 9.31246 6.95835C9.31246 7.1528 9.37843 7.31252 9.51038 7.43752C9.64232 7.56252 9.80551 7.62502 9.99996 7.62502ZM9.99996 18.3334C8.86107 18.3334 7.78468 18.1146 6.77079 17.6771C5.7569 17.2396 4.87149 16.6424 4.11454 15.8854C3.3576 15.1285 2.76038 14.2431 2.32288 13.2292C1.88538 12.2153 1.66663 11.132 1.66663 9.97919C1.66663 8.8403 1.88538 7.76391 2.32288 6.75002C2.76038 5.73613 3.3576 4.85419 4.11454 4.10419C4.87149 3.35419 5.7569 2.76044 6.77079 2.32294C7.78468 1.88544 8.86801 1.66669 10.0208 1.66669C11.1597 1.66669 12.2361 1.88544 13.25 2.32294C14.2638 2.76044 15.1458 3.35419 15.8958 4.10419C16.6458 4.85419 17.2395 5.73613 17.677 6.75002C18.1145 7.76391 18.3333 8.84724 18.3333 10C18.3333 11.1389 18.1145 12.2153 17.677 13.2292C17.2395 14.2431 16.6458 15.1285 15.8958 15.8854C15.1458 16.6424 14.2638 17.2396 13.25 17.6771C12.2361 18.1146 11.1527 18.3334 9.99996 18.3334Z" fill="currentColor"/>
</svg>
