<svg width="20" height="20" viewBox="0 0 20 20" fill="currentColor" xmlns="http://www.w3.org/2000/svg">
<path d="M10 18.3333C8.83335 18.3333 7.74308 18.1146 6.72919 17.6771C5.7153 17.2396 4.83335 16.6458 4.08335 15.8958C3.33335 15.1458 2.74308 14.2604 2.31252 13.2396C1.88196 12.2187 1.66669 11.125 1.66669 9.95832C1.66669 8.79166 1.88196 7.70485 2.31252 6.69791C2.74308 5.69096 3.33335 4.81249 4.08335 4.06249C4.83335 3.31249 5.7153 2.72568 6.72919 2.30207C7.74308 1.87846 8.83335 1.66666 10 1.66666C11.1667 1.66666 12.257 1.87846 13.2709 2.30207C14.2847 2.72568 15.1667 3.31249 15.9167 4.06249C16.6667 4.81249 17.257 5.69096 17.6875 6.69791C18.1181 7.70485 18.3334 8.79166 18.3334 9.95832C18.3334 11.125 18.1181 12.2187 17.6875 13.2396C17.257 14.2604 16.6667 15.1458 15.9167 15.8958C15.1667 16.6458 14.2847 17.2396 13.2709 17.6771C12.257 18.1146 11.1667 18.3333 10 18.3333ZM10 17.125C10.4861 16.625 10.8924 16.0521 11.2188 15.4062C11.5452 14.7604 11.8125 13.993 12.0209 13.1042H8.00002C8.19446 13.9375 8.45488 14.6875 8.78127 15.3542C9.10766 16.0208 9.51391 16.6111 10 17.125ZM8.22919 16.875C7.88196 16.3472 7.58335 15.7778 7.33335 15.1667C7.08335 14.5555 6.87502 13.868 6.70835 13.1042H3.58335C4.11113 14.0903 4.72224 14.8646 5.41669 15.4271C6.11113 15.9896 7.04863 16.4722 8.22919 16.875ZM11.7917 16.8542C12.7917 16.5347 13.691 16.0555 14.4896 15.4167C15.2882 14.7778 15.9306 14.0069 16.4167 13.1042H13.3125C13.132 13.8542 12.9202 14.5347 12.6771 15.1458C12.434 15.7569 12.1389 16.3264 11.7917 16.8542ZM3.16669 11.8542H6.47919C6.43752 11.4792 6.41321 11.1424 6.40627 10.8437C6.39933 10.5451 6.39585 10.25 6.39585 9.95832C6.39585 9.6111 6.4028 9.30207 6.41669 9.03124C6.43058 8.76041 6.45835 8.45832 6.50002 8.12499H3.16669C3.06946 8.45832 3.00349 8.75693 2.96877 9.02082C2.93405 9.28471 2.91669 9.59721 2.91669 9.95832C2.91669 10.3194 2.93405 10.6424 2.96877 10.9271C3.00349 11.2118 3.06946 11.5208 3.16669 11.8542V11.8542ZM7.77085 11.8542H12.25C12.3056 11.4236 12.3403 11.0729 12.3542 10.8021C12.3681 10.5312 12.375 10.25 12.375 9.95832C12.375 9.68055 12.3681 9.41318 12.3542 9.15624C12.3403 8.8993 12.3056 8.55555 12.25 8.12499H7.77085C7.7153 8.55555 7.68058 8.8993 7.66669 9.15624C7.6528 9.41318 7.64585 9.68055 7.64585 9.95832C7.64585 10.25 7.6528 10.5312 7.66669 10.8021C7.68058 11.0729 7.7153 11.4236 7.77085 11.8542V11.8542ZM13.5 11.8542H16.8334C16.9306 11.5208 16.9965 11.2118 17.0313 10.9271C17.066 10.6424 17.0834 10.3194 17.0834 9.95832C17.0834 9.59721 17.066 9.28471 17.0313 9.02082C16.9965 8.75693 16.9306 8.45832 16.8334 8.12499H13.5209C13.5625 8.6111 13.5903 8.98263 13.6042 9.23957C13.6181 9.49652 13.625 9.7361 13.625 9.95832C13.625 10.2639 13.6146 10.5521 13.5938 10.8229C13.5729 11.0937 13.5417 11.4375 13.5 11.8542V11.8542ZM13.2917 6.87499H16.4167C15.9584 5.91666 15.3299 5.11805 14.5313 4.47916C13.7327 3.84027 12.8125 3.38888 11.7709 3.12499C12.1181 3.63888 12.4132 4.19443 12.6563 4.79166C12.8993 5.38888 13.1111 6.08332 13.2917 6.87499V6.87499ZM8.00002 6.87499H12.0417C11.8889 6.13888 11.632 5.42707 11.2709 4.73957C10.9097 4.05207 10.4861 3.44443 10 2.91666C9.55558 3.29166 9.18058 3.78471 8.87502 4.39582C8.56946 5.00693 8.2778 5.83332 8.00002 6.87499V6.87499ZM3.58335 6.87499H6.72919C6.88196 6.12499 7.07641 5.45485 7.31252 4.86457C7.54863 4.2743 7.84724 3.70138 8.20835 3.14582C7.16669 3.40971 6.25696 3.85416 5.47919 4.47916C4.70141 5.10416 4.06946 5.90277 3.58335 6.87499V6.87499Z" fill="currentColor"/>
</svg>
