<svg width="20" height="20" viewBox="0 0 20 20" fill="currentColor" xmlns="http://www.w3.org/2000/svg">
<path d="M10 13.0208C10.7917 13.0208 11.5208 12.8264 12.1875 12.4375C12.8542 12.0486 13.375 11.5139 13.75 10.8333C13.375 10.1528 12.8542 9.61806 12.1875 9.22917C11.5208 8.84028 10.7917 8.64583 10 8.64583C9.20833 8.64583 8.47917 8.84028 7.8125 9.22917C7.14583 9.61806 6.625 10.1528 6.25 10.8333C6.625 11.5139 7.14583 12.0486 7.8125 12.4375C8.47917 12.8264 9.20833 13.0208 10 13.0208ZM10 14.0625C8.88889 14.0625 7.89583 13.7639 7.02083 13.1667C6.14583 12.5694 5.50694 11.7917 5.10417 10.8333C5.50694 9.875 6.14583 9.09722 7.02083 8.5C7.89583 7.90278 8.88889 7.60417 10 7.60417C11.1111 7.60417 12.1042 7.90278 12.9792 8.5C13.8542 9.09722 14.4931 9.875 14.8958 10.8333C14.4931 11.7917 13.8542 12.5694 12.9792 13.1667C12.1042 13.7639 11.1111 14.0625 10 14.0625ZM10 11.875C9.70833 11.875 9.46181 11.7743 9.26042 11.5729C9.05903 11.3715 8.95833 11.125 8.95833 10.8333C8.95833 10.5417 9.05903 10.2951 9.26042 10.0938C9.46181 9.89236 9.70833 9.79167 10 9.79167C10.2917 9.79167 10.5382 9.89236 10.7396 10.0938C10.941 10.2951 11.0417 10.5417 11.0417 10.8333C11.0417 11.125 10.941 11.3715 10.7396 11.5729C10.5382 11.7743 10.2917 11.875 10 11.875ZM2.5 17.5V2.5H17.5V17.5H2.5ZM3.75 16.25H16.25V5.41667H3.75V16.25Z" fill="currentColor"/>
</svg>
