<svg width="20" height="20" viewBox="0 0 20 20" fill="currentColor" xmlns="http://www.w3.org/2000/svg">
<path d="M9.39584 17.4583C7.68751 17.3194 6.25001 16.618 5.08334 15.3542C3.91668 14.0903 3.33334 12.5903 3.33334 10.8542C3.33334 9.78471 3.57987 8.77777 4.07293 7.83332C4.56598 6.88888 5.25695 6.11805 6.14584 5.52082L7.04168 6.41666C6.2639 6.87499 5.65973 7.50346 5.22918 8.30207C4.79862 9.10068 4.58334 9.95138 4.58334 10.8542C4.58334 12.243 5.04168 13.4444 5.95834 14.4583C6.87501 15.4722 8.02084 16.0555 9.39584 16.2083V17.4583ZM10.6458 17.4583V16.2083C12.0347 16.0417 13.1806 15.4549 14.0833 14.4479C14.9861 13.441 15.4375 12.243 15.4375 10.8542C15.4375 9.34027 14.9132 8.05902 13.8646 7.01041C12.816 5.9618 11.5347 5.43749 10.0208 5.43749H9.60418L10.8542 6.68749L9.95834 7.58332L7.18751 4.81249L9.95834 2.04166L10.8542 2.93749L9.60418 4.18749H10.0208C11.882 4.18749 13.4583 4.8368 14.75 6.13541C16.0417 7.43402 16.6875 9.00693 16.6875 10.8542C16.6875 12.5903 16.1076 14.0903 14.9479 15.3542C13.7882 16.618 12.3542 17.3194 10.6458 17.4583Z" fill="currentColor"/>
</svg>
