<svg width="20" height="20" viewBox="0 0 20 20" fill="currentColor" xmlns="http://www.w3.org/2000/svg">
<path d="M9.99999 18.3333C8.84721 18.3333 7.76388 18.1146 6.74999 17.6771C5.7361 17.2396 4.85416 16.6458 4.10416 15.8958C3.35416 15.1458 2.76041 14.2639 2.32291 13.25C1.88541 12.2361 1.66666 11.1528 1.66666 9.99999C1.66666 8.84721 1.88541 7.76388 2.32291 6.74999C2.76041 5.7361 3.35416 4.85416 4.10416 4.10416C4.85416 3.35416 5.7361 2.76041 6.74999 2.32291C7.76388 1.88541 8.84721 1.66666 9.99999 1.66666C11.1528 1.66666 12.2361 1.88541 13.25 2.32291C14.2639 2.76041 15.1458 3.35416 15.8958 4.10416C16.6458 4.85416 17.2396 5.7361 17.6771 6.74999C18.1146 7.76388 18.3333 8.84721 18.3333 9.99999C18.3333 11.1528 18.1146 12.2361 17.6771 13.25C17.2396 14.2639 16.6458 15.1458 15.8958 15.8958C15.1458 16.6458 14.2639 17.2396 13.25 17.6771C12.2361 18.1146 11.1528 18.3333 9.99999 18.3333ZM9.99999 17.0833C11.9722 17.0833 13.6458 16.3958 15.0208 15.0208C16.3958 13.6458 17.0833 11.9722 17.0833 9.99999C17.0833 9.15277 16.9375 8.34027 16.6458 7.56249C16.3542 6.78471 15.9444 6.07638 15.4167 5.43749L5.43749 15.4167C6.06249 15.9583 6.76735 16.3715 7.55207 16.6562C8.3368 16.941 9.15277 17.0833 9.99999 17.0833ZM4.60416 14.5625L14.5625 4.60416C13.9236 4.06249 13.2153 3.64582 12.4375 3.35416C11.6597 3.06249 10.8472 2.91666 9.99999 2.91666C8.02777 2.91666 6.35416 3.60416 4.97916 4.97916C3.60416 6.35416 2.91666 8.02777 2.91666 9.99999C2.91666 10.8472 3.06943 11.6632 3.37499 12.4479C3.68055 13.2326 4.09027 13.9375 4.60416 14.5625Z" fill="currentColor"/>
</svg>
