<svg width="51" height="51" viewBox="0 0 51 51" fill="currentColor" xmlns="http://www.w3.org/2000/svg">
<path d="M46.8328 50.3665L34.3495 37.9998H12.9995L3.66615 47.3332V6.49984H9.49948L24.6661 21.6665H18.1328L0.632812 4.1665L3.89948 0.899837L50.0995 47.0998L46.8328 50.3665ZM47.2995 37.6498L31.3161 21.6665H40.9995V16.9998H26.6495L24.3161 14.6665H40.9995V9.99984H22.3328V12.6832L10.3161 0.666504H45.6661C46.9495 0.666504 48.0485 1.12306 48.9631 2.03617C49.8763 2.95084 50.3328 4.04984 50.3328 5.33317V33.3332C50.3328 34.3443 50.0513 35.2286 49.4881 35.9862C48.9235 36.7453 48.1939 37.2998 47.2995 37.6498ZM15.3328 28.6665C15.9939 28.6665 16.5485 28.4425 16.9965 27.9945C17.4429 27.5481 17.6661 26.9943 17.6661 26.3332C17.6661 25.6721 17.4429 25.1175 16.9965 24.6695C16.5485 24.2231 15.9939 23.9998 15.3328 23.9998C14.6717 23.9998 14.1171 24.2231 13.6691 24.6695C13.2227 25.1175 12.9995 25.6721 12.9995 26.3332C12.9995 26.9943 13.2227 27.5481 13.6691 27.9945C14.1171 28.4425 14.6717 28.6665 15.3328 28.6665ZM15.3328 21.6665C15.9939 21.6665 16.5485 21.4425 16.9965 20.9945C17.4429 20.5481 17.6661 19.9943 17.6661 19.3332C17.6661 18.6721 17.4429 18.1175 16.9965 17.6695C16.5485 17.2231 15.9939 16.9998 15.3328 16.9998C14.6717 16.9998 14.1171 17.2231 13.6691 17.6695C13.2227 18.1175 12.9995 18.6721 12.9995 19.3332C12.9995 19.9943 13.2227 20.5481 13.6691 20.9945C14.1171 21.4425 14.6717 21.6665 15.3328 21.6665Z" fill="#ACACAC"/>
</svg>
