<svg width="36" height="36" viewBox="0 0 36 36" fill="currentColor" xmlns="http://www.w3.org/2000/svg">
<path d="M3 33L9.975 13.5L22.6125 25.9875L3 33ZM20.8875 19.3125L19.6125 18.0375L31.6875 5.96249L35.325 9.63749L34.05 10.9125L31.6875 8.51249L20.8875 19.3125ZM14.925 13.5L13.65 12.225L16.6875 9.18749L13.725 6.22499L15 4.94999L19.2375 9.18749L14.925 13.5ZM17.9625 16.3875L16.6875 15.1125L24.1875 7.61249L20.0625 3.48749L21.3375 2.21249L26.7375 7.61249L17.9625 16.3875ZM23.8875 22.35L22.6125 21.075L27.5625 16.125L32.5875 21.15L31.3125 22.425L27.5625 18.675L23.8875 22.35Z" fill="currentColor"/>
</svg>
