<svg width="36" height="36" viewBox="0 0 36 36" fill="currentColor" xmlns="http://www.w3.org/2000/svg">
<path d="M18.7071 33.7929C18.3166 34.1834 17.6834 34.1834 17.2929 33.7929L13.7554 30.2554C13.5679 30.0679 13.3135 29.9625 13.0483 29.9625H5.5C4.94772 29.9625 4.5 29.5148 4.5 28.9625V3.96249C4.5 3.41021 4.94772 2.96249 5.5 2.96249H30.5C31.0523 2.96249 31.5 3.41021 31.5 3.96249V28.9625C31.5 29.5148 31.0523 29.9625 30.5 29.9625H22.9517C22.6865 29.9625 22.4321 30.0679 22.2446 30.2554L18.7071 33.7929ZM18.075 18.675C19.525 18.675 20.75 18.175 21.75 17.175C22.75 16.175 23.25 14.95 23.25 13.5C23.25 12.05 22.75 10.825 21.75 9.82499C20.75 8.82499 19.525 8.32499 18.075 8.32499C16.625 8.32499 15.4 8.82499 14.4 9.82499C13.4 10.825 12.9 12.05 12.9 13.5C12.9 14.95 13.4 16.175 14.4 17.175C15.4 18.175 16.625 18.675 18.075 18.675ZM17.2929 30.4554C17.6834 30.8459 18.3166 30.8459 18.7071 30.4554L21.1571 28.0054C21.3446 27.8179 21.599 27.7125 21.8642 27.7125H28.2603C28.8069 27.7125 29.25 27.2694 29.25 26.7228V26.7228C29.25 26.4454 29.1345 26.1797 28.9258 25.997C27.5063 24.7541 25.9144 23.7322 24.15 22.9312C22.25 22.0687 20.2 21.6375 18 21.6375C15.8 21.6375 13.75 22.0687 11.85 22.9312C10.0856 23.7322 8.4937 24.7541 7.07425 25.997C6.86554 26.1797 6.75 26.4454 6.75 26.7228V26.7228C6.75 27.2694 7.19308 27.7125 7.73965 27.7125H14.1358C14.401 27.7125 14.6554 27.8179 14.8429 28.0054L17.2929 30.4554Z" fill="currentColor"/>
</svg>
