<svg width="40" height="40" viewBox="0 0 40 40" fill="currentColor" xmlns="http://www.w3.org/2000/svg">
<path d="M8.52979 26.157V13.845" stroke="#2898FF" stroke-width="2" stroke-linecap="round" stroke-linejoin="round"/>
<path d="M26.1558 31.469H13.8428" stroke="#2898FF" stroke-width="2" stroke-linecap="round" stroke-linejoin="round"/>
<path d="M31.4697 13.845V26.157" stroke="#2898FF" stroke-width="2" stroke-linecap="round" stroke-linejoin="round"/>
<path d="M13.8428 8.53101H26.1558" stroke="#2898FF" stroke-width="2" stroke-linecap="round" stroke-linejoin="round"/>
<path d="M7.74188 6.521H9.62788C9.97796 6.521 10.3137 6.66007 10.5613 6.90762C10.8088 7.15516 10.9479 7.49091 10.9479 7.841V9.728C10.9479 10.0778 10.8089 10.4133 10.5615 10.6607C10.3142 10.908 9.9787 11.047 9.62888 11.047H7.74088C7.39105 11.047 7.05556 10.908 6.8082 10.6607C6.56084 10.4133 6.42188 10.0778 6.42188 9.728V7.841C6.42188 7.49091 6.56095 7.15516 6.80849 6.90762C7.05604 6.66007 7.39179 6.521 7.74188 6.521V6.521Z" stroke="#2898FF" stroke-width="2" stroke-linecap="round" stroke-linejoin="round"/>
<path d="M30.3708 6.521H32.2598C32.6093 6.521 32.9446 6.65986 33.1917 6.90703C33.4389 7.1542 33.5778 7.48944 33.5778 7.839V9.728C33.5778 10.0778 33.4388 10.4133 33.1914 10.6607C32.9441 10.908 32.6086 11.047 32.2588 11.047H30.3708C30.0209 11.047 29.6854 10.908 29.4381 10.6607C29.1907 10.4133 29.0518 10.0778 29.0518 9.728V7.84C29.0518 7.49018 29.1907 7.15468 29.4381 6.90732C29.6854 6.65996 30.0209 6.521 30.3708 6.521V6.521Z" stroke="#2898FF" stroke-width="2" stroke-linecap="round" stroke-linejoin="round"/>
<path d="M7.73987 28.954H9.62987C9.97943 28.954 10.3147 29.0928 10.5618 29.34C10.809 29.5872 10.9479 29.9224 10.9479 30.272V32.16C10.9479 32.5098 10.8089 32.8453 10.5615 33.0927C10.3142 33.34 9.9787 33.479 9.62888 33.479H7.73987C7.39032 33.479 7.05508 33.3401 6.80791 33.0929C6.56074 32.8458 6.42188 32.5105 6.42188 32.161V30.272C6.42188 29.9224 6.56074 29.5872 6.80791 29.34C7.05508 29.0928 7.39032 28.954 7.73987 28.954V28.954Z" stroke="#2898FF" stroke-width="2" stroke-linecap="round" stroke-linejoin="round"/>
<path d="M30.3698 28.954H32.2598C32.6093 28.954 32.9446 29.0928 33.1917 29.34C33.4389 29.5872 33.5778 29.9224 33.5778 30.272V32.16C33.5778 32.5098 33.4388 32.8453 33.1914 33.0927C32.9441 33.34 32.6086 33.479 32.2588 33.479H30.3708C30.0209 33.479 29.6854 33.34 29.4381 33.0927C29.1907 32.8453 29.0518 32.5098 29.0518 32.16V30.272C29.0518 29.9224 29.1906 29.5872 29.4378 29.34C29.685 29.0928 30.0202 28.954 30.3698 28.954V28.954Z" stroke="#2898FF" stroke-width="2" stroke-linecap="round" stroke-linejoin="round"/>
<path d="M23.4937 23.556C24.0614 23.5514 24.6046 23.3243 25.0065 22.9233C25.4085 22.5224 25.6371 21.9798 25.6431 21.4121C25.6491 20.8444 25.4321 20.297 25.0388 19.8877C24.6454 19.4783 24.1071 19.2396 23.5397 19.223C23.4876 18.7561 23.3416 18.3045 23.1105 17.8954C22.8794 17.4863 22.568 17.1282 22.195 16.8426C21.8219 16.5569 21.395 16.3496 20.9398 16.2332C20.4846 16.1168 20.0106 16.0936 19.5462 16.165C19.0818 16.2365 18.6367 16.4011 18.2376 16.649C17.8385 16.8968 17.4936 17.2229 17.2236 17.6074C16.9537 17.992 16.7644 18.4272 16.6669 18.8868C16.5695 19.3464 16.566 19.821 16.6567 20.282H15.8797C15.4455 20.282 15.0291 20.4545 14.7221 20.7615C14.4151 21.0685 14.2427 21.4849 14.2427 21.919C14.2427 22.3532 14.4151 22.7695 14.7221 23.0765C15.0291 23.3835 15.4455 23.556 15.8797 23.556H23.4937Z" stroke="#2898FF" stroke-width="2" stroke-linecap="round" stroke-linejoin="round"/>
</svg>
