<svg width="48" height="48" viewBox="0 0 48 48" fill="currentColor" xmlns="http://www.w3.org/2000/svg">
<path d="M24 44C21.2333 44 18.6333 43.475 16.2 42.425C13.7667 41.375 11.65 39.95 9.85 38.15C8.05 36.35 6.625 34.2333 5.575 31.8C4.525 29.3667 4 26.7667 4 24C4 21.2333 4.525 18.6333 5.575 16.2C6.625 13.7667 8.05 11.65 9.85 9.85C11.65 8.05 13.7667 6.625 16.2 5.575C18.6333 4.525 21.2333 4 24 4C26.7667 4 29.3667 4.525 31.8 5.575C34.2333 6.625 36.35 8.05 38.15 9.85C39.95 11.65 41.375 13.7667 42.425 16.2C43.475 18.6333 44 21.2333 44 24C44 26.7667 43.475 29.3667 42.425 31.8C41.375 34.2333 39.95 36.35 38.15 38.15C36.35 39.95 34.2333 41.375 31.8 42.425C29.3667 43.475 26.7667 44 24 44ZM24 41C28.7333 41 32.75 39.35 36.05 36.05C39.35 32.75 41 28.7333 41 24C41 21.9667 40.65 20.0167 39.95 18.15C39.25 16.2833 38.2667 14.5833 37 13.05L13.05 37C14.55 38.3 16.2417 39.2917 18.125 39.975C20.0083 40.6583 21.9667 41 24 41ZM11.05 34.95L34.95 11.05C33.4167 9.75 31.7167 8.75 29.85 8.05C27.9833 7.35 26.0333 7 24 7C19.2667 7 15.25 8.65 11.95 11.95C8.65 15.25 7 19.2667 7 24C7 26.0333 7.36667 27.9917 8.1 29.875C8.83333 31.7583 9.81667 33.45 11.05 34.95Z" fill="currentColor"/>
</svg>
