<svg width="72" height="72" viewBox="0 0 72 72" fill="currentColor" xmlns="http://www.w3.org/2000/svg">
<path d="M33.75 33H38.25V18H33.75V33ZM36 43.5C36.6 43.5 37.125 43.275 37.575 42.825C38.025 42.375 38.25 41.85 38.25 41.25C38.25 40.65 38.025 40.125 37.575 39.675C37.125 39.225 36.6 39 36 39C35.4 39 34.875 39.225 34.425 39.675C33.975 40.125 33.75 40.65 33.75 41.25C33.75 41.85 33.975 42.375 34.425 42.825C34.875 43.275 35.4 43.5 36 43.5ZM36 66C27.95 59.15 21.9375 52.7875 17.9625 46.9125C13.9875 41.0375 12 35.6 12 30.6C12 23.1 14.4125 17.125 19.2375 12.675C24.0625 8.225 29.65 6 36 6C42.35 6 47.9375 8.225 52.7625 12.675C57.5875 17.125 60 23.1 60 30.6C60 35.6 58.0125 41.0375 54.0375 46.9125C50.0625 52.7875 44.05 59.15 36 66Z" fill="currentColor"/>
</svg>
