<svg width="20" height="20" viewBox="0 0 20 20" fill="currentColor" xmlns="http://www.w3.org/2000/svg">
<path d="M3.75 17.5C3.41667 17.5 3.125 17.375 2.875 17.125C2.625 16.875 2.5 16.5833 2.5 16.25V3.75C2.5 3.41667 2.625 3.125 2.875 2.875C3.125 2.625 3.41667 2.5 3.75 2.5H16.25C16.5833 2.5 16.875 2.625 17.125 2.875C17.375 3.125 17.5 3.41667 17.5 3.75V16.25C17.5 16.5833 17.375 16.875 17.125 17.125C16.875 17.375 16.5833 17.5 16.25 17.5H3.75ZM8.72917 13.0625C8.8125 13.0625 8.89236 13.0486 8.96875 13.0208C9.04514 12.9931 9.11111 12.9444 9.16667 12.875L14.3125 7.70833C14.4375 7.58333 14.5 7.4375 14.5 7.27083C14.5 7.10417 14.4375 6.95139 14.3125 6.8125C14.1875 6.70139 14.0382 6.64583 13.8646 6.64583C13.691 6.64583 13.5417 6.70833 13.4167 6.83333L8.72917 11.5208L6.6875 9.47917C6.5625 9.35417 6.41667 9.29167 6.25 9.29167C6.08333 9.29167 5.9375 9.35417 5.8125 9.47917C5.6875 9.60417 5.625 9.75694 5.625 9.9375C5.625 10.1181 5.6875 10.2639 5.8125 10.375L8.29167 12.875C8.36111 12.9444 8.43403 12.9931 8.51042 13.0208C8.58681 13.0486 8.65972 13.0625 8.72917 13.0625V13.0625Z" fill="currentColor"/>
</svg>
