<svg width="20" height="20" viewBox="0 0 20 20" fill="currentColor" xmlns="http://www.w3.org/2000/svg">
<path d="M10.0625 14.1667C10.2431 14.1667 10.3924 14.1076 10.5104 13.9896C10.6285 13.8715 10.6875 13.7222 10.6875 13.5417V10.7083H13.5625C13.7292 10.7083 13.8715 10.6493 13.9896 10.5312C14.1077 10.4132 14.1667 10.2639 14.1667 10.0833C14.1667 9.90277 14.1077 9.75346 13.9896 9.63541C13.8715 9.51735 13.7222 9.45832 13.5417 9.45832H10.6875V6.43749C10.6875 6.27082 10.6285 6.12846 10.5104 6.01041C10.3924 5.89235 10.2431 5.83332 10.0625 5.83332C9.88196 5.83332 9.73266 5.89235 9.6146 6.01041C9.49655 6.12846 9.43752 6.27777 9.43752 6.45832V9.45832H6.43752C6.27085 9.45832 6.12849 9.51735 6.01044 9.63541C5.89238 9.75346 5.83335 9.90277 5.83335 10.0833C5.83335 10.2639 5.89238 10.4132 6.01044 10.5312C6.12849 10.6493 6.2778 10.7083 6.45835 10.7083H9.43752V13.5625C9.43752 13.7292 9.49655 13.8715 9.6146 13.9896C9.73266 14.1076 9.88196 14.1667 10.0625 14.1667ZM10 18.3333C8.81946 18.3333 7.72224 18.1215 6.70835 17.6979C5.69446 17.2743 4.81252 16.6875 4.06252 15.9375C3.31252 15.1875 2.72571 14.3055 2.3021 13.2917C1.87849 12.2778 1.66669 11.1805 1.66669 9.99999C1.66669 8.83332 1.87849 7.74305 2.3021 6.72916C2.72571 5.71527 3.31252 4.83332 4.06252 4.08332C4.81252 3.33332 5.69446 2.74305 6.70835 2.31249C7.72224 1.88193 8.81946 1.66666 10 1.66666C11.1667 1.66666 12.257 1.88193 13.2709 2.31249C14.2847 2.74305 15.1667 3.33332 15.9167 4.08332C16.6667 4.83332 17.257 5.71527 17.6875 6.72916C18.1181 7.74305 18.3334 8.83332 18.3334 9.99999C18.3334 11.1805 18.1181 12.2778 17.6875 13.2917C17.257 14.3055 16.6667 15.1875 15.9167 15.9375C15.1667 16.6875 14.2847 17.2743 13.2709 17.6979C12.257 18.1215 11.1667 18.3333 10 18.3333Z" fill="currentColor"/>
</svg>
