<svg width="40" height="40" viewBox="0 0 40 40" fill="none" xmlns="http://www.w3.org/2000/svg">
<g clip-path="url(#clip0_3619_32381)">
<path d="M25.8333 22.4998C25.8333 25.8332 21.6667 28.3332 21.6667 30.8332H18.3333C18.3333 28.3332 14.1667 25.8332 14.1667 22.4998C14.1667 19.2832 16.7833 16.6665 20 16.6665C23.2167 16.6665 25.8333 19.2832 25.8333 22.4998ZM21.6667 32.4998H18.3333V34.9998H21.6667V32.4998ZM31.6667 21.6665C31.6667 24.4665 30.6833 27.0165 29.0333 29.0332L31.4 31.3998C33.6333 28.7832 35 25.3832 35 21.6665C35 17.0998 32.95 13.0165 29.7333 10.2665L27.3667 12.6332C29.9833 14.7665 31.6667 18.0332 31.6667 21.6665ZM26.6667 8.33317L20 1.6665V6.6665C11.7167 6.6665 5 13.3832 5 21.6665C5 25.3832 6.36667 28.7832 8.6 31.3998L10.9667 29.0332C9.31667 27.0165 8.33333 24.4665 8.33333 21.6665C8.33333 15.2332 13.5667 9.99984 20 9.99984V14.9998L26.6667 8.33317Z" fill="currentColor"/>
</g>
<defs>
<clipPath id="clip0_3619_32381">
<rect width="40" height="40" fill="white"/>
</clipPath>
</defs>
</svg>
