<svg width="178" height="48" viewBox="0 0 178 48" fill="none" xmlns="http://www.w3.org/2000/svg">
<g clip-path="url(#clip0_2878_134)">
<path d="M24.5278 12H30.6168L35.091 27.8963L38.9716 12H45.3297L38.3779 35.687H32.5027L27.5704 19.3963L22.827 35.687H16.9518L10 12H16.3601L20.2406 27.8963L24.7129 12H30.8039" fill="white"/>
<path d="M47.7812 36H60.7839L47.7812 20.3407V36Z" fill="white"/>
<path d="M75.2154 36V28.226L65.3164 36H75.2154Z" fill="white"/>
<path d="M62.0993 12L63.1052 13.2556L54.7695 19.7907L57.6442 23.2593L65.5675 17.1944L68.6025 20.75L60.6085 27.0074L63.842 30.8407L72.5919 23.9037L75.2145 26.9537V12H62.0993Z" fill="white"/>
<path d="M56.8346 12L47.7812 19.0074V12H56.8346Z" fill="white"/>
<path d="M83.7089 12H77.0625L86.3335 35.6685H89.3875V28.8019L83.7089 12Z" fill="white"/>
<path d="M95.0634 12H101.71L92.4408 35.6685H89.3867V28.8019L95.0634 12Z" fill="white"/>
<path d="M119.999 12H103.543V35.6685H120.573V30.65H109.292V25.8037H119.281V21.237H109.22V16.8111H119.981L119.999 12Z" fill="white"/>
<path d="M131.262 12H124.473V35.6685H130.239V20.1574L139.94 35.6685H146.622V12H140.909V27.3204L131.262 12Z" fill="white"/>
<path d="M168.999 12H149.273V16.8111H156.153V35.6685H162.118V16.8111H168.999V12Z" fill="white"/>
</g>
<defs>
<clipPath id="clip0_2878_134">
<rect width="159" height="24" fill="white" transform="translate(10 12)"/>
</clipPath>
</defs>
</svg>
