<svg width="20" height="20" viewBox="0 0 20 20" fill="currentColor" xmlns="http://www.w3.org/2000/svg">
<path d="M4.33331 11C4.05554 11 3.81942 10.9028 3.62498 10.7083C3.43054 10.5139 3.33331 10.2778 3.33331 10C3.33331 9.72222 3.43054 9.48611 3.62498 9.29167C3.81942 9.09722 4.05554 9 4.33331 9C4.61109 9 4.8472 9.09722 5.04165 9.29167C5.23609 9.48611 5.33331 9.72222 5.33331 10C5.33331 10.2778 5.23609 10.5139 5.04165 10.7083C4.8472 10.9028 4.61109 11 4.33331 11V11ZM9.99998 11C9.7222 11 9.48609 10.9028 9.29165 10.7083C9.0972 10.5139 8.99998 10.2778 8.99998 10C8.99998 9.72222 9.0972 9.48611 9.29165 9.29167C9.48609 9.09722 9.7222 9 9.99998 9C10.2778 9 10.5139 9.09722 10.7083 9.29167C10.9028 9.48611 11 9.72222 11 10C11 10.2778 10.9028 10.5139 10.7083 10.7083C10.5139 10.9028 10.2778 11 9.99998 11ZM15.6666 11C15.3889 11 15.1528 10.9028 14.9583 10.7083C14.7639 10.5139 14.6666 10.2778 14.6666 10C14.6666 9.72222 14.7639 9.48611 14.9583 9.29167C15.1528 9.09722 15.3889 9 15.6666 9C15.9444 9 16.1805 9.09722 16.375 9.29167C16.5694 9.48611 16.6666 9.72222 16.6666 10C16.6666 10.2778 16.5694 10.5139 16.375 10.7083C16.1805 10.9028 15.9444 11 15.6666 11V11Z" fill="currentColor"/>
</svg>
