<svg width="64" height="64" viewBox="0 0 64 64" fill="currentColor" xmlns="http://www.w3.org/2000/svg">
<path d="M56.2018 62.1334L50.0685 56.0001H12.0018C10.8907 56.0001 9.94627 55.6112 9.16849 54.8334C8.39071 54.0556 8.00182 53.1112 8.00182 52.0001V13.9334L2.53516 8.46676L5.40182 5.6001L59.0685 59.2668L56.2018 62.1334ZM12.0018 52.0001H46.0685L38.0685 44.0001H16.0018L24.0018 34.6668L29.3352 41.9334L32.4018 38.2668L12.0018 17.8668V52.0001ZM56.0018 50.5334L52.0018 46.5334V12.0001H17.4685L13.4685 8.0001H52.0018C53.1129 8.0001 54.0574 8.38899 54.8352 9.16676C55.6129 9.94454 56.0018 10.889 56.0018 12.0001V50.5334Z" fill="#919191"/>
</svg>
