<svg width="16" height="16" viewBox="0 0 16 16" fill="none" xmlns="http://www.w3.org/2000/svg">
<path d="M8.06683 11.8834C8.24461 11.8834 8.39461 11.8223 8.51683 11.7C8.63905 11.5778 8.70016 11.4278 8.70016 11.25C8.70016 11.0723 8.63905 10.9223 8.51683 10.8C8.39461 10.6778 8.24461 10.6167 8.06683 10.6167C7.88905 10.6167 7.73905 10.6778 7.61683 10.8C7.49461 10.9223 7.4335 11.0723 7.4335 11.25C7.4335 11.4278 7.49461 11.5778 7.61683 11.7C7.73905 11.8223 7.88905 11.8834 8.06683 11.8834ZM8.05016 5.00004C8.42794 5.00004 8.7335 5.10282 8.96683 5.30837C9.20016 5.51393 9.31683 5.77782 9.31683 6.10004C9.31683 6.32226 9.25016 6.54171 9.11683 6.75837C8.9835 6.97504 8.76683 7.21115 8.46683 7.46671C8.17794 7.72226 7.94738 7.99171 7.77516 8.27504C7.60294 8.55837 7.51683 8.81671 7.51683 9.05004C7.51683 9.17226 7.56405 9.26948 7.6585 9.34171C7.75294 9.41393 7.86127 9.45004 7.9835 9.45004C8.11683 9.45004 8.22794 9.4056 8.31683 9.31671C8.40572 9.22782 8.46127 9.11671 8.4835 8.98337C8.51683 8.76115 8.59183 8.56393 8.7085 8.39171C8.82516 8.21948 9.00572 8.03337 9.25016 7.83337C9.5835 7.5556 9.82516 7.27782 9.97516 7.00004C10.1252 6.72226 10.2002 6.41115 10.2002 6.06671C10.2002 5.47782 10.0085 5.0056 9.62516 4.65004C9.24183 4.29448 8.7335 4.11671 8.10016 4.11671C7.67794 4.11671 7.28905 4.20004 6.9335 4.36671C6.57794 4.53337 6.2835 4.77782 6.05016 5.10004C5.96127 5.22226 5.92516 5.34726 5.94183 5.47504C5.9585 5.60282 6.01127 5.70004 6.10016 5.76671C6.22238 5.8556 6.35294 5.88337 6.49183 5.85004C6.63072 5.81671 6.74461 5.73893 6.8335 5.61671C6.97794 5.41671 7.15294 5.26393 7.3585 5.15837C7.56405 5.05282 7.79461 5.00004 8.05016 5.00004ZM8.00016 14.6667C7.06683 14.6667 6.19461 14.4973 5.3835 14.1584C4.57238 13.8195 3.86683 13.35 3.26683 12.75C2.66683 12.15 2.19461 11.4445 1.85016 10.6334C1.50572 9.82226 1.3335 8.94448 1.3335 8.00004C1.3335 7.06671 1.50572 6.19448 1.85016 5.38337C2.19461 4.57226 2.66683 3.86671 3.26683 3.26671C3.86683 2.66671 4.57238 2.19449 5.3835 1.85004C6.19461 1.5056 7.06683 1.33337 8.00016 1.33337C8.92238 1.33337 9.78905 1.5056 10.6002 1.85004C11.4113 2.19449 12.1168 2.66671 12.7168 3.26671C13.3168 3.86671 13.7918 4.57226 14.1418 5.38337C14.4918 6.19448 14.6668 7.06671 14.6668 8.00004C14.6668 8.94448 14.4918 9.82226 14.1418 10.6334C13.7918 11.4445 13.3168 12.15 12.7168 12.75C12.1168 13.35 11.4113 13.8195 10.6002 14.1584C9.78905 14.4973 8.92238 14.6667 8.00016 14.6667Z" fill="currentColor"/>
</svg>
