<svg width="20" height="20" viewBox="0 0 20 20" fill="currentColor" xmlns="http://www.w3.org/2000/svg">
<circle cx="10" cy="10" r="8" fill="currentColor"/>
<path d="M10 18.3333C8.86113 18.3333 7.78474 18.1146 6.77085 17.6771C5.75696 17.2396 4.87155 16.6424 4.1146 15.8854C3.35766 15.1285 2.76044 14.243 2.32294 13.2292C1.88544 12.2153 1.66669 11.1389 1.66669 9.99999C1.66669 8.84721 1.88544 7.76388 2.32294 6.74999C2.76044 5.7361 3.35766 4.85416 4.1146 4.10416C4.87155 3.35416 5.75696 2.76041 6.77085 2.32291C7.78474 1.88541 8.86113 1.66666 10 1.66666C11.1528 1.66666 12.2361 1.88541 13.25 2.32291C14.2639 2.76041 15.1459 3.35416 15.8959 4.10416C16.6459 4.85416 17.2396 5.7361 17.6771 6.74999C18.1146 7.76388 18.3334 8.84721 18.3334 9.99999C18.3334 11.1389 18.1146 12.2153 17.6771 13.2292C17.2396 14.243 16.6459 15.1285 15.8959 15.8854C15.1459 16.6424 14.2639 17.2396 13.25 17.6771C12.2361 18.1146 11.1528 18.3333 10 18.3333ZM10 17.0833C11.9722 17.0833 13.6459 16.3924 15.0209 15.0104C16.3959 13.6285 17.0834 11.9583 17.0834 9.99999C17.0834 8.02777 16.3959 6.35416 15.0209 4.97916C13.6459 3.60416 11.9722 2.91666 10 2.91666C8.04169 2.91666 6.37155 3.60416 4.9896 4.97916C3.60766 6.35416 2.91669 8.02777 2.91669 9.99999C2.91669 11.9583 3.60766 13.6285 4.9896 15.0104C6.37155 16.3924 8.04169 17.0833 10 17.0833Z" fill="currentColor"/>
</svg>
