<svg width="44" height="20" viewBox="0 0 44 20" fill="currentColor" xmlns="http://www.w3.org/2000/svg">
<rect x="0.5" y="0.5" width="43" height="19" rx="9.5" fill="currentColor" stroke="#D9D9D9"/>
<path d="M26.425 5.145V8.984H24.247V9.831H26.425V14.858H27.426V5.145H26.425ZM19.385 12.262L19.935 13.043C23.202 11.426 24.291 8.984 24.291 6.168H19.814V6.993H23.268C23.092 9.226 21.959 10.997 19.385 12.262ZM34.2243 7.257V8.082H36.0283V10.139H37.0403V5.145H36.0283V7.257H34.2243ZM29.0323 9.479L29.5273 10.26C30.6713 9.897 31.5183 9.072 31.9473 8.071C32.3653 8.984 33.1683 9.71 34.2683 10.051L34.7523 9.248C33.3113 8.819 32.4423 7.708 32.4423 6.597V6.432H34.5213V5.618H29.3293V6.432H31.4193V6.586C31.4193 7.785 30.4843 8.984 29.0323 9.479ZM30.7593 11.393H36.0393V12.24H30.7703V14.737H37.3923V13.945H31.7713V12.999H37.0403V10.601H30.7593V11.393Z" fill="currentColor"/>
<g filter="url(#filter0_d_275_4185)">
<rect x="3" y="3" width="14" height="14" rx="7" fill="currentColor"/>
</g>
<rect x="5.5" y="5.5" width="9" height="9" rx="4.5" stroke="#DFDFDF"/>
<defs>
<filter id="filter0_d_275_4185" x="2" y="2" width="16" height="16" filterUnits="userSpaceOnUse" color-interpolation-filters="sRGB">
<feFlood flood-opacity="0" result="BackgroundImageFix"/>
<feColorMatrix in="SourceAlpha" type="matrix" values="0 0 0 0 0 0 0 0 0 0 0 0 0 0 0 0 0 0 127 0" result="hardAlpha"/>
<feOffset/>
<feGaussianBlur stdDeviation="0.5"/>
<feComposite in2="hardAlpha" operator="out"/>
<feColorMatrix type="matrix" values="0 0 0 0 0 0 0 0 0 0 0 0 0 0 0 0 0 0 0.2 0"/>
<feBlend mode="normal" in2="BackgroundImageFix" result="effect1_dropShadow_275_4185"/>
<feBlend mode="normal" in="SourceGraphic" in2="effect1_dropShadow_275_4185" result="shape"/>
</filter>
</defs>
</svg>
