<svg width="20" height="20" viewBox="0 0 20 20" fill="currentColor" xmlns="http://www.w3.org/2000/svg">
<path d="M16.125 17.0208L11.1042 12C10.6875 12.3611 10.2014 12.6424 9.64583 12.8437C9.09028 13.0451 8.5 13.1458 7.875 13.1458C6.375 13.1458 5.10417 12.625 4.0625 11.5833C3.02083 10.5417 2.5 9.28471 2.5 7.81249C2.5 6.34027 3.02083 5.08332 4.0625 4.04166C5.10417 2.99999 6.36806 2.47916 7.85417 2.47916C9.32639 2.47916 10.5799 2.99999 11.6146 4.04166C12.6493 5.08332 13.1667 6.34027 13.1667 7.81249C13.1667 8.40971 13.0694 8.9861 12.875 9.54166C12.6806 10.0972 12.3889 10.618 12 11.1042L17.0625 16.125C17.1875 16.2361 17.2465 16.3819 17.2396 16.5625C17.2326 16.743 17.1667 16.8958 17.0417 17.0208C16.9167 17.1458 16.7639 17.2083 16.5833 17.2083C16.4028 17.2083 16.25 17.1458 16.125 17.0208V17.0208ZM7.85417 11.8958C8.97917 11.8958 9.9375 11.4965 10.7292 10.6979C11.5208 9.89929 11.9167 8.93749 11.9167 7.81249C11.9167 6.68749 11.5208 5.72568 10.7292 4.92707C9.9375 4.12846 8.97917 3.72916 7.85417 3.72916C6.71528 3.72916 5.74653 4.12846 4.94792 4.92707C4.14931 5.72568 3.75 6.68749 3.75 7.81249C3.75 8.93749 4.14931 9.89929 4.94792 10.6979C5.74653 11.4965 6.71528 11.8958 7.85417 11.8958ZM7.83333 10.125C7.65278 10.125 7.50347 10.066 7.38542 9.94791C7.26736 9.82985 7.20833 9.68054 7.20833 9.49999V8.41666H6.10417C5.9375 8.41666 5.79514 8.35416 5.67708 8.22916C5.55903 8.10416 5.5 7.95138 5.5 7.77082C5.5 7.60416 5.55903 7.4618 5.67708 7.34374C5.79514 7.22568 5.94444 7.16666 6.125 7.16666H7.20833V6.08332C7.20833 5.91666 7.27083 5.7743 7.39583 5.65624C7.52083 5.53818 7.67361 5.47916 7.85417 5.47916C8.02083 5.47916 8.16319 5.53818 8.28125 5.65624C8.39931 5.7743 8.45833 5.9236 8.45833 6.10416V7.16666H9.54167C9.70833 7.16666 9.85069 7.22916 9.96875 7.35416C10.0868 7.47916 10.1458 7.62499 10.1458 7.79166C10.1458 7.97221 10.0868 8.12152 9.96875 8.23957C9.85069 8.35763 9.70139 8.41666 9.52083 8.41666H8.45833V9.52082C8.45833 9.68749 8.39583 9.82985 8.27083 9.94791C8.14583 10.066 8 10.125 7.83333 10.125V10.125Z" fill="currentColor"/>
</svg>
