<svg width="24" height="24" viewBox="0 0 24 24" fill="none" xmlns="http://www.w3.org/2000/svg">
<g id="Property 1=bk">
<path id="Vector" d="M17.5 7.75C15.98 7.75 14.75 6.52 14.75 5C14.75 3.48 15.98 2.25 17.5 2.25C19.02 2.25 20.25 3.48 20.25 5C20.25 6.52 19.02 7.75 17.5 7.75ZM17.5 3.75C16.81 3.75 16.25 4.31 16.25 5C16.25 5.69 16.81 6.25 17.5 6.25C18.19 6.25 18.75 5.69 18.75 5C18.75 4.31 18.19 3.75 17.5 3.75Z" fill="#1C1C1C"/>
<path id="Vector_2" d="M6.5 14.75C4.98 14.75 3.75 13.52 3.75 12C3.75 10.48 4.98 9.25 6.5 9.25C8.02 9.25 9.25 10.48 9.25 12C9.25 13.52 8.02 14.75 6.5 14.75ZM6.5 10.75C5.81 10.75 5.25 11.31 5.25 12C5.25 12.69 5.81 13.25 6.5 13.25C7.19 13.25 7.75 12.69 7.75 12C7.75 11.31 7.19 10.75 6.5 10.75Z" fill="#1C1C1C"/>
<path id="Vector_3" d="M17.5 21.75C15.98 21.75 14.75 20.52 14.75 19C14.75 17.48 15.98 16.25 17.5 16.25C19.02 16.25 20.25 17.48 20.25 19C20.25 20.52 19.02 21.75 17.5 21.75ZM17.5 17.75C16.81 17.75 16.25 18.31 16.25 19C16.25 19.69 16.81 20.25 17.5 20.25C18.19 20.25 18.75 19.69 18.75 19C18.75 18.31 18.19 17.75 17.5 17.75Z" fill="#1C1C1C"/>
<path id="Vector_4" d="M16.0493 5.39666L8.05037 11.3981L8.95058 12.5979L16.9495 6.5965L16.0493 5.39666Z" fill="#1C1C1C"/>
<path id="Vector_5" d="M8.95001 11.4L8.05001 12.6L16.05 18.6001L16.95 17.4001L8.95001 11.4Z" fill="#1C1C1C"/>
</g>
</svg>
