<svg width="24" height="24" viewBox="0 0 24 24" fill="none" xmlns="http://www.w3.org/2000/svg">
<g id="color=bk, fill=no">
<path id="Vector" d="M16.4611 4.5C17.5414 4.5 18.5616 4.92 19.3218 5.7C20.9122 7.3 20.9122 9.91 19.3218 11.51L12.01 18.88L4.69817 11.51C3.10778 9.91 3.10778 7.3 4.69817 5.7C5.46837 4.93 6.47862 4.5 7.55889 4.5C8.63916 4.5 9.65942 4.92 10.4196 5.7L10.9397 6.22L12.01 7.29L13.0803 6.22L13.6004 5.7C14.3706 4.93 15.3808 4.5 16.4611 4.5ZM16.4611 3C15.0408 3 13.6204 3.55 12.5301 4.64L12.01 5.16L11.4899 4.64C10.4096 3.55 8.97925 3 7.55889 3C6.13854 3 4.71818 3.55 3.62791 4.64C1.45736 6.83 1.45736 10.37 3.62791 12.56L12 21L20.3721 12.56C22.5426 10.37 22.5426 6.83 20.3721 4.64C19.2918 3.55 17.8615 3 16.4411 3H16.4611Z" fill="currentColor"/>
</g>
</svg>
