<svg width="20" height="18" viewBox="0 0 20 18" fill="none" xmlns="http://www.w3.org/2000/svg">
<g id="Layer_1" clip-path="url(#clip0_138_2345)">
<path id="Vector" d="M16.58 5.59L15.5 6.67C16.34 7.31 17.18 8.07 18.02 9C15.31 11.99 12.57 13.5 9.87999 13.5C9.49999 13.5 9.12999 13.46 8.76999 13.41L7.50999 14.67C8.25999 14.87 9.04999 15 9.87999 15C12.84 15 16.3 13.5 20 9C18.83 7.58 17.69 6.46 16.58 5.59Z" fill="currentColor"/>
<path id="Vector_2" d="M9.61 10.44L11.44 8.61L12.57 7.48L14.24 5.81L15.34 4.71L19 1.05L17.95 0L13.98 3.97C13.73 3.85 13.48 3.75 13.24 3.65C12.97 3.55 12.71 3.46 12.45 3.38C11.56 3.12 10.7 3 9.88 3V4.5C10.32 4.5 10.76 4.55 11.19 4.63C11.48 4.68 11.76 4.74 12.05 4.83C12.31 4.91 12.57 5 12.84 5.1L11.52 6.42C11.29 6.28 11.04 6.18 10.77 6.11C10.52 6.04 10.27 6 10 6C9.93 6 9.87 6.02 9.81 6.02C8.31 6.12 7.12 7.31 7.02 8.81C7.02 8.88 7 8.94 7 9C7 9.27 7.05 9.52 7.11 9.77C7.18 10.04 7.29 10.29 7.42 10.52L5.66 12.28C5.44 12.15 5.22 12.01 5.01 11.87C4.8 11.73 4.59 11.58 4.39 11.43C3.28 10.58 2.41 9.65 1.88 9C3.11 7.5 6.06 4.5 9.88 4.5V3C3.95 3 0 9 0 9C0 9 1.22 10.85 3.33 12.5C3.53 12.65 3.73 12.8 3.94 12.95C4.15 13.09 4.36 13.23 4.58 13.37L1 16.95L2.05 18L5.94 14.11L7.09 12.96L8.48 11.57L9.61 10.44ZM8.5 9C8.5 8.6 8.66 8.24 8.91 7.98L8.98 7.91C9.25 7.66 9.61 7.5 10 7.5C10.14 7.5 10.26 7.52 10.39 7.56L8.56 9.39C8.53 9.27 8.5 9.14 8.5 9Z" fill="currentColor"/>
</g>
<defs>
<clipPath id="clip0_138_2345">
<rect width="20" height="18" fill="white"/>
</clipPath>
</defs>
</svg>
