<svg width="20" height="12" viewBox="0 0 20 12" fill="none" xmlns="http://www.w3.org/2000/svg">
<g id="Group">
<path id="Vector" d="M9.87001 0V1.5C12.57 1.5 15.3 3.01 18.01 6C15.3 8.99 12.56 10.5 9.87001 10.5C6.07001 10.5 3.11 7.49 1.88 6C3.11 4.5 6.06001 1.5 9.88 1.5V0C3.95001 0 0 6 0 6C0 6 3.95001 12 9.88 12C12.84 12 16.3 10.5 20 6C16.3 1.5 12.84 0 9.88 0H9.87001Z" fill="currentColor"/>
<path id="Vector_2" d="M6.98999 6C6.98999 7.66 8.32999 9 9.98999 9C11.65 9 12.99 7.66 12.99 6C12.99 4.34 11.65 3 9.98999 3C8.32999 3 6.98999 4.34 6.98999 6ZM9.98999 4.5C10.82 4.5 11.49 5.17 11.49 6C11.49 6.83 10.82 7.5 9.98999 7.5C9.15999 7.5 8.48999 6.83 8.48999 6C8.48999 5.17 9.15999 4.5 9.98999 4.5Z" fill="currentColor"/>
</g>
</svg>
