<svg width="20" height="20" viewBox="0 0 20 20" fill="currentColor" xmlns="http://www.w3.org/2000/svg">
<path d="M15.0208 17.5H5.29166V6.83334L11.0833 0.833344L11.7708 1.37501C11.9236 1.48612 12.0243 1.61112 12.0729 1.75001C12.1215 1.8889 12.1458 2.04862 12.1458 2.22918V2.43751L11.2083 6.83334H17.9167C18.2361 6.83334 18.5243 6.96182 18.7812 7.21876C19.0382 7.4757 19.1667 7.7639 19.1667 8.08334V9.79168C19.1667 9.94445 19.1493 10.1215 19.1146 10.3229C19.0799 10.5243 19.0278 10.7014 18.9583 10.8542L16.5417 16.4375C16.4167 16.7292 16.2118 16.9792 15.9271 17.1875C15.6423 17.3958 15.3403 17.5 15.0208 17.5ZM4.04166 6.83334V17.5H1.66666V6.83334H4.04166Z" fill="currentColor"/>
</svg>
