<svg width="20" height="20" viewBox="0 0 20 20" fill="currentColor" xmlns="http://www.w3.org/2000/svg">
<path d="M11.2292 14.5417L7.10419 10.4167C7.03474 10.3472 6.98613 10.2778 6.95835 10.2083C6.93058 10.1389 6.91669 10.0625 6.91669 9.97918C6.91669 9.89584 6.93058 9.81945 6.95835 9.75001C6.98613 9.68057 7.03474 9.61112 7.10419 9.54168L11.25 5.39584C11.375 5.27084 11.5243 5.20834 11.6979 5.20834C11.8715 5.20834 12.0209 5.27084 12.1459 5.39584C12.2709 5.52084 12.3299 5.67362 12.3229 5.85418C12.316 6.03473 12.25 6.18751 12.125 6.31251L8.45835 9.97918L12.1459 13.6667C12.2709 13.7917 12.3334 13.9375 12.3334 14.1042C12.3334 14.2708 12.2709 14.4167 12.1459 14.5417C12.0209 14.6667 11.8681 14.7292 11.6875 14.7292C11.507 14.7292 11.3542 14.6667 11.2292 14.5417V14.5417Z" fill="currentColor"/>
</svg>
