<svg width="20" height="20" viewBox="0 0 20 20" fill="none" xmlns="http://www.w3.org/2000/svg">
<g id="Group">
<path id="Vector" d="M10 0C4.48 0 0 4.48 0 10C0 15.52 4.48 20 10 20C15.52 20 20 15.52 20 10C20 4.48 15.52 0 10 0ZM10 18.5C5.31 18.5 1.5 14.69 1.5 10C1.5 5.31 5.31 1.5 10 1.5C14.69 1.5 18.5 5.31 18.5 10C18.5 14.69 14.69 18.5 10 18.5Z" fill="currentColor"/>
<path id="Vector_2" d="M10 8.25C9.59 8.25 9.25 8.59 9.25 9V14C9.25 14.41 9.59 14.75 10 14.75C10.41 14.75 10.75 14.41 10.75 14V9C10.75 8.59 10.41 8.25 10 8.25Z" fill="currentColor"/>
<path id="Vector_3" d="M9.47 5.46999C9.33 5.60999 9.25 5.79999 9.25 5.99999C9.25 6.19999 9.33 6.38999 9.47 6.52999C9.61 6.66999 9.8 6.74999 10 6.74999C10.2 6.74999 10.39 6.66999 10.53 6.52999C10.67 6.38999 10.75 6.19999 10.75 5.99999C10.75 5.79999 10.67 5.60999 10.53 5.46999C10.25 5.18999 9.75 5.18999 9.47 5.46999Z" fill="currentColor"/>
</g>
</svg>
