<svg width="24" height="24" viewBox="0 0 24 24" fill="none" xmlns="http://www.w3.org/2000/svg">
<g id="color=bk">
<path id="Vector" d="M18 3.50075C18.28 3.50075 18.5 3.76088 18.5 4.08104V20.079L12.82 16.3772L12 15.8469L11.18 16.3772L5.5 20.079V4.08104C5.5 3.76088 5.72 3.50075 6 3.50075H18ZM18 2H6C4.9 2 4 2.93047 4 4.08104V20.9595C4 21.5698 4.48 22 5 22C5.18 22 5.36 21.95 5.53 21.8399L12 17.6278L18.47 21.8399C18.64 21.95 18.82 22 19 22C19.52 22 20 21.5698 20 20.9595V4.08104C20 2.93047 19.1 2 18 2Z" fill="currentColor"/>
</g>
</svg>
