<svg width="20" height="18" viewBox="0 0 20 18" fill="none" xmlns="http://www.w3.org/2000/svg">
<g id="Group">
<path id="Vector" d="M11.9953 0C11.8654 0 11.7254 0.0300002 11.5855 0.0900002L3.99844 4H0.99961C0.449824 4 0 4.45 0 5V13C0 13.55 0.449824 14 0.99961 14H3.99844L11.5855 17.91C11.7154 17.97 11.8554 18 11.9953 18C12.5251 18 12.9949 17.58 12.9949 17V1C12.9949 0.42 12.5251 0 11.9953 0ZM1.49941 5.5H3.24873V12.5H1.49941V5.5ZM11.4955 16.18L4.74815 12.7V5.3L11.4955 1.82V16.18Z" fill="currentColor"/>
<path id="Vector_2" d="M14.3343 5.25998C13.9845 5.49998 13.8945 5.97999 14.1244 6.32999C14.1444 6.35999 15.8338 9.02999 14.1244 11.66C13.8945 12.02 13.9845 12.5 14.3343 12.73C14.4643 12.82 14.6042 12.86 14.7542 12.86C14.9941 12.86 15.234 12.74 15.3839 12.52C17.6431 9.02999 15.4739 5.60999 15.3839 5.46999C15.154 5.10999 14.6842 5.01998 14.3343 5.25998Z" fill="currentColor"/>
<path id="Vector_3" d="M17.7931 1.34001C17.5632 0.98001 17.0934 0.890011 16.7536 1.13001C16.4037 1.37001 16.3137 1.85001 16.5436 2.20001C16.7235 2.48001 20.8919 9.10001 16.5436 15.79C16.3137 16.15 16.4037 16.63 16.7536 16.86C16.8835 16.95 17.0234 16.99 17.1734 16.99C17.4133 16.99 17.6532 16.87 17.8031 16.65C22.7212 9.08001 17.8531 1.42001 17.8031 1.34001H17.7931Z" fill="currentColor"/>
</g>
</svg>
