<svg width="16" height="18" viewBox="0 0 16 18" fill="none" xmlns="http://www.w3.org/2000/svg">
<g id="Group">
<path id="Vector" d="M11.7039 0C11.5771 0 11.4406 0.0300002 11.304 0.0900002L3.90131 4H0.975327C0.438897 4 0 4.45 0 5V13C0 13.55 0.438897 14 0.975327 14H3.90131L11.304 17.91C11.4308 17.97 11.5674 18 11.7039 18C12.2208 18 12.6793 17.58 12.6793 17V1C12.6793 0.42 12.2208 0 11.7039 0ZM1.46299 5.5H3.16981V12.5H1.46299V5.5ZM11.2163 16.18L4.6328 12.7V5.3L11.2163 1.82V16.18Z" fill="currentColor"/>
<path id="Vector_2" d="M15.0005 5.46999C14.7762 5.10999 14.3178 5.01998 13.9764 5.25998C13.635 5.49998 13.5473 5.97999 13.7716 6.32999C13.7911 6.35999 15.4394 9.02999 13.7716 11.66C13.5473 12.02 13.635 12.5 13.9764 12.73C14.1032 12.82 14.2397 12.86 14.386 12.86C14.6201 12.86 14.8542 12.74 15.0005 12.52C17.2047 9.02999 15.0883 5.60999 15.0005 5.46999Z" fill="currentColor"/>
</g>
</svg>
