<svg width="12" height="12" viewBox="0 0 12 12" fill="none" xmlns="http://www.w3.org/2000/svg">
<g id="Group">
<path id="Vector" d="M11.8714 10.39L6.99439 0.62C6.78452 0.21 6.39476 0 5.995 0C5.59525 0 5.20549 0.21 4.99561 0.62L0.118597 10.39C-0.251176 11.13 0.288493 12 1.11799 12H10.882C11.7115 12 12.2512 11.13 11.8814 10.39H11.8714ZM1.73761 10.5L5.995 1.98L10.2524 10.5H1.73761Z" fill="currentColor"/>
<path id="Vector_2" d="M5.70545 5.31C5.61545 5.35 5.53545 5.4 5.46545 5.47C5.32545 5.61 5.24545 5.8 5.24545 6C5.24545 6.2 5.32545 6.39 5.46545 6.53C5.53545 6.6 5.61545 6.65 5.70545 6.69C5.79545 6.73 5.89545 6.75 5.99545 6.75C6.09545 6.75 6.19545 6.73 6.28545 6.69C6.37545 6.65 6.45545 6.6 6.52545 6.53C6.66545 6.39 6.74545 6.2 6.74545 6C6.74545 5.8 6.66545 5.61 6.52545 5.47C6.45545 5.4 6.37545 5.35 6.28545 5.31C6.09545 5.23 5.89545 5.23 5.70545 5.31Z" fill="currentColor"/>
<path id="Vector_3" d="M5.99545 7.25C5.58545 7.25 5.24545 7.59 5.24545 8V9C5.24545 9.41 5.58545 9.75 5.99545 9.75C6.40545 9.75 6.74545 9.41 6.74545 9V8C6.74545 7.59 6.40545 7.25 5.99545 7.25Z" fill="currentColor"/>
</g>
</svg>
