<svg width="20" height="20" viewBox="0 0 20 20" fill="none" xmlns="http://www.w3.org/2000/svg">
<g id="Group">
<path id="Vector" d="M19.72 3.12L16.89 0.290001C16.69 0.0900009 16.44 0 16.18 0C15.92 0 15.67 0.100001 15.47 0.290001L11.76 4H1C0.45 4 0 4.45 0 5V19C0 19.55 0.45 20 1 20H14C14.55 20 15 19.55 15 19V9.24L19.71 4.53C20.1 4.14 20.1 3.51 19.71 3.12H19.72ZM13.51 18.5H1.51001V5.5H10.27L5.58002 10.19V14.43H9.82001L13.51 10.74V18.5ZM15.01 7.12L13.51 8.62L9.20001 12.93H7.08002V10.81L12.39 5.5L13.89 4L14.42 3.47L16.54 5.59L15.01 7.12ZM17.6 4.53L15.48 2.41L16.18 1.71L18.3 3.83L17.6 4.53Z" fill="currentColor"/>
</g>
</svg>
