<svg width="20" height="20" viewBox="0 0 20 20" fill="none" xmlns="http://www.w3.org/2000/svg">
<g id="Group">
<path id="Vector" d="M19.78 18.72L13.31 12.25C14.37 10.96 15 9.31 15 7.5C15 3.36 11.64 0 7.5 0C3.36 0 0 3.36 0 7.5C0 11.64 3.36 15 7.5 15C9.3 15 10.95 14.36 12.25 13.31L18.72 19.78C18.87 19.93 19.06 20 19.25 20C19.44 20 19.63 19.93 19.78 19.78C20.07 19.49 20.07 19.01 19.78 18.72ZM7.5 13.5C4.19 13.5 1.5 10.81 1.5 7.5C1.5 4.19 4.19 1.5 7.5 1.5C10.81 1.5 13.5 4.19 13.5 7.5C13.5 8.88 13.02 10.16 12.23 11.17C11.92 11.57 11.57 11.92 11.17 12.23C10.15 13.02 8.88 13.5 7.5 13.5Z" fill="currentColor"/>
</g>
</svg>
