<svg width="20" height="20" viewBox="0 0 20 20" fill="none" xmlns="http://www.w3.org/2000/svg">
<g id="Group">
<path id="Vector" d="M10 0C4.48 0 0 4.48 0 10C0 15.52 4.48 20 10 20C15.52 20 20 15.52 20 10C20 4.48 15.52 0 10 0ZM10 18.5C5.31 18.5 1.5 14.69 1.5 10C1.5 5.31 5.31 1.5 10 1.5C14.69 1.5 18.5 5.31 18.5 10C18.5 14.69 14.69 18.5 10 18.5Z" fill="currentColor"/>
<path id="Vector_2" d="M13.47 7.23L10 10.81L6.53 7.23C6.24 6.93 5.76 6.93 5.47 7.23C5.18 7.53 5.18 8.02001 5.47 8.33001L10 13.01L14.53 8.33001C14.82 8.03001 14.82 7.54 14.53 7.23C14.24 6.93 13.76 6.93 13.47 7.23Z" fill="currentColor"/>
</g>
</svg>
