<svg width="18" height="20" viewBox="0 0 18 20" fill="none" xmlns="http://www.w3.org/2000/svg">
<g id="Group">
<path id="Vector" d="M16.9606 0.9995H14.7418V0.749625C14.7418 0.33983 14.402 0 13.9922 0C13.5825 0 13.2426 0.33983 13.2426 0.749625V0.9995H4.74736V0.749625C4.74736 0.33983 4.40755 0 3.99778 0C3.58801 0 3.2482 0.33983 3.2482 0.749625V0.9995H1.02943C0.459744 0.9995 0 1.45927 0 2.02899V18.9705C0 19.5402 0.459744 20 1.02943 20H16.9706C17.5403 20 18 19.5402 18 18.9705V2.02899C18 1.45927 17.5403 0.9995 16.9706 0.9995H16.9606ZM3.2482 2.49875V2.74863C3.2482 3.15842 3.58801 3.49825 3.99778 3.49825C4.40755 3.49825 4.74736 3.15842 4.74736 2.74863V2.49875H13.2426V2.74863C13.2426 3.15842 13.5825 3.49825 13.9922 3.49825C14.402 3.49825 14.7418 3.15842 14.7418 2.74863V2.49875H16.4908V6.24688H1.49917V2.49875H3.2482ZM1.49917 18.4908V7.74613H16.4908V18.4908H1.49917Z" fill="currentColor"/>
<path id="Vector_2" d="M6.52707 12.4639C6.45707 12.3939 6.37706 12.3439 6.28706 12.3039C6.00706 12.1839 5.67707 12.2539 5.46707 12.4639C5.39707 12.5339 5.34707 12.6139 5.30707 12.7039C5.26707 12.7939 5.24707 12.8939 5.24707 12.9939C5.24707 13.1939 5.32707 13.3839 5.46707 13.5239C5.60707 13.6639 5.79707 13.7439 5.99707 13.7439C6.19707 13.7439 6.38707 13.6639 6.52707 13.5239C6.66707 13.3839 6.74707 13.1939 6.74707 12.9939C6.74707 12.8939 6.72707 12.7939 6.68707 12.7039C6.65707 12.6139 6.59707 12.5339 6.52707 12.4639Z" fill="currentColor"/>
<path id="Vector_3" d="M9.28542 12.3039C9.00542 12.1839 8.67542 12.2539 8.46542 12.4639C8.32542 12.6039 8.24542 12.7939 8.24542 12.9939C8.24542 13.1939 8.32542 13.3839 8.46542 13.5239C8.60542 13.6639 8.79542 13.7439 8.99542 13.7439C9.09542 13.7439 9.19542 13.7239 9.28542 13.6839C9.37542 13.6439 9.45542 13.5939 9.52542 13.5239C9.66542 13.3839 9.74542 13.1939 9.74542 12.9939C9.74542 12.7939 9.66542 12.6039 9.52542 12.4639C9.45542 12.3939 9.37542 12.3439 9.28542 12.3039Z" fill="currentColor"/>
<path id="Vector_4" d="M11.4638 12.4639C11.3238 12.6039 11.2438 12.7939 11.2438 12.9939C11.2438 13.1939 11.3238 13.3839 11.4638 13.5239C11.6038 13.6639 11.7938 13.7439 11.9938 13.7439C12.1938 13.7439 12.3838 13.6639 12.5238 13.5239C12.6638 13.3839 12.7438 13.1939 12.7438 12.9939C12.7438 12.7939 12.6638 12.6039 12.5238 12.4639C12.2438 12.1839 11.7338 12.1839 11.4638 12.4639Z" fill="currentColor"/>
</g>
</svg>
