<svg width="20" height="20" viewBox="0 0 20 20" fill="none" xmlns="http://www.w3.org/2000/svg">
<g id="Group">
<path id="Vector" d="M10 0C4.48 0 0 4.48 0 10C0 15.52 4.48 20 10 20C15.52 20 20 15.52 20 10C20 4.48 15.52 0 10 0ZM10 18.5C5.31 18.5 1.5 14.69 1.5 10C1.5 5.31 5.31 1.5 10 1.5C14.69 1.5 18.5 5.31 18.5 10C18.5 14.69 14.69 18.5 10 18.5Z" fill="currentColor"/>
<path id="Vector_2" d="M8.23 5.5C7.93 5.79 7.93 6.27 8.23 6.56L11.81 10.03L8.23 13.5C7.93 13.79 7.93 14.27 8.23 14.56C8.53 14.85 9.01998 14.85 9.32998 14.56L14.01 10.03L9.32998 5.5C9.02998 5.21 8.54 5.21 8.23 5.5Z" fill="currentColor"/>
</g>
</svg>
