<svg width="24" height="24" viewBox="0 0 24 24" fill="none" xmlns="http://www.w3.org/2000/svg">
<g id="color=bk">
<path id="Vector" d="M13.53 2C11.08 2 9.10001 3.86 9.10001 6.15V15.42C9.10001 16.9 10.39 18.1 11.97 18.1C13.55 18.1 14.84 16.9 14.84 15.42V7.62C14.84 7.22 14.49 6.89 14.06 6.89C13.63 6.89 13.28 7.22 13.28 7.62V15.42C13.28 16.09 12.7 16.64 11.98 16.64C11.26 16.64 10.68 16.09 10.68 15.42V6.15C10.68 4.67 11.97 3.47 13.55 3.47C15.13 3.47 16.42 4.67 16.42 6.15V16.39C16.42 18.68 14.43 20.54 11.99 20.54C9.55001 20.54 7.56001 18.68 7.56001 16.39V10.54C7.56001 10.14 7.21001 9.81 6.78001 9.81C6.35001 9.81 6 10.14 6 10.54V16.39C6 19.48 8.69 22 12 22C15.31 22 18 19.48 18 16.39V6.15C18 3.86 16.01 2 13.57 2H13.53Z" fill="currentColor"/>
</g>
</svg>
