<svg width="20" height="20" viewBox="0 0 20 20" fill="none" xmlns="http://www.w3.org/2000/svg">
<g id="Group">
<path id="Vector" d="M10 0C4.48 0 0 4.48 0 10C0 15.52 4.48 20 10 20C15.52 20 20 15.52 20 10C20 4.48 15.52 0 10 0ZM10 18.5C5.31 18.5 1.5 14.69 1.5 10C1.5 5.31 5.31 1.5 10 1.5C14.69 1.5 18.5 5.31 18.5 10C18.5 14.69 14.69 18.5 10 18.5Z" fill="currentColor"/>
<path id="Vector_2" d="M11.77 5.5C11.47 5.21 10.98 5.21 10.67 5.5L5.98999 10.03L10.67 14.56C10.97 14.85 11.46 14.85 11.77 14.56C12.07 14.27 12.07 13.79 11.77 13.5L8.18999 10.03L11.77 6.56C12.07 6.27 12.07 5.79 11.77 5.5Z" fill="currentColor"/>
</g>
</svg>
