<svg width="18" height="20" viewBox="0 0 18 20" fill="none" xmlns="http://www.w3.org/2000/svg">
<g id="Group">
<path id="Vector" d="M16.3872 10.7838C15.9174 10.3844 15.9174 9.61558 16.3872 9.21618L17.6468 8.13779C18.0066 7.82826 18.0966 7.28907 17.8767 6.85971L15.9374 3.17524C15.7675 2.85572 15.4576 2.666 15.1277 2.666C15.0078 2.666 14.8878 2.68597 14.7778 2.7359L13.3184 3.37494C13.2084 3.42486 13.0885 3.44483 12.9785 3.44483C12.5487 3.44483 12.1488 3.10534 12.0788 2.60609L11.8489 0.858712C11.789 0.369446 11.3891 0 10.9293 0H7.07073C6.6109 0 6.22103 0.369446 6.15106 0.858712L5.92115 2.60609C5.85118 3.10534 5.46133 3.44483 5.02149 3.44483C4.91153 3.44483 4.79157 3.42486 4.68161 3.37494L3.22216 2.7359C3.1122 2.68597 2.99224 2.666 2.87229 2.666C2.55241 2.666 2.23253 2.84573 2.06259 3.17524L0.123318 6.85971C-0.106596 7.28907 -0.00662258 7.82826 0.353243 8.13779L1.61277 9.21618C2.08259 9.61558 2.08259 10.3844 1.61277 10.7838L0.353243 11.8622C-0.00662258 12.1717 -0.0965999 12.7109 0.123318 13.1403L2.06259 16.8248C2.23253 17.1443 2.54241 17.334 2.87229 17.334C2.99224 17.334 3.1122 17.314 3.22216 17.2641L4.68161 16.6251C4.79157 16.5751 4.91153 16.5552 5.02149 16.5552C5.45133 16.5552 5.85118 16.8947 5.92115 17.3939L6.15106 19.1413C6.21104 19.6306 6.6109 20 7.07073 20H10.9293C11.3891 20 11.779 19.6306 11.8489 19.1413L12.0788 17.3939C12.1488 16.8947 12.5387 16.5552 12.9785 16.5552C13.0885 16.5552 13.2084 16.5751 13.3184 16.6251L14.7778 17.2641C14.8878 17.314 15.0078 17.334 15.1277 17.334C15.4476 17.334 15.7675 17.1543 15.9374 16.8248L17.8767 13.1403C18.1066 12.7109 18.0066 12.1717 17.6468 11.8622L16.3872 10.7838ZM14.8578 15.6465L13.9182 15.2371C13.6183 15.1073 13.2984 15.0374 12.9685 15.0374C11.769 15.0374 10.7394 15.9561 10.5794 17.1842L10.4095 18.4823H7.57054L7.40059 17.1842C7.24065 15.9561 6.21104 15.0374 5.01149 15.0374C4.68161 15.0374 4.37173 15.1073 4.06185 15.2371L3.1222 15.6465L1.59277 12.7509L2.56241 11.9121C3.1122 11.4329 3.43208 10.7339 3.43208 9.99501C3.43208 9.25612 3.1122 8.54718 2.56241 8.07788L1.59277 7.23914L3.1222 4.34348L4.06185 4.75287C4.36173 4.88268 4.68161 4.95257 5.01149 4.95257C6.21104 4.95257 7.24065 4.03395 7.40059 2.80579L7.57054 1.50774H10.4095L10.5794 2.80579C10.7394 4.03395 11.769 4.95257 12.9685 4.95257C13.2984 4.95257 13.6083 4.88268 13.9182 4.75287L14.8578 4.34348L16.3872 7.23914L15.4176 8.07788C14.8678 8.55716 14.5479 9.25612 14.5479 9.99501C14.5479 10.7339 14.8678 11.4428 15.4176 11.9121L16.3872 12.7509L14.8578 15.6465Z" fill="currentColor"/>
<path id="Vector_2" d="M8.99998 6.99951C7.3406 6.99951 6.0011 8.3375 6.0011 9.99502C6.0011 11.6525 7.3406 12.9905 8.99998 12.9905C10.6594 12.9905 11.9989 11.6525 11.9989 9.99502C11.9989 8.3375 10.6594 6.99951 8.99998 6.99951ZM8.99998 11.4928C8.17029 11.4928 7.50054 10.8238 7.50054 9.99502C7.50054 9.16626 8.17029 8.49726 8.99998 8.49726C9.82967 8.49726 10.4994 9.16626 10.4994 9.99502C10.4994 10.8238 9.82967 11.4928 8.99998 11.4928Z" fill="currentColor"/>
</g>
</svg>
