<svg width="20" height="20" viewBox="0 0 20 20" fill="none" xmlns="http://www.w3.org/2000/svg">
<g id="Group">
<path id="Vector" d="M10 0C4.48 0 0 4.48 0 10C0 15.52 4.48 20 10 20C15.52 20 20 15.52 20 10C20 4.48 15.52 0 10 0ZM10 18.5C5.31 18.5 1.5 14.69 1.5 10C1.5 5.31 5.31 1.5 10 1.5C14.69 1.5 18.5 5.31 18.5 10C18.5 14.69 14.69 18.5 10 18.5Z" fill="currentColor"/>
<path id="Vector_2" d="M10.49 5.04C9.68001 4.9 8.85 5.12 8.23 5.64C7.61 6.16 7.25 6.93 7.25 7.75C7.25 8.16 7.59 8.5 8 8.5C8.41 8.5 8.75 8.16 8.75 7.75C8.75 7.38 8.91 7.03 9.2 6.79C9.49 6.55 9.85001 6.45 10.24 6.52C10.73 6.61 11.15 7.03 11.24 7.52C11.36 8.18 10.96 8.8 10.33 8.96C9.7 9.12 9.25999 9.67 9.25999 10.3V11.75C9.25999 12.16 9.59999 12.5 10.01 12.5C10.42 12.5 10.76 12.16 10.76 11.75V10.4C12.13 10.01 12.97 8.68 12.72 7.26C12.53 6.15 11.61 5.24 10.5 5.04H10.49Z" fill="currentColor"/>
<path id="Vector_3" d="M9.71001 13.56C9.62001 13.6 9.54 13.65 9.47 13.72C9.4 13.79 9.35 13.87 9.31 13.96C9.27 14.06 9.25 14.15 9.25 14.25C9.25 14.45 9.33 14.64 9.47 14.78C9.61 14.92 9.8 15 10 15C10.2 15 10.39 14.92 10.53 14.78C10.67 14.64 10.75 14.45 10.75 14.25C10.75 14.05 10.67 13.86 10.53 13.72C10.32 13.51 9.99001 13.45 9.71001 13.56Z" fill="currentColor"/>
</g>
</svg>
