<svg width="10" height="12" viewBox="0 0 10 12" fill="none" xmlns="http://www.w3.org/2000/svg">
<g id="Group">
<path id="Vector" d="M9 1H7.75V0.75C7.75 0.34 7.41 0 7 0C6.59 0 6.25 0.34 6.25 0.75V1H3.75V0.75C3.75 0.34 3.41 0 3 0C2.59 0 2.25 0.34 2.25 0.75V1H1C0.45 1 0 1.45 0 2V11C0 11.55 0.45 12 1 12H9C9.55 12 10 11.55 10 11V2C10 1.45 9.55 1 9 1ZM2.25 2.5V2.75C2.25 3.16 2.59 3.5 3 3.5C3.41 3.5 3.75 3.16 3.75 2.75V2.5H6.25V2.75C6.25 3.16 6.59 3.5 7 3.5C7.41 3.5 7.75 3.16 7.75 2.75V2.5H8.5V4.25H1.5V2.5H2.25ZM1.5 10.5V5.75H8.5V10.5H1.5Z" fill="currentColor"/>
</g>
</svg>
