<svg width="20" height="20" fill="none" viewBox="0 0 40 40" xmlns="http://www.w3.org/2000/svg">
<g id="Group">
<path id="Vector" d="M19.96 9.25C19.8098 7.27 19.0891 5.46 17.958 3.96C17.6576 3.56 17.3273 3.18 16.967 2.83C15.6557 1.56 14.004 0.640003 12.1522 0.230003C11.6717 0.120003 11.1812 0.0599988 10.6807 0.0299988C10.4505 0.00999878 10.2302 0 10 0C9.76978 0 9.53953 0.0199988 9.31931 0.0299988C8.81881 0.0599988 8.32832 0.130003 7.84784 0.230003C5.99599 0.640003 4.34434 1.55 3.03303 2.83C2.67267 3.18 2.34235 3.56 2.04205 3.96C0.910919 5.45 0.180189 7.27 0.0400486 9.25C0.0200286 9.5 0 9.75 0 10C0 10.25 0.0200286 10.5 0.0400486 10.75C0.190199 12.73 0.910919 14.54 2.04205 16.04C2.34235 16.44 2.67267 16.82 3.03303 17.17C4.34434 18.44 5.99599 19.36 7.84784 19.77C8.32832 19.88 8.81881 19.94 9.31931 19.97C9.54954 19.99 9.76978 20 10 20C10.2302 20 10.4605 19.98 10.6807 19.97C11.1812 19.94 11.6717 19.87 12.1522 19.77C14.004 19.36 15.6557 18.45 16.967 17.17C17.3273 16.82 17.6576 16.44 17.958 16.04C19.0891 14.55 19.8198 12.73 19.96 10.75C19.98 10.5 20 10.25 20 10C20 9.75 19.98 9.5 19.96 9.25ZM18.4585 9.25H15.9559C15.8759 8.04 15.6256 6.88 15.2152 5.79C15.7558 5.53 16.2763 5.23 16.7768 4.9C17.7077 6.14 18.3183 7.63 18.4585 9.25ZM13.8338 13.64C12.6226 13.23 11.3413 13 9.99 13C8.63864 13 7.35737 13.23 6.14616 13.64C5.80582 12.73 5.5956 11.76 5.51552 10.75H14.4445C14.3744 11.76 14.1542 12.73 13.8138 13.64H13.8338ZM10.1401 18.49C10.0901 18.49 10.04 18.49 9.99 18.49C9.93995 18.49 9.8899 18.49 9.83985 18.49C8.57859 17.57 7.51752 16.39 6.76677 15.01C7.78779 14.68 8.86887 14.5 9.99 14.5C11.1111 14.5 12.2022 14.68 13.2132 15.01C12.4625 16.39 11.4014 17.57 10.1401 18.49ZM5.52554 9.25C5.59561 8.24 5.81584 7.27 6.15618 6.36C7.36739 6.77 8.64866 7 10 7C11.3514 7 12.6326 6.77 13.8439 6.36C14.1842 7.27 14.3944 8.24 14.4745 9.25H5.54555H5.52554ZM9.83985 1.51C9.8899 1.51 9.93995 1.51 9.99 1.51C10.04 1.51 10.0901 1.51 10.1401 1.51C11.4014 2.43 12.4625 3.61 13.2132 4.99C12.1922 5.32 11.1111 5.5 9.99 5.5C8.86887 5.5 7.77778 5.32 6.76677 4.99C7.51752 3.61 8.57859 2.43 9.83985 1.51ZM15.7558 3.77C15.3854 4.01 15.005 4.22 14.6146 4.42C14.1642 3.56 13.6036 2.77 12.963 2.05C14.004 2.44 14.955 3.03 15.7558 3.77ZM7.01702 2.05C6.37638 2.77 5.81583 3.56 5.36538 4.42C4.97499 4.23 4.58458 4.01 4.22422 3.77C5.02502 3.03 5.97598 2.44 7.01702 2.05ZM3.20321 4.9C3.6937 5.24 4.21422 5.53 4.76477 5.79C4.35436 6.88 4.10412 8.04 4.02404 9.25H1.52154C1.66168 7.62 2.27228 6.13 3.20321 4.9ZM1.52154 10.75H4.02404C4.10412 11.96 4.35436 13.12 4.76477 14.21C4.22423 14.47 3.70371 14.77 3.20321 15.1C2.27228 13.86 1.66168 12.37 1.52154 10.75ZM4.22422 16.23C4.59459 15.99 4.97499 15.78 5.36538 15.58C5.81583 16.44 6.37638 17.23 7.01702 17.95C5.97598 17.56 5.02502 16.97 4.22422 16.23ZM12.963 17.95C13.6036 17.23 14.1642 16.44 14.6146 15.58C15.005 15.77 15.3954 15.99 15.7558 16.23C14.955 16.97 14.004 17.56 12.963 17.95ZM16.7768 15.1C16.2863 14.76 15.7658 14.47 15.2152 14.21C15.6256 13.12 15.8759 11.96 15.9559 10.75H18.4585C18.3183 12.38 17.7077 13.87 16.7768 15.1Z" fill="currentColor"/>
</g>
</svg>
