<svg width="16" height="20" viewBox="0 0 16 20" fill="none" xmlns="http://www.w3.org/2000/svg">
<g id="Group">
<path id="Vector" d="M8 0C3.58 0 0 3.58 0 8C0 14 8 20 8 20C8 20 16 14 16 8C16 3.58 12.42 0 8 0ZM8 18.07C5.6 16.03 1.5 11.76 1.5 8C1.5 4.24 4.42 1.5 8 1.5C11.58 1.5 14.5 4.42 14.5 8C14.5 11.76 10.4 16.03 8 18.07Z" fill="currentColor"/>
<path id="Vector_2" d="M8 4C5.79 4 4 5.79 4 8C4 10.21 5.79 12 8 12C10.21 12 12 10.21 12 8C12 5.79 10.21 4 8 4ZM8 10.5C6.62 10.5 5.5 9.38 5.5 8C5.5 6.62 6.62 5.5 8 5.5C9.38 5.5 10.5 6.62 10.5 8C10.5 9.38 9.38 10.5 8 10.5Z" fill="currentColor"/>
</g>
</svg>
