<svg width="24" height="24" fill="none" xmlns="http://www.w3.org/2000/svg" viewport="unit">
<g id="color=bk">
<path id="Vector" d="M6.18562 3.54L9.85722 7.22L8.01642 9.06C7.93638 9.14 7.81633 9.23 7.68627 9.32L6.79589 9.96L7.14604 11C8.02642 13.63 10.0973 15.58 13.1386 16.65L14.1191 17L14.7794 16.19C14.8194 16.14 14.8594 16.09 14.8994 16.04L14.9294 15.99L16.7702 14.15L20.4418 17.83L18.661 19.61C17.9307 20.18 16.9603 20.49 15.8698 20.49C13.2987 20.49 10.2474 18.86 7.2861 15.89C4.15474 12.76 2.17388 8.13 4.38484 5.31L6.16561 3.53M6.18562 2C5.83547 2 5.48532 2.13 5.2252 2.4L3.29436 4.33C1.15343 6.97 1.36352 12.06 6.25565 16.96C9.87723 20.59 13.2387 22 15.8898 22C17.4205 22 18.7111 21.53 19.6715 20.75L21.6023 18.82C22.1326 18.29 22.1326 17.42 21.6023 16.89L17.7506 13.03C17.4805 12.76 17.1404 12.63 16.7902 12.63C16.4401 12.63 16.0899 12.76 15.8298 13.03L13.899 14.96C13.7989 15.06 13.7289 15.17 13.6489 15.27C11.7781 14.61 9.48706 13.26 8.57666 10.55C8.75674 10.42 8.92681 10.29 9.08688 10.14L11.0177 8.21C11.548 7.68 11.548 6.81 11.0177 6.28L7.16605 2.42C6.89593 2.15 6.55578 2.02 6.20563 2.02L6.18562 2Z" fill="currentColor"/>
</g>
</svg>
