<svg width="20" height="20" viewBox="0 0 20 20" fill="none" xmlns="http://www.w3.org/2000/svg">
<g id="Group">
<path id="Vector" d="M10 0C7.51 0 5.24 0.919998 3.48 2.42C3.1 2.75 2.75 3.1 2.42 3.48C0.909998 5.23 0 7.5 0 10C0 15.52 4.48 20 10 20C12.49 20 14.76 19.08 16.52 17.58C16.9 17.25 17.25 16.9 17.58 16.52C19.09 14.77 20 12.5 20 10C20 4.48 15.52 0 10 0ZM10 18.5C5.31 18.5 1.5 14.69 1.5 10C1.5 7.93 2.25 6.03 3.49 4.55L15.45 16.51C13.97 17.75 12.07 18.5 10 18.5ZM16.51 15.45L4.55 3.49C6.03 2.25 7.93 1.5 10 1.5C14.69 1.5 18.5 5.31 18.5 10C18.5 12.07 17.75 13.97 16.51 15.45Z" fill="currentColor"/>
</g>
</svg>
